<?xml version="1.0" encoding="UTF-8" standalone="no"?>
<svg
   xmlns:dc="http://purl.org/dc/elements/1.1/"
   xmlns:cc="http://creativecommons.org/ns#"
   xmlns:rdf="http://www.w3.org/1999/02/22-rdf-syntax-ns#"
   xmlns:svg="http://www.w3.org/2000/svg"
   xmlns="http://www.w3.org/2000/svg"
   viewBox="0 0 1200 675"
   height="675"
   width="1200"
   xml:space="preserve"
   version="1.1"
   id="svg2"><metadata
     id="metadata8"><rdf:RDF><cc:Work
         rdf:about=""><dc:format>image/svg+xml</dc:format><dc:type
           rdf:resource="http://purl.org/dc/dcmitype/StillImage" /></cc:Work></rdf:RDF></metadata><defs
     id="defs6" /><g
     transform="matrix(1.25,0,0,-1.25,0,675)"
     id="g10"><g
       id="g12"><path
         id="path14"
         style="fill:#ffffff;fill-opacity:1;fill-rule:nonzero;stroke:none"
         d="M 0,0 960,0 960,540 0,540 0,0 Z" /><path
         id="path16"
         style="fill:#ffffff;fill-opacity:1;fill-rule:nonzero;stroke:none"
         d="M 0,0 960,0 960,540 0,540 0,0 Z" /><path
         id="path18"
         style="fill:#ffffff;fill-opacity:1;fill-rule:nonzero;stroke:none"
         d="M 0,0 960,0 960,540 0,540 0,0 Z" /></g><g
       id="g20" /><text
       id="text22"
       style="font-variant:normal;font-weight:normal;font-size:5.4000001px;font-family:'Times New Roman';-inkscape-font-specification:Times-Roman;writing-mode:lr-tb;fill:#000000;fill-opacity:1;fill-rule:nonzero;stroke:none"
       transform="matrix(1,0,0,-1,475.2,10.8)"><tspan
         id="tspan24"
         y="0"
         x="0">6</tspan></text>
<path
       id="path26"
       style="fill:#ffffff;fill-opacity:1;fill-rule:nonzero;stroke:none"
       d="m 826.94,518.62 -0.67,-2.97 6.43,0 -2.4,-10.21 -1.72,-7.56 4.22,0 1.73,7.56 2.3,10.21 6.34,0 0.67,2.97 -16.9,0 z m 103.88,-1.79 -0.87,-3.88 -3.36,0 -0.67,-2.81 12.19,0 0,0 -7.29,6.69 z m -82.18,-3.02 c -2.59,0 -4.8,-0.7 -6.62,-2.16 -1.83,-1.51 -3.08,-3.4 -3.65,-5.83 0,-0.11 -0.1,-0.22 -0.1,-0.38 -0.38,-2.21 0,-4.05 1.15,-5.4 1.25,-1.46 3.17,-2.16 5.76,-2.16 4.42,0 7.88,2.97 8.16,3.29 l -1.92,0.49 c -0.38,-0.11 -2.88,-0.92 -5.37,-0.65 -3.07,0.27 -3.84,2.76 -3.65,4 l 12.48,0 0.1,0.43 0.09,0.43 c 0.58,2.49 0.29,4.43 -0.86,5.83 -1.15,1.41 -2.98,2.11 -5.57,2.11 z m 36.96,0 c -2.69,0 -5.09,-0.76 -7.3,-2.32 -2.11,-1.51 -3.45,-3.46 -4.03,-5.73 0,-0.1 0,-0.21 -0.09,-0.32 -0.39,-2.11 0.09,-3.89 1.53,-5.29 1.44,-1.51 3.55,-2.27 6.24,-2.27 1.63,0 3.36,0.38 5.19,1.13 l 1.05,4.59 c -1.25,-1.02 -2.21,-1.72 -2.97,-2.05 -0.87,-0.38 -1.73,-0.54 -2.79,-0.54 -1.44,0 -2.59,0.43 -3.36,1.35 -0.67,0.81 -0.96,1.84 -0.77,3.08 0,0.16 0.1,0.27 0.1,0.38 0.29,1.4 1.06,2.59 2.3,3.51 1.25,0.86 2.6,1.35 4.13,1.35 0.96,0 1.73,-0.16 2.31,-0.54 0.67,-0.38 1.34,-1.03 2.11,-2 l 0.96,4.64 c -1.35,0.71 -2.88,1.03 -4.61,1.03 z m 15.07,0 c -2.49,0 -4.7,-0.7 -6.53,-2.16 -1.92,-1.51 -3.16,-3.4 -3.64,-5.83 0,-0.11 -0.1,-0.22 -0.1,-0.38 -0.48,-2.21 -0.1,-4.05 1.06,-5.4 1.34,-1.46 3.26,-2.16 5.85,-2.16 4.42,0 7.78,2.97 8.16,3.29 l -1.92,0.49 c -0.48,-0.11 -2.97,-0.92 -5.37,-0.65 -3.17,0.27 -3.84,2.76 -3.65,4 l 12.48,0 0.09,0.43 0.1,0.43 c 0.58,2.49 0.29,4.43 -0.86,5.83 -1.16,1.41 -3.08,2.11 -5.67,2.11 z m -32.45,-0.43 c -1.72,0 -3.45,-0.6 -5.18,-1.78 l -3.74,1.35 -1.73,-7.51 -1.63,-7.56 4.03,0 1.63,7.29 c 0,0.05 0,0.16 0.1,0.27 0.38,1.73 0.96,2.97 1.63,3.67 0.77,0.76 1.73,1.14 3.07,1.14 1.25,0 2.02,-0.27 2.4,-0.87 0.29,-0.54 0.29,-1.56 0,-3.08 l -0.19,-0.86 -1.73,-7.56 4.03,0 1.73,7.56 0.38,1.67 c 0.48,2.16 0.39,3.68 -0.38,4.65 -0.86,1.08 -2.4,1.62 -4.42,1.62 z m 51.75,0 c -1.73,0 -3.46,-0.6 -5.19,-1.78 l -3.74,1.35 -1.63,-7.51 -1.73,-7.56 4.03,0 1.63,7.29 c 0,0.05 0,0.16 0.1,0.27 0.38,1.73 0.96,2.97 1.63,3.67 0.77,0.76 1.73,1.14 3.07,1.14 1.25,0 2.02,-0.27 2.4,-0.87 0.29,-0.54 0.29,-1.56 0,-3.08 l -0.19,-0.86 -1.73,-7.56 4.04,0 1.72,7.56 0.39,1.67 c 0.48,2.16 0.38,3.68 -0.39,4.65 -0.86,1.08 -2.4,1.62 -4.41,1.62 z m -72,-2.7 c 2.21,0 3.36,-0.92 3.45,-2.81 l -8.06,0 c 0.19,0.43 0.48,0.86 0.77,1.19 0.38,0.32 0.77,0.65 1.15,0.86 0.38,0.27 0.86,0.43 1.25,0.54 0.48,0.16 0.96,0.22 1.44,0.22 z m 52.13,0 c 2.11,0 3.26,-0.92 3.45,-2.81 l -8.16,0 c 0.29,0.43 0.58,0.86 0.87,1.19 0.28,0.32 0.67,0.65 1.05,0.86 0.48,0.27 0.87,0.43 1.35,0.54 0.48,0.16 0.96,0.22 1.44,0.22 z m 28.99,-1.24 -0.87,-4 -1.72,-7.56 4.03,0 1.73,7.56 0.86,4 -4.03,0 z" /><path
       id="path28"
       style="fill:#ffffff;fill-opacity:1;fill-rule:nonzero;stroke:none"
       d="m 885.6,31.16 0,0.92 4.03,0 c 0.19,0 0.39,0.05 0.58,0.21 0.19,0.16 0.29,0.33 0.29,0.54 0,0.22 -0.1,0.43 -0.29,0.54 -0.19,0.16 -0.39,0.22 -0.58,0.22 l -2.4,0 c -0.67,0 -1.15,0.27 -1.44,0.75 -0.19,0.27 -0.29,0.49 -0.29,0.81 0,0.38 0.2,0.76 0.48,1.03 0.39,0.32 0.77,0.49 1.16,0.49 l 4.12,0 0,-0.92 -4.03,0 c -0.19,0 -0.38,-0.06 -0.48,-0.16 -0.19,-0.11 -0.29,-0.27 -0.29,-0.49 0,-0.16 0.1,-0.32 0.29,-0.43 0.1,-0.11 0.29,-0.16 0.48,-0.16 l 2.4,0 c 0.77,0 1.25,-0.33 1.63,-0.87 0.1,-0.27 0.2,-0.54 0.2,-0.81 0,-0.48 -0.2,-0.92 -0.48,-1.19 -0.39,-0.32 -0.87,-0.48 -1.35,-0.48 l -4.03,0 z" /><path
       id="path30"
       style="fill:#ffffff;fill-opacity:1;fill-rule:nonzero;stroke:none"
       d="m 897.12,34.4 c -0.1,1.08 -0.86,1.56 -2.11,1.56 -0.58,0 -1.15,-0.16 -1.54,-0.54 -0.48,-0.43 -0.67,-0.86 -0.67,-1.45 0,-0.54 0.19,-1.03 0.58,-1.41 0.48,-0.38 0.96,-0.59 1.53,-0.59 0.48,0 0.96,0.11 1.44,0.27 0.48,0.21 0.87,0.48 0.96,0.86 l 0.67,-0.59 c -0.28,-0.43 -0.67,-0.76 -1.24,-1.03 -0.48,-0.21 -1.06,-0.32 -1.73,-0.32 -0.87,0 -1.63,0.27 -2.21,0.81 -0.58,0.54 -0.96,1.19 -0.96,2 0,0.81 0.38,1.45 0.96,1.99 0.58,0.6 1.34,0.87 2.21,0.87 0.96,-0.06 1.73,-0.22 2.21,-0.6 0.67,-0.48 0.96,-1.18 0.96,-2.16 0,-0.1 0,-0.27 0,-0.37 l -4.52,0 0,0.7 3.46,0 z" /><path
       id="path32"
       style="fill:#ffffff;fill-opacity:1;fill-rule:nonzero;stroke:none"
       d="m 903.55,35.21 c -0.57,0.54 -1.15,0.75 -1.82,0.75 -0.58,0 -1.06,-0.16 -1.44,-0.59 -0.48,-0.38 -0.67,-0.86 -0.67,-1.4 0,-0.54 0.19,-1.03 0.67,-1.41 0.38,-0.38 0.86,-0.59 1.44,-0.59 0.48,0 0.86,0.11 1.25,0.38 0.38,0.21 0.57,0.48 0.76,0.86 l 0.58,-0.54 c -0.48,-1.03 -1.34,-1.51 -2.4,-1.51 -0.96,0 -1.63,0.27 -2.21,0.75 -0.67,0.54 -0.96,1.25 -0.96,2.06 0,0.81 0.29,1.45 0.87,1.99 0.57,0.6 1.34,0.87 2.2,0.87 1.06,0 1.92,-0.38 2.5,-1.19 l -0.77,-0.43 z" /><path
       id="path34"
       style="fill:#ffffff;fill-opacity:1;fill-rule:nonzero;stroke:none"
       d="m 904.8,33.53 0,3.19 0.96,0 0,-3.13 c 0,-0.43 0.19,-0.81 0.48,-1.14 0.29,-0.32 0.67,-0.48 1.15,-0.48 0.48,0 0.96,0.16 1.25,0.48 0.29,0.33 0.48,0.71 0.48,1.14 l 0,3.13 0.96,0 0,-5.51 -0.96,0 0,0.6 c -0.29,-0.22 -0.58,-0.38 -0.86,-0.49 -0.29,-0.11 -0.58,-0.16 -0.87,-0.16 -0.77,0 -1.34,0.21 -1.82,0.7 -0.48,0.49 -0.77,1.03 -0.77,1.67" /><path
       id="path36"
       style="fill:#ffffff;fill-opacity:1;fill-rule:nonzero;stroke:none"
       d="m 914.02,35.91 c -0.48,0 -0.96,-0.16 -1.25,-0.49 -0.29,-0.27 -0.48,-0.7 -0.48,-1.13 l 0,-3.13 -0.96,0 0,5.51 0.96,0 0,-0.6 c 0.38,0.22 0.57,0.38 0.86,0.49 0.29,0.11 0.58,0.16 0.96,0.16 0.77,0 1.44,-0.27 1.92,-0.86 l -0.86,-0.44 c -0.29,0.33 -0.67,0.49 -1.15,0.49" /><path
       id="path38"
       style="fill:#ffffff;fill-opacity:1;fill-rule:nonzero;stroke:none"
       d="m 916.61,37.64 c 0,0.11 0,0.21 0.09,0.32 0.1,0.06 0.2,0.11 0.29,0.11 0.19,0 0.29,-0.05 0.39,-0.11 0.09,-0.11 0.09,-0.21 0.09,-0.32 0,-0.11 0,-0.22 -0.09,-0.33 -0.1,-0.05 -0.2,-0.1 -0.39,-0.1 -0.09,0 -0.19,0.05 -0.29,0.1 -0.09,0.11 -0.09,0.22 -0.09,0.33 m 0.86,-6.48 -0.96,0 0,5.56 0.96,0 0,-5.56 z" /><path
       id="path40"
       style="fill:#ffffff;fill-opacity:1;fill-rule:nonzero;stroke:none"
       d="m 919.1,38.12 0.87,0 0,-1.45 2.01,0 0,-0.81 -2.01,0 0,-2.7 c 0,-0.11 0.09,-0.22 0.09,-0.38 0.1,-0.16 0.1,-0.27 0.2,-0.33 0.19,-0.32 0.67,-0.48 1.24,-0.48 l 0.68,0 0,-0.81 c 0,0 -0.2,0 -0.58,0 -0.29,0 -0.48,0 -0.67,0 -0.19,0 -0.39,0.05 -0.58,0.11 -0.38,0.1 -0.67,0.27 -0.96,0.59 -0.19,0.32 -0.29,0.65 -0.29,1.03 l 0,5.23 z" /><path
       id="path42"
       style="fill:#ffffff;fill-opacity:1;fill-rule:nonzero;stroke:none"
       d="m 922.66,36.67 1.15,0 1.25,-1.84 1.24,1.84 1.16,0 -1.92,-2.76 0,-2.75 -0.96,0 0,2.75 -1.92,2.76 z" /><path
       id="path44"
       style="fill:#ffffff;fill-opacity:1;fill-rule:nonzero;stroke:none"
       d="m 885.5,29.54 1.25,0 0,-9.23 -1.25,0 0,9.23 z" /><path
       id="path46"
       style="fill:#ffffff;fill-opacity:1;fill-rule:nonzero;stroke:none"
       d="m 902.5,25.65 c -0.29,0.59 -0.77,1.08 -1.44,1.46 -0.68,0.32 -1.35,0.48 -2.12,0.48 l -0.86,0 0,-1.02 0.67,0 c 0.87,0 1.54,-0.27 2.11,-0.76 0.48,-0.54 0.77,-1.13 0.77,-1.89 0,-0.7 -0.29,-1.29 -0.77,-1.78 -0.57,-0.49 -1.24,-0.7 -2.01,-0.7 l -1.83,0 0,8.1 -1.15,0 0,-9.29 2.98,0 c 1.15,0 2.11,0.38 2.88,1.08 0.86,0.7 1.25,1.57 1.25,2.59 0,0.6 -0.2,1.19 -0.48,1.73" /><path
       id="path48"
       style="fill:#ffffff;fill-opacity:1;fill-rule:nonzero;stroke:none"
       d="m 893.66,21.28 -2.01,0 c -0.58,0 -1.06,0.16 -1.54,0.37 -0.48,0.27 -0.77,0.6 -1.05,1.08 -0.2,0.33 -0.29,0.71 -0.29,1.14 l 0,0.16 0,0 c 0,0.43 0.09,0.81 0.29,1.19 0.28,0.43 0.57,0.75 1.05,1.02 0.48,0.27 0.96,0.38 1.54,0.38 l 2.01,0 0,-5.34 z m -2.01,6.37 c -0.77,0 -1.44,-0.16 -2.02,-0.54 -0.67,-0.33 -1.15,-0.81 -1.53,-1.41 -0.29,-0.54 -0.39,-1.13 -0.39,-1.72 0,0 0,0 0,0 0,0 0,-0.06 0,-0.06 0,-0.59 0.1,-1.13 0.39,-1.67 0.38,-0.65 0.86,-1.14 1.53,-1.46 0.58,-0.38 1.25,-0.54 2.02,-0.54 l 3.17,0 0,7.4 -3.17,0 z" /><path
       id="path50"
       style="fill:#ffffff;fill-opacity:1;fill-rule:nonzero;stroke:none"
       d="m 885.12,48.28 1.63,0 -0.77,-0.6 -0.86,0.6 z" /><path
       id="path52"
       style="fill:#ffffff;fill-opacity:1;fill-rule:nonzero;stroke:none"
       d="m 885.12,39.74 1.63,0 -0.77,0.6 -0.86,-0.6 z" /><path
       id="path54"
       style="fill:#ffffff;fill-opacity:1;fill-rule:nonzero;stroke:none"
       d="m 890.02,44.01 -3.17,0 4.51,4.27 3.17,0 -4.51,-4.27 z" /><path
       id="path56"
       style="fill:#ffffff;fill-opacity:1;fill-rule:nonzero;stroke:none"
       d="m 891.36,39.74 3.17,0 -4.51,4.27 -3.17,0 4.51,-4.27 z" /><path
       id="path58"
       style="fill:#ffffff;fill-opacity:1;fill-rule:nonzero;stroke:none"
       d="m 888.48,43.04 0,5.24 -2.88,0 0,-8.54 2.88,0 0,3.3 z" /><path
       id="path60"
       style="fill:#ffffff;fill-opacity:1;fill-rule:nonzero;stroke:none"
       d="m 894.91,48.28 1.63,0 -0.67,-0.6 -0.96,0.6 z" /><path
       id="path62"
       style="fill:#ffffff;fill-opacity:1;fill-rule:nonzero;stroke:none"
       d="m 894.91,39.74 1.63,0 -0.67,0.6 -0.96,-0.6 z" /><path
       id="path64"
       style="fill:#ffffff;fill-opacity:1;fill-rule:nonzero;stroke:none"
       d="m 898.37,43.04 0,5.24 -2.88,0 0,-8.54 2.88,0 0,3.3 z" /><path
       id="path66"
       style="fill:#ffffff;fill-opacity:1;fill-rule:nonzero;stroke:none"
       d="m 895.49,48.28 9.22,0 0,-1.67 -9.22,0 0,1.67 z" /><path
       id="path68"
       style="fill:#ffffff;fill-opacity:1;fill-rule:nonzero;stroke:none"
       d="m 895.49,41.47 9.22,0 0,-1.67 -9.22,0 0,1.67 z" /><path
       id="path70"
       style="fill:#ffffff;fill-opacity:1;fill-rule:nonzero;stroke:none"
       d="m 895.49,44.87 7.68,0 0,-1.67 -7.68,0 0,1.67 z" /><path
       id="path72"
       style="fill:#ffffff;fill-opacity:1;fill-rule:nonzero;stroke:none"
       d="m 908.45,43.04 0,5.24 -2.79,0 0,-8.54 2.79,0 0,3.3 z" /><path
       id="path74"
       style="fill:#ffffff;fill-opacity:1;fill-rule:nonzero;stroke:none"
       d="m 905.66,48.28 9.22,0 0,-1.67 -9.22,0 0,1.67 z" /><path
       id="path76"
       style="fill:#ffffff;fill-opacity:1;fill-rule:nonzero;stroke:none"
       d="m 905.66,41.47 9.22,0 0,-1.67 -9.22,0 0,1.67 z" /><path
       id="path78"
       style="fill:#ffffff;fill-opacity:1;fill-rule:nonzero;stroke:none"
       d="m 905.66,44.87 7.68,0 0,-1.67 -7.68,0 0,1.67 z" /><path
       id="path80"
       style="fill:#ffffff;fill-opacity:1;fill-rule:nonzero;stroke:none"
       d="m 918.62,43.04 0,5.24 -2.88,0 0,-8.54 2.88,0 0,3.3 z" /><path
       id="path82"
       style="fill:#ffffff;fill-opacity:1;fill-rule:nonzero;stroke:none"
       d="m 918.62,48.28 -2.88,0 7.49,-8.54 2.79,0 -7.4,8.54 z" /><path
       id="path84"
       style="fill:#ffffff;fill-opacity:1;fill-rule:nonzero;stroke:none"
       d="m 926.02,43.04 0,5.24 -2.79,0 0,-8.54 2.79,0 0,3.3 z" /><path
       id="path86"
       style="fill:#ffffff;fill-opacity:1;fill-rule:nonzero;stroke:none"
       d="m 905.09,48.28 1.63,0 -0.77,-0.6 -0.86,0.6 z" /><path
       id="path88"
       style="fill:#ffffff;fill-opacity:1;fill-rule:nonzero;stroke:none"
       d="m 915.26,48.28 1.64,0 -0.77,-0.6 -0.87,0.6 z" /><path
       id="path90"
       style="fill:#ffffff;fill-opacity:1;fill-rule:nonzero;stroke:none"
       d="m 905.09,39.74 1.63,0 -0.77,0.6 -0.86,-0.6 z" /><path
       id="path92"
       style="fill:#ffffff;fill-opacity:1;fill-rule:nonzero;stroke:none"
       d="m 915.26,39.74 1.64,0 -0.77,0.6 -0.87,-0.6 z" /><path
       id="path94"
       style="fill:#ffffff;fill-opacity:1;fill-rule:nonzero;stroke:none"
       d="m 926.98,48.28 -1.64,0 0.68,-0.6 0.96,0.6 z" /><path
       id="path96"
       style="fill:#ffffff;fill-opacity:1;fill-rule:nonzero;stroke:none"
       d="m 926.98,39.74 -1.64,0 0.68,0.6 0.96,-0.6 z" /><path
       id="path98"
       style="fill:#ffffff;fill-opacity:1;fill-rule:nonzero;stroke:none"
       d="m 840.67,68.8 6.14,0 0,-29 -6.14,0 0,29 z" /><path
       id="path100"
       style="fill:#ffffff;fill-opacity:1;fill-rule:nonzero;stroke:none"
       d="m 841.44,68.8 -2.5,0 1.92,-1.52 0.58,1.52 z" /><path
       id="path102"
       style="fill:#ffffff;fill-opacity:1;fill-rule:nonzero;stroke:none"
       d="m 841.44,39.8 -2.5,0 1.92,1.46 0.58,-1.46 z" /><path
       id="path104"
       style="fill:#ffffff;fill-opacity:1;fill-rule:nonzero;stroke:none"
       d="m 869.86,55.89 6.24,0 0,-3.19 -6.24,0 0,3.19 z" /><path
       id="path106"
       style="fill:#ffffff;fill-opacity:1;fill-rule:nonzero;stroke:none"
       d="m 860.83,52.65 -0.96,1.62 0.96,1.62 2.02,0 0.96,-1.62 -0.96,-1.62 -2.02,0 z" /><path
       id="path108"
       style="fill:#ffffff;fill-opacity:1;fill-rule:nonzero;stroke:none"
       d="m 860.64,44.87 -4.61,0 -5.66,9.35 5.66,9.34 4.61,0 0,5.24 -7.78,0 -8.92,-14.53 8.92,-14.47 7.78,0 0,5.07 z" /><path
       id="path110"
       style="fill:#ffffff;fill-opacity:1;fill-rule:nonzero;stroke:none"
       d="m 870.82,68.8 -7.78,0 0,-5.24 4.51,0 5.76,-9.34 -5.76,-9.35 -4.51,0 0,-5.07 7.78,0 8.92,14.47 -8.92,14.53 z" /><path
       id="path112"
       style="fill:none;stroke:#000000;stroke-width:0.47999999;stroke-linecap:butt;stroke-linejoin:miter;stroke-miterlimit:10;stroke-dasharray:none;stroke-opacity:1"
       d="m 48,54 576,0 0,54 -576,0 0,-54 z" /><text
       id="text114"
       style="font-variant:normal;font-weight:normal;font-size:16.20000076px;font-family:SimSun;-inkscape-font-specification:SimSun;writing-mode:lr-tb;fill:#000000;fill-opacity:1;fill-rule:nonzero;stroke:none"
       transform="matrix(1,0,0,-1,76.8,75.6)"><tspan
         id="tspan116"
         y="0"
         x="0 8.1000004 16.200001 24.299999 32.400002 40.5 48.599998 56.700001 64.800003 72.900002 81 89.099998 97.199997 105.3 113.4 121.5 129.60001 137.7 145.8 153.89999 162 170.10001 178.2 186.3 194.39999 202.5 210.60001 218.7 226.8 234.89999 243 251.10001 259.20001 267.29999 275.39999 283.5 291.60001 299.70001 307.79999 315.89999 324 332.10001 340.20001 348.29999 356.39999">FreeSList: Head -&gt; C -&gt; D -&gt; E -&gt; F -&gt; G -&gt; H</tspan></text>
<path
       id="path118"
       style="fill:#646464;fill-opacity:1;fill-rule:nonzero;stroke:none"
       d="m 509.76,249.26 84.48,0 0,50.33 -84.48,0 0,-50.33 z" /><path
       id="path120"
       style="fill:none;stroke:#000000;stroke-width:2.21000004;stroke-linecap:butt;stroke-linejoin:miter;stroke-miterlimit:10;stroke-dasharray:3;stroke-dashoffset:0;stroke-opacity:1"
       d="m 96,243 0,62.96" /><path
       id="path122"
       style="fill:none;stroke:#000000;stroke-width:2.21000004;stroke-linecap:butt;stroke-linejoin:miter;stroke-miterlimit:10;stroke-dasharray:3;stroke-dashoffset:0;stroke-opacity:1"
       d="m 864,243 0,62.96" /><path
       id="path124"
       style="fill:none;stroke:#000000;stroke-width:2.21000004;stroke-linecap:butt;stroke-linejoin:miter;stroke-miterlimit:10;stroke-dasharray:3;stroke-dashoffset:0;stroke-opacity:1"
       d="m 96,243 768,0" /><path
       id="path126"
       style="fill:none;stroke:#000000;stroke-width:2.21000004;stroke-linecap:butt;stroke-linejoin:miter;stroke-miterlimit:10;stroke-dasharray:3;stroke-dashoffset:0;stroke-opacity:1"
       d="m 96,305.96 768,0" /><path
       id="path128"
       style="fill:none;stroke:#000000;stroke-width:2.21000004;stroke-linecap:butt;stroke-linejoin:miter;stroke-miterlimit:10;stroke-dasharray:3;stroke-dashoffset:0;stroke-opacity:1"
       d="m 351.94,243 0,62.96" /><path
       id="path130"
       style="fill:none;stroke:#000000;stroke-width:2.21000004;stroke-linecap:butt;stroke-linejoin:miter;stroke-miterlimit:10;stroke-dasharray:3;stroke-dashoffset:0;stroke-opacity:1"
       d="m 607.97,243 0,62.96" /><path
       id="path132"
       style="fill:none;stroke:#000000;stroke-width:1.05999994;stroke-linecap:butt;stroke-linejoin:miter;stroke-miterlimit:10;stroke-dasharray:none;stroke-opacity:1"
       d="m 96,249.26 68.93,0 0,50.33 -68.93,0 0,-50.33 z m 0,0 137.86,0 0,50.33 -137.86,0 0,-50.33 z m 0,0 206.88,0 0,50.33 -206.88,0 0,-50.33 z m 0,0 275.81,0 0,50.33 -275.81,0 0,-50.33 z m 0,0 344.74,0 0,50.33 -344.74,0 0,-50.33 z m 0,0 413.76,0 0,50.33 -413.76,0 0,-50.33 z m 0,0 482.69,0 0,50.33 -482.69,0 0,-50.33 z m 0,0 551.71,0 0,50.33 -551.71,0 0,-50.33 z m 0,0 551.71,0 0,50.33 -551.71,0 0,-50.33 z" /><path
       id="path134"
       style="fill:none;stroke:#000000;stroke-width:1.05999994;stroke-linecap:butt;stroke-linejoin:miter;stroke-miterlimit:10;stroke-dasharray:none;stroke-opacity:1"
       d="m 172.8,249.26 c 0,-37.74 -76.8,-37.74 -76.8,0 m 0,0 -3.84,-3.13" /><path
       id="path136"
       style="fill:none;stroke:#000000;stroke-width:1.05999994;stroke-linecap:butt;stroke-linejoin:miter;stroke-miterlimit:10;stroke-dasharray:none;stroke-opacity:1"
       d="m 96,249.26 3.84,-3.13" /><path
       id="path138"
       style="fill:none;stroke:#000000;stroke-width:1.05999994;stroke-linecap:butt;stroke-linejoin:miter;stroke-miterlimit:10;stroke-dasharray:none;stroke-opacity:1"
       d="m 241.73,299.65 c 0,37.8 -76.8,37.8 -76.8,0 m 0,0 -3.84,3.13" /><path
       id="path140"
       style="fill:none;stroke:#000000;stroke-width:1.05999994;stroke-linecap:butt;stroke-linejoin:miter;stroke-miterlimit:10;stroke-dasharray:none;stroke-opacity:1"
       d="m 164.93,299.65 3.84,3.13" /><path
       id="path142"
       style="fill:none;stroke:#000000;stroke-width:1.05999994;stroke-linecap:butt;stroke-linejoin:miter;stroke-miterlimit:10;stroke-dasharray:none;stroke-opacity:1"
       d="m 310.66,249.26 c 0,-37.74 -76.8,-37.74 -76.8,0 m 0,0 -3.84,-3.13" /><path
       id="path144"
       style="fill:none;stroke:#000000;stroke-width:1.05999994;stroke-linecap:butt;stroke-linejoin:miter;stroke-miterlimit:10;stroke-dasharray:none;stroke-opacity:1"
       d="m 233.86,249.26 3.84,-3.13" /><path
       id="path146"
       style="fill:none;stroke:#000000;stroke-width:1.05999994;stroke-linecap:butt;stroke-linejoin:miter;stroke-miterlimit:10;stroke-dasharray:none;stroke-opacity:1"
       d="m 379.68,299.65 c 0,37.8 -76.8,37.8 -76.8,0 m 0,0 -3.84,3.13" /><path
       id="path148"
       style="fill:none;stroke:#000000;stroke-width:1.05999994;stroke-linecap:butt;stroke-linejoin:miter;stroke-miterlimit:10;stroke-dasharray:none;stroke-opacity:1"
       d="m 302.88,299.65 3.84,3.13" /><path
       id="path150"
       style="fill:none;stroke:#000000;stroke-width:1.05999994;stroke-linecap:butt;stroke-linejoin:miter;stroke-miterlimit:10;stroke-dasharray:none;stroke-opacity:1"
       d="m 448.61,249.26 c 0,-37.74 -76.8,-37.74 -76.8,0 m 0,0 -3.84,-3.13" /><path
       id="path152"
       style="fill:none;stroke:#000000;stroke-width:1.05999994;stroke-linecap:butt;stroke-linejoin:miter;stroke-miterlimit:10;stroke-dasharray:none;stroke-opacity:1"
       d="m 371.81,249.26 3.84,-3.13" /><path
       id="path154"
       style="fill:none;stroke:#000000;stroke-width:1.05999994;stroke-linecap:butt;stroke-linejoin:miter;stroke-miterlimit:10;stroke-dasharray:none;stroke-opacity:1"
       d="m 440.83,299.65 -3.84,3.13" /><path
       id="path156"
       style="fill:none;stroke:#000000;stroke-width:1.05999994;stroke-linecap:butt;stroke-linejoin:miter;stroke-miterlimit:10;stroke-dasharray:none;stroke-opacity:1"
       d="m 440.83,299.65 3.84,3.13" /><path
       id="path158"
       style="fill:none;stroke:#000000;stroke-width:1.05999994;stroke-linecap:butt;stroke-linejoin:miter;stroke-miterlimit:10;stroke-dasharray:none;stroke-opacity:1"
       d="m 440.83,299.65 0,37.8" /><text
       id="text160"
       style="font-variant:normal;font-weight:normal;font-size:12.57999992px;font-family:SimSun;-inkscape-font-specification:SimSun;writing-mode:lr-tb;fill:#000000;fill-opacity:1;fill-rule:nonzero;stroke:none"
       transform="matrix(1,0,0,-1,421.54,340.58)"><tspan
         id="tspan162"
         y="0"
         x="0 6.29 12.58 18.870001 25.16 31.450001 37.740002 44.029999 50.32 56.610001 62.900002 69.190002 75.480003 81.769997">FreeTokensHead</tspan></text>
<text
       id="text164"
       style="font-variant:normal;font-weight:normal;font-size:12.57999992px;font-family:SimSun;-inkscape-font-specification:SimSun;writing-mode:lr-tb;fill:#000000;fill-opacity:1;fill-rule:nonzero;stroke:none"
       transform="matrix(1,0,0,-1,126.72,268.16)"><tspan
         id="tspan166"
         y="0"
         x="0">H</tspan></text>
<text
       id="text168"
       style="font-variant:normal;font-weight:normal;font-size:12.57999992px;font-family:SimSun;-inkscape-font-specification:SimSun;writing-mode:lr-tb;fill:#000000;fill-opacity:1;fill-rule:nonzero;stroke:none"
       transform="matrix(1,0,0,-1,195.65,268.16)"><tspan
         id="tspan170"
         y="0"
         x="0">G</tspan></text>
<text
       id="text172"
       style="font-variant:normal;font-weight:normal;font-size:12.57999992px;font-family:SimSun;-inkscape-font-specification:SimSun;writing-mode:lr-tb;fill:#000000;fill-opacity:1;fill-rule:nonzero;stroke:none"
       transform="matrix(1,0,0,-1,264.58,268.16)"><tspan
         id="tspan174"
         y="0"
         x="0">F</tspan></text>
<text
       id="text176"
       style="font-variant:normal;font-weight:normal;font-size:12.57999992px;font-family:SimSun;-inkscape-font-specification:SimSun;writing-mode:lr-tb;fill:#000000;fill-opacity:1;fill-rule:nonzero;stroke:none"
       transform="matrix(1,0,0,-1,333.6,268.16)"><tspan
         id="tspan178"
         y="0"
         x="0">E</tspan></text>
<text
       id="text180"
       style="font-variant:normal;font-weight:normal;font-size:12.57999992px;font-family:SimSun;-inkscape-font-specification:SimSun;writing-mode:lr-tb;fill:#000000;fill-opacity:1;fill-rule:nonzero;stroke:none"
       transform="matrix(1,0,0,-1,402.53,268.16)"><tspan
         id="tspan182"
         y="0"
         x="0">D</tspan></text>
<text
       id="text184"
       style="font-variant:normal;font-weight:normal;font-size:12.57999992px;font-family:SimSun;-inkscape-font-specification:SimSun;writing-mode:lr-tb;fill:#000000;fill-opacity:1;fill-rule:nonzero;stroke:none"
       transform="matrix(1,0,0,-1,471.55,268.16)"><tspan
         id="tspan186"
         y="0"
         x="0">C</tspan></text>
<text
       id="text188"
       style="font-variant:normal;font-weight:normal;font-size:12.57999992px;font-family:SimSun;-inkscape-font-specification:SimSun;writing-mode:lr-tb;fill:#000000;fill-opacity:1;fill-rule:nonzero;stroke:none"
       transform="matrix(1,0,0,-1,540.48,268.16)"><tspan
         id="tspan190"
         y="0"
         x="0">B</tspan></text>
<text
       id="text192"
       style="font-variant:normal;font-weight:normal;font-size:12.57999992px;font-family:SimSun;-inkscape-font-specification:SimSun;writing-mode:lr-tb;fill:#000000;fill-opacity:1;fill-rule:nonzero;stroke:none"
       transform="matrix(1,0,0,-1,609.41,268.16)"><tspan
         id="tspan194"
         y="0"
         x="0">A</tspan></text>
</g></svg>