<svg xmlns="http://www.w3.org/2000/svg" viewBox="0 0 182.906 167.023"><g data-name="Layer 2"><g data-name="ART"><path d="M182.077 48.147c0-8.662-35.623-15.685-71.874-15.685S38.33 39.485 38.33 48.147a5.309 5.309 0 001.869 3.726h-.116l59.367 54.8v34.964c-23.673 5.62-38.972 9.506-38.972 14.375 0 5.575 19.29 10.095 47.703 10.095 28.412 0 47.703-4.52 47.703-10.095 0-4.79-18.173-10.07-39.27-14.71v-33.495c.26-.21.523-.415.771-.645l62.623-55.09c.069-.065.132-.13.198-.195l.004-.004a5.309 5.309 0 001.868-3.726z" fill="#f0f6fc"/><path d="M54.66 59.485l47.622 41.136a9.353 9.353 0 0012.383.218l52.15-41.759a1.364 1.364 0 00-1.234-2.287c-12.475 3.738-57.377 10.377-110.308.474-1.189-.223-1.485 1.409-.614 2.218z" fill="#cedd3e"/><path d="M167.526 57.91c-2.42 2.288-28.97 6.612-57.014 6.612S57.359 60.74 53.497 57.91c0-4.358 28.97-9.17 57.015-9.17s57.014 4.812 57.014 9.17z" fill="#b5c933"/><path d="M108.18 167.023c-23.416 0-48.62-3.446-48.62-11.011 0-5.25 11.883-8.658 38.972-15.1v-33.838L39.46 52.547a.917.917 0 011.243-1.348L100.07 106a.918.918 0 01.295.674v34.964a.916.916 0 01-.704.891c-18.814 4.467-38.267 9.085-38.267 13.484 0 4.414 17.887 9.177 46.786 9.177s46.786-4.763 46.786-9.177c0-1.992-5.008-6.437-38.55-13.816a.917.917 0 01-.72-.895v-33.493a.917.917 0 01.339-.711l.158-.128c.193-.156.386-.31.57-.48l62.84-55.304a.917.917 0 011.211 1.377L117.99 107.85c-.143.131-.3.263-.46.394v32.32c34.783 7.702 39.27 12.298 39.27 15.447 0 7.565-25.203 11.011-48.62 11.011z" fill="#3e4147"/><path d="M110.203 64.661c-35.11 0-72.703-6.636-72.703-16.514s37.592-16.514 72.703-16.514 72.703 6.636 72.703 16.514-37.592 16.514-72.703 16.514zm0-31.37c-36.518 0-71.045 7.22-71.045 14.856s34.527 14.856 71.045 14.856 71.045-7.22 71.045-14.856-34.526-14.856-71.045-14.856z" fill="#3e4147"/><path d="M38.33 48.147c2.626 9.303 29.062 13.073 45.558 14.529a43.534 43.534 0 10-13.954 16.949C31.716 47.655 38.33 48.147 38.33 48.147z" fill="#ed9b42"/><path d="M49.947 51.021l27.808 3.213a2.104 2.104 0 002.354-1.658 36.49 36.49 0 00-6.063-28.316 2.098 2.098 0 00-3.164-.258L48.579 46.298a2.107 2.107 0 00-.61 1.858l.187 1.124a2.107 2.107 0 001.791 1.741z" fill="#fdbe2a"/><path d="M78.047 55.17a3.018 3.018 0 01-.417-.027l-27.788-3.211-.02-.002a3.011 3.011 0 01-2.57-2.498l-.187-1.125a3.022 3.022 0 01.875-2.665l22.294-22.288a3.067 3.067 0 012.4-.857 2.975 2.975 0 012.158 1.23 37.063 37.063 0 016.94 21.677 37.6 37.6 0 01-.724 7.352 3.019 3.019 0 01-2.961 2.415zm-27.983-5.058l27.796 3.212a1.197 1.197 0 001.35-.928 35.747 35.747 0 00.69-6.992 35.244 35.244 0 00-6.6-20.611 1.127 1.127 0 00-.83-.47 1.177 1.177 0 00-.95.336L49.228 46.947a1.195 1.195 0 00-.353 1.058l.187 1.125a1.186 1.186 0 001.003.982z" fill="#3e4147"/><path d="M40.527 45.218l.652-.623a2.107 2.107 0 00.584-2.049l-9.996-28.655a2.116 2.116 0 00-2.968-1.37 36.512 36.512 0 00-18.5 20.167 2.1 2.1 0 001.46 2.75l26.786 10.298a2.107 2.107 0 001.982-.518z" fill="#fdbe2a"/><path d="M39.08 46.72a3.04 3.04 0 01-.763-.097.925.925 0 01-.1-.032L11.474 36.31a3.048 3.048 0 01-1.882-1.524 2.985 2.985 0 01-.154-2.419 37.676 37.676 0 0118.967-20.675 3.05 3.05 0 012.605-.01 3.007 3.007 0 011.644 1.98l9.973 28.581a3.05 3.05 0 01-.815 3.013l-.652.623a3.002 3.002 0 01-2.082.84zm-.262-1.862a1.19 1.19 0 001.076-.302v-.001l.652-.623a1.191 1.191 0 00.33-1.158l-9.974-28.58a1.205 1.205 0 00-1.71-.844 35.825 35.825 0 00-18.035 19.659 1.131 1.131 0 00.062.93 1.207 1.207 0 00.769.612.917.917 0 01.1.032z" fill="#3e4147"/><path d="M44.356 44.211l1.596.803a2.107 2.107 0 002.497-.455L68.09 20.645a2.1 2.1 0 00-.166-3.02A36.33 36.33 0 0038.192 9.54a2.103 2.103 0 00-1.69 2.46l6.729 30.714a2.107 2.107 0 001.125 1.497z" fill="#fdbe2a"/><path d="M46.883 46.15a2.971 2.971 0 01-1.343-.318l-1.596-.802a3.044 3.044 0 01-1.614-2.148l-6.724-30.685a3.035 3.035 0 01.487-2.32 2.97 2.97 0 011.942-1.24 37.237 37.237 0 0130.483 8.29 2.956 2.956 0 011.045 2.092 3.054 3.054 0 01-.798 2.247L49.157 45.142a3.093 3.093 0 01-2.274 1.008zm-2.47-36.232a35.493 35.493 0 00-6.064.525 1.147 1.147 0 00-.75.482 1.196 1.196 0 00-.196.908l6.723 30.685a1.214 1.214 0 00.642.874l1.596.802a1.192 1.192 0 001.41-.256l19.608-23.876a1.233 1.233 0 00.351-.93 1.139 1.139 0 00-.4-.807 35.486 35.486 0 00-22.92-8.407z" fill="#3e4147"/><path d="M37.544 47.242l-26.85-7.505a2.101 2.101 0 00-2.478 1.823 36.28 36.28 0 004.236 21.266 2.1 2.1 0 003.099.65L38.326 51.88a2.107 2.107 0 00.832-1.454l.098-.878a2.107 2.107 0 00-1.712-2.306z" fill="#fdbe2a"/><path d="M14.28 64.815a3.026 3.026 0 01-.648-.069 2.978 2.978 0 01-1.985-1.48 37.206 37.206 0 01-4.343-21.804 2.996 2.996 0 011.187-2.073 3.073 3.073 0 012.369-.553l26.895 7.514a3.035 3.035 0 012.411 3.3l-.097.878a3.033 3.033 0 01-1.194 2.086.909.909 0 01-.133.082L16.031 64.26a3.039 3.039 0 01-1.752.555zM10.31 40.61a1.256 1.256 0 00-.724.25 1.14 1.14 0 00-.46.798 35.353 35.353 0 004.129 20.73 1.13 1.13 0 00.766.567 1.202 1.202 0 00.98-.212.82.82 0 01.133-.083L37.83 51.104a1.194 1.194 0 00.417-.779l.097-.879a1.195 1.195 0 00-.967-1.302.752.752 0 01-.08-.019l-26.85-7.505a.87.87 0 00-.136-.01zm28.015 11.27z" fill="#3e4147"/><path d="M76.742 62.03c.153-.297.316-.588.461-.889a2.115 2.115 0 00-1.43-2.993l-27.146-6.086a2.108 2.108 0 00-1.57.265l-2.592 1.606c-.055.034-.104.075-.155.114 12.336 6.145 27.04 7.667 32.432 7.983z" fill="#fdbe2a"/><path d="M76.742 62.947a.981.981 0 01-.054-.002c-4.407-.259-19.795-1.605-32.787-8.078a.917.917 0 01-.147-1.55 2.587 2.587 0 01.228-.164l2.591-1.605a2.998 2.998 0 012.254-.381l27.146 6.087a3.004 3.004 0 012.057 1.63 3.038 3.038 0 01-.001 2.656c-.1.204-.205.404-.311.604l-.162.307a.918.918 0 01-.814.496zm-30.543-9.01c11.82 5.462 25.239 6.82 30.009 7.141.058-.111.115-.223.17-.336a1.21 1.21 0 00.001-1.058 1.176 1.176 0 00-.807-.641l-27.145-6.087a1.184 1.184 0 00-.887.15z" fill="#3e4147"/><path d="M43.494 55.434a2.092 2.092 0 00.03.772l5.463 23.255a2.109 2.109 0 002.448 1.592 36.182 36.182 0 0013.463-5.637c-11.955-9.668-19.027-17.14-21.404-19.982z" fill="#fdbe2a"/><path d="M51.026 82.01a3.015 3.015 0 01-2.931-2.34l-5.463-23.254a3.005 3.005 0 01-.046-1.11.916.916 0 011.611-.46c.7.838 7.246 8.51 21.277 19.857a.916.916 0 01-.06 1.47 36.93 36.93 0 01-13.803 5.78 2.993 2.993 0 01-.585.058zm-6.022-23.515l4.875 20.756a1.2 1.2 0 001.38.903 35.062 35.062 0 0012.09-4.816 187.874 187.874 0 01-18.345-16.843z" fill="#3e4147"/><path d="M41.553 52.72a2.107 2.107 0 00-2.955-.253L17.82 66.996a2.099 2.099 0 00-.222 3.023 36.3 36.3 0 0023.96 11.673 2.116 2.116 0 002.273-2.388L42.036 53.8a2.107 2.107 0 00-.483-1.08z" fill="#fdbe2a"/><path d="M41.728 82.615c-.08 0-.16-.003-.241-.009A37.162 37.162 0 0116.923 70.64a2.956 2.956 0 01-.776-2.215 3.054 3.054 0 011.086-2.133l20.84-14.575a3.017 3.017 0 014.177.407 3.019 3.019 0 01.694 1.552l1.802 25.563a2.969 2.969 0 01-.8 2.42 3.037 3.037 0 01-2.218.956zm-1.78-29.719a1.18 1.18 0 00-.762.276l-20.84 14.575a1.181 1.181 0 00-.369.799 1.136 1.136 0 00.296.853 35.333 35.333 0 0023.355 11.38 1.185 1.185 0 00.983-.378 1.163 1.163 0 00.312-.973l-1.801-25.564a1.168 1.168 0 00-.267-.55 1.188 1.188 0 00-.908-.418z" fill="#3e4147"/><path d="M44.413 88.826a44.415 44.415 0 1140.306-25.764.935.935 0 01-.912.527c-14.427-1.274-31.183-3.787-40.15-8.743C47.89 59.233 55.793 66.6 70.522 78.922a.917.917 0 01-.05 1.445 44.087 44.087 0 01-26.06 8.46zm0-86.992a42.58 42.58 0 1024.02 77.728C35.5 51.945 36.645 49.115 37.08 48.044a1.312 1.312 0 011.316-.81.916.916 0 01.814.664c1.81 6.41 17.874 11.433 44.111 13.807a42.579 42.579 0 00-38.91-59.871z" fill="#3e4147"/><path d="M87.388 33.372c7.348-.589 15.068-.91 22.815-.91 36.251 0 71.874 7.023 71.874 15.685s-35.623 15.685-71.874 15.685S38.33 56.81 38.33 48.147" fill="none"/><path d="M151.421 66.556l-32.983 27.857a.933.933 0 01-1.36-1.258L135.82 67.1a.933.933 0 01.64-.38l14.243-1.802a.933.933 0 01.72 1.638zM143.703 155.956l-27.35-11.38a.701.701 0 00-.82 1.081l11.202 14.226a.695.695 0 00.591.266c2.093-.132 12.622-.887 16.455-2.934a.7.7 0 00-.078-1.259z" fill="#fff"/></g></g></svg>
