<?xml version="1.0" encoding="utf-8"?>
<!-- Generator: Adobe Illustrator 23.0.4, SVG Export Plug-In . SVG Version: 6.00 Build 0)  -->
<svg version="1.1" id="overcastCanvas" xmlns="http://www.w3.org/2000/svg" xmlns:xlink="http://www.w3.org/1999/xlink" x="0px"
	 y="0px" viewBox="0 0 1000 1000" style="enable-background:new 0 0 1000 1000;" xml:space="preserve">
<style type="text/css">
	.st0{fill-rule:evenodd;clip-rule:evenodd;fill:#FFFFFF;}
</style>
<g id="overcastCanvas-group">
	<path id="overcastCanvas-bezier" class="st0" d="M500,900c-221.7,0-400-178.3-400-400s178.3-400,400-400s400,178.3,400,400
		S721.7,900,500,900z M500,741.7l30-30l-30-115l-30,115L500,741.7z M461.7,740l-15,56.7l35-35L461.7,740z M538.3,740l-20,20l35,35
		L538.3,740z M566.7,843.3L500,776.7l-66.7,66.7c21.7,3.3,43.3,6.7,66.7,6.7C523.3,850,545,848.3,566.7,843.3z M500,150
		c-193.3,0-350,156.7-350,350c0,153.3,98.3,283.3,235,330l75-278.3c-16.7-11.7-26.7-31.7-26.7-53.3c0-36.7,30-66.7,66.7-66.7
		s66.7,30,66.7,66.7c0,21.7-10,40-26.7,53.3L615,830c136.7-46.7,235-176.7,235-330C850,306.7,693.3,150,500,150z M728.3,673.3
		c-8.3,10-23.3,13.3-35,5c-11.7-8.3-13.3-23.3-5-33.3c0,0,45-60,45-145s-45-145-45-145c-8.3-10-6.7-25,5-33.3c11.7-8.3,26.7-5,35,5
		c3.3,3.3,55,71.7,55,173.3S731.7,670,728.3,673.3z M606.7,608.3c-10-10-8.3-28.3,1.7-38.3c0,0,25-26.7,25-70s-25-68.3-25-70
		c-10-10-10-26.7-1.7-38.3c10-11.7,25-11.7,35-1.7c1.7,1.7,41.7,43.3,41.7,110s-40,108.3-41.7,110
		C631.7,620,616.7,618.3,606.7,608.3z M393.3,608.3c-10,10-25,11.7-35,1.7c-1.7-3.3-41.7-43.3-41.7-110s40-106.7,41.7-110
		c10-10,26.7-10,35,1.7c10,10,8.3,28.3-1.7,38.3c0,1.7-25,26.7-25,70s25,70,25,70C401.7,580,403.3,596.7,393.3,608.3z M306.7,678.3
		c-11.7,8.3-26.7,5-35-5c-3.3-3.3-55-71.7-55-173.3s51.7-170,55-173.3c8.3-10,23.3-13.3,35-5c11.7,8.3,13.3,23.3,5,33.3
		c0,0-45,60-45,145s45,145,45,145C320,655,316.7,670,306.7,678.3z"/>
</g>
</svg>
