<?xml version="1.0" encoding="utf-8" standalone="no"?>
<!DOCTYPE svg PUBLIC "-//W3C//DTD SVG 1.1//EN"
  "http://www.w3.org/Graphics/SVG/1.1/DTD/svg11.dtd">
<!-- Created with matplotlib (http://matplotlib.org/) -->
<svg height="288pt" version="1.1" viewBox="0 0 468 288" width="468pt" xmlns="http://www.w3.org/2000/svg" xmlns:xlink="http://www.w3.org/1999/xlink">
 <defs>
  <style type="text/css">
*{stroke-linecap:butt;stroke-linejoin:round;}
  </style>
 </defs>
 <g id="figure_1">
  <g id="patch_1">
   <path d="
M0 288
L468 288
L468 0
L0 0
z
" style="fill:#ffffff;"/>
  </g>
  <g id="axes_1">
   <g id="patch_2">
    <path d="
M40.1209 258.44
L451.876 258.44
L451.876 12.96
L40.1209 12.96
z
" style="fill:#ffffff;"/>
   </g>
   <g id="line2d_1">
    <path clip-path="url(#pc89bf65551)" d="
M40.1209 517.985
M81.3517 289
L81.7124 287.433
L85.8715 270.934
L90.0306 254.981
L94.1898 239.968
L98.3489 225.46
L102.508 212.662
L106.667 200.356
L110.826 189.139
L114.985 178.678
L119.145 168.962
L123.304 160.211
L127.463 152.046
L131.622 144.677
L135.781 138.204
L139.94 132.367
L144.099 127.096
L148.259 122.567
L152.418 118.536
L156.577 115.148
L160.736 112.299
L164.895 110.016
L169.054 108.305
L173.213 107.068
L177.373 106.22
L181.532 105.765
L185.691 105.866
L189.85 106.209
L194.009 107.074
L198.168 108.143
L202.327 109.616
L206.487 111.226
L210.646 113.167
L214.805 115.163
L218.964 117.529
L223.123 120.038
L227.282 122.684
L231.441 125.498
L235.601 128.323
L239.76 131.257
L243.919 134.212
L248.078 137.185
L252.237 140.143
L256.396 143.065
L260.555 145.95
L264.715 148.663
L268.874 151.317
L273.033 153.853
L277.192 156.233
L281.351 158.334
L285.51 160.183
L289.669 161.783
L293.829 163.309
L297.988 164.245
L302.147 164.974
L306.306 165.454
L310.465 165.585
L314.624 165.073
L318.783 164.482
L322.943 162.965
L327.102 161.292
L331.261 159.006
L335.42 156.244
L339.579 152.737
L343.738 148.798
L347.897 144.368
L352.057 139.133
L356.216 133.117
L360.375 126.634
L364.534 119.314
L368.693 111.357
L372.852 102.484
L377.011 92.6617
L381.171 82.3026
L385.33 70.7911
L389.489 58.7193
L393.648 45.8634
L397.807 31.7433
L401.966 16.7722
L406.125 1.23575
L406.656 -1" style="fill:none;stroke:#0000ff;stroke-linecap:square;"/>
   </g>
   <g id="line2d_2">
    <path clip-path="url(#pc89bf65551)" d="
M40.1209 -321.87
M50.6032 -1
L52.5984 233.793
L53.2976 289
M63.9794 289
L64.7544 -1
M65.772 -1
L67.4509 289
M74.2168 289
L77.5532 41.7402
L81.7124 33.4152
L85.8715 80.1915
L90.0306 113.268
L94.1898 99.7441
L98.3489 197.973
L102.508 126.419
L106.667 125.754
L110.826 132.649
L114.985 132.195
L119.145 145.278
L123.304 135.552
L127.463 134.811
L130.701 -1
M132.538 -1
L135.781 135.784
L139.94 135.768
L144.099 125.634
L147.326 289
M149.239 289
L152.418 135.74
L156.577 135.823
L160.736 137.277
L164.895 130.445
L169.054 136.338
L173.213 135.747
L174.803 -1
M179.921 -1
L181.532 138.695
L185.691 140.568
L189.85 140.498
L194.009 77.4553
L198.168 80.4848
L202.327 122.126
L206.487 142.95
L210.646 141.174
L214.805 143.625
L218.964 141.622
L223.123 123.317
L227.282 134.111
L231.441 139.065
L235.601 25.1246
L239.76 124.855
L243.919 135.176
L248.078 135.267
L252.237 140.798
L256.396 132.842
L260.555 140.827
L264.715 137.731
L268.874 135.756
L273.033 130.252
L277.192 258.768
L281.351 130.016
L284.839 289
M286.179 289
L289.669 129.33
L293.829 130.419
L297.988 133.334
L302.147 137.623
L306.306 132.193
L310.465 134.059
L314.624 163.619
L318.783 139.894
L322.943 132.757
L327.102 137.546
L331.261 243.518
L335.42 132.289
L339.579 135.495
L343.738 67.7534
L347.897 142.911
L352.057 135.697
L356.216 117.948
L360.375 136.38
L364.534 167.015
L368.693 136.182
L372.852 42.0547
L377.011 136.314
L378.889 -1
M383.426 -1
L385.33 139.752
L389.489 147.853
L390.266 -1
M397.748 -1
L397.807 8.28319
L401.966 196.325
L403.269 -1
M409.106 -1
L410.285 169.983
L414.444 252.91
L418.603 191.959
L419.416 -1
M426.198 -1
L426.921 166.269
L429.404 289
M436.842 289
L438.068 -1
M440.818 -1
L442.126 289
M444.463 289
L445.289 -1
M450.131 -1
L450.953 289" style="fill:none;stroke:#008000;stroke-linecap:square;"/>
   </g>
   <g id="line2d_3">
    <path clip-path="url(#pc89bf65551)" d="
M40.1209 464.77
M46.7651 289
L48.4392 19.6575
L49.6473 289
M55.3791 289
L56.6047 -1
M56.9762 -1
L58.7311 289
M70.4316 289
L73.3941 55.3977
L77.1368 289
M85.469 289
L85.8715 277.809
L90.0306 215.236
L94.1898 267.95
L98.3489 180.012
L102.508 133.409
L106.667 262.228
L110.826 154.56
L114.985 170.243
L119.145 151.404
L123.304 186.424
L127.463 137.658
L131.622 137.265
L135.781 138.962
L139.94 111.467
L144.099 136.137
L148.259 103.885
L152.418 114.295
L156.577 124.076
L160.736 125.409
L164.895 112.612
L169.054 118.245
L173.213 81.1049
L177.373 127.041
L181.532 124.763
L185.691 134.747
L189.85 94.8025
L194.009 121.916
L198.168 63.6408
L202.327 39.9906
L206.487 109.807
L210.646 112.385
L214.805 121.936
L218.964 117.403
L223.123 116.872
L227.282 114.468
L231.441 126.552
L235.601 126.719
L239.76 132.567
L243.919 134.847
L248.078 137.697
L252.237 136.875
L256.396 149.422
L260.555 139.147
L264.715 145.858
L268.874 159.555
L273.033 145.512
L277.192 154.694
L281.351 198.137
L285.51 194.991
L289.669 174.51
L293.829 178.549
L297.988 136.954
L302.147 149.25
L306.306 164.457
L310.465 159.661
L314.624 151.633
L318.783 197.271
L322.943 192.38
L327.102 132.067
L331.261 151.963
L335.42 151.788
L339.579 132.502
L343.738 154.144
L347.897 140.338
L352.057 141.099
L356.216 139.226
L360.375 104.377
L364.534 120.588
L368.693 151.455
L372.852 103.776
L377.011 129.759
L381.171 78.2794
L385.33 58.872
L389.489 69.7534
L393.648 73.5726
L395.209 -1
M407.039 -1
L410.285 71.1279
L414.444 23.1072
L418.603 92.2388
L419.742 -1
M424.863 -1
L426.921 241.13
L429.138 289
M431.352 289
L433.228 -1
M438.968 -1
L439.399 34.8788
L439.738 -1
M446.967 -1
L447.717 87.876
L451.876 51.5204" style="fill:none;stroke:#ff0000;stroke-linecap:square;"/>
   </g>
   <g id="patch_3">
    <path d="
M40.1209 12.96
L451.876 12.96" style="fill:none;stroke:#000000;stroke-linecap:square;stroke-linejoin:miter;"/>
   </g>
   <g id="patch_4">
    <path d="
M451.876 258.44
L451.876 12.96" style="fill:none;stroke:#000000;stroke-linecap:square;stroke-linejoin:miter;"/>
   </g>
   <g id="patch_5">
    <path d="
M40.1209 258.44
L451.876 258.44" style="fill:none;stroke:#000000;stroke-linecap:square;stroke-linejoin:miter;"/>
   </g>
   <g id="patch_6">
    <path d="
M40.1209 258.44
L40.1209 12.96" style="fill:none;stroke:#000000;stroke-linecap:square;stroke-linejoin:miter;"/>
   </g>
   <g id="matplotlib.axis_1">
    <g id="xtick_1">
     <g id="line2d_4">
      <path clip-path="url(#pc89bf65551)" d="
M40.1209 258.44
L40.1209 12.96" style="fill:none;stroke:#000000;stroke-dasharray:1.000000,3.000000;stroke-dashoffset:0.0;stroke-width:0.5;"/>
     </g>
     <g id="line2d_5">
      <defs>
       <path d="
M0 0
L0 -4" id="m93b0483c22" style="stroke:#000000;stroke-width:0.5;"/>
      </defs>
      <g>
       <use style="stroke:#000000;stroke-width:0.5;" x="40.1209375" xlink:href="#m93b0483c22" y="258.44"/>
      </g>
     </g>
     <g id="line2d_6">
      <defs>
       <path d="
M0 0
L0 4" id="m741efc42ff" style="stroke:#000000;stroke-width:0.5;"/>
      </defs>
      <g>
       <use style="stroke:#000000;stroke-width:0.5;" x="40.1209375" xlink:href="#m741efc42ff" y="12.96"/>
      </g>
     </g>
     <g id="text_1">
      <!-- −2 -->
      <defs>
       <path d="
M10.5938 35.5
L73.1875 35.5
L73.1875 27.2031
L10.5938 27.2031
z
" id="BitstreamVeraSans-Roman-2212"/>
       <path d="
M19.1875 8.29688
L53.6094 8.29688
L53.6094 0
L7.32812 0
L7.32812 8.29688
Q12.9375 14.1094 22.625 23.8906
Q32.3281 33.6875 34.8125 36.5312
Q39.5469 41.8438 41.4219 45.5312
Q43.3125 49.2188 43.3125 52.7812
Q43.3125 58.5938 39.2344 62.25
Q35.1562 65.9219 28.6094 65.9219
Q23.9688 65.9219 18.8125 64.3125
Q13.6719 62.7031 7.8125 59.4219
L7.8125 69.3906
Q13.7656 71.7812 18.9375 73
Q24.125 74.2188 28.4219 74.2188
Q39.75 74.2188 46.4844 68.5469
Q53.2188 62.8906 53.2188 53.4219
Q53.2188 48.9219 51.5312 44.8906
Q49.8594 40.875 45.4062 35.4062
Q44.1875 33.9844 37.6406 27.2188
Q31.1094 20.4531 19.1875 8.29688" id="BitstreamVeraSans-Roman-32"/>
      </defs>
      <g transform="translate(32.5121875 271.558125)scale(0.12 -0.12)">
       <use xlink:href="#BitstreamVeraSans-Roman-2212"/>
       <use x="83.7890625" xlink:href="#BitstreamVeraSans-Roman-32"/>
      </g>
     </g>
    </g>
    <g id="xtick_2">
     <g id="line2d_7">
      <path clip-path="url(#pc89bf65551)" d="
M108.747 258.44
L108.747 12.96" style="fill:none;stroke:#000000;stroke-dasharray:1.000000,3.000000;stroke-dashoffset:0.0;stroke-width:0.5;"/>
     </g>
     <g id="line2d_8">
      <g>
       <use style="stroke:#000000;stroke-width:0.5;" x="108.746770833" xlink:href="#m93b0483c22" y="258.44"/>
      </g>
     </g>
     <g id="line2d_9">
      <g>
       <use style="stroke:#000000;stroke-width:0.5;" x="108.746770833" xlink:href="#m741efc42ff" y="12.96"/>
      </g>
     </g>
     <g id="text_2">
      <!-- −1 -->
      <defs>
       <path d="
M12.4062 8.29688
L28.5156 8.29688
L28.5156 63.9219
L10.9844 60.4062
L10.9844 69.3906
L28.4219 72.9062
L38.2812 72.9062
L38.2812 8.29688
L54.3906 8.29688
L54.3906 0
L12.4062 0
z
" id="BitstreamVeraSans-Roman-31"/>
      </defs>
      <g transform="translate(101.091145833 271.558125)scale(0.12 -0.12)">
       <use xlink:href="#BitstreamVeraSans-Roman-2212"/>
       <use x="83.7890625" xlink:href="#BitstreamVeraSans-Roman-31"/>
      </g>
     </g>
    </g>
    <g id="xtick_3">
     <g id="line2d_10">
      <path clip-path="url(#pc89bf65551)" d="
M177.373 258.44
L177.373 12.96" style="fill:none;stroke:#000000;stroke-dasharray:1.000000,3.000000;stroke-dashoffset:0.0;stroke-width:0.5;"/>
     </g>
     <g id="line2d_11">
      <g>
       <use style="stroke:#000000;stroke-width:0.5;" x="177.372604167" xlink:href="#m93b0483c22" y="258.44"/>
      </g>
     </g>
     <g id="line2d_12">
      <g>
       <use style="stroke:#000000;stroke-width:0.5;" x="177.372604167" xlink:href="#m741efc42ff" y="12.96"/>
      </g>
     </g>
     <g id="text_3">
      <!-- 0 -->
      <defs>
       <path d="
M31.7812 66.4062
Q24.1719 66.4062 20.3281 58.9062
Q16.5 51.4219 16.5 36.375
Q16.5 21.3906 20.3281 13.8906
Q24.1719 6.39062 31.7812 6.39062
Q39.4531 6.39062 43.2812 13.8906
Q47.125 21.3906 47.125 36.375
Q47.125 51.4219 43.2812 58.9062
Q39.4531 66.4062 31.7812 66.4062
M31.7812 74.2188
Q44.0469 74.2188 50.5156 64.5156
Q56.9844 54.8281 56.9844 36.375
Q56.9844 17.9688 50.5156 8.26562
Q44.0469 -1.42188 31.7812 -1.42188
Q19.5312 -1.42188 13.0625 8.26562
Q6.59375 17.9688 6.59375 36.375
Q6.59375 54.8281 13.0625 64.5156
Q19.5312 74.2188 31.7812 74.2188" id="BitstreamVeraSans-Roman-30"/>
      </defs>
      <g transform="translate(174.349166667 271.558125)scale(0.12 -0.12)">
       <use xlink:href="#BitstreamVeraSans-Roman-30"/>
      </g>
     </g>
    </g>
    <g id="xtick_4">
     <g id="line2d_13">
      <path clip-path="url(#pc89bf65551)" d="
M245.998 258.44
L245.998 12.96" style="fill:none;stroke:#000000;stroke-dasharray:1.000000,3.000000;stroke-dashoffset:0.0;stroke-width:0.5;"/>
     </g>
     <g id="line2d_14">
      <g>
       <use style="stroke:#000000;stroke-width:0.5;" x="245.9984375" xlink:href="#m93b0483c22" y="258.44"/>
      </g>
     </g>
     <g id="line2d_15">
      <g>
       <use style="stroke:#000000;stroke-width:0.5;" x="245.9984375" xlink:href="#m741efc42ff" y="12.96"/>
      </g>
     </g>
     <g id="text_4">
      <!-- 1 -->
      <g transform="translate(243.3940625 271.558125)scale(0.12 -0.12)">
       <use xlink:href="#BitstreamVeraSans-Roman-31"/>
      </g>
     </g>
    </g>
    <g id="xtick_5">
     <g id="line2d_16">
      <path clip-path="url(#pc89bf65551)" d="
M314.624 258.44
L314.624 12.96" style="fill:none;stroke:#000000;stroke-dasharray:1.000000,3.000000;stroke-dashoffset:0.0;stroke-width:0.5;"/>
     </g>
     <g id="line2d_17">
      <g>
       <use style="stroke:#000000;stroke-width:0.5;" x="314.624270833" xlink:href="#m93b0483c22" y="258.44"/>
      </g>
     </g>
     <g id="line2d_18">
      <g>
       <use style="stroke:#000000;stroke-width:0.5;" x="314.624270833" xlink:href="#m741efc42ff" y="12.96"/>
      </g>
     </g>
     <g id="text_5">
      <!-- 2 -->
      <g transform="translate(311.847395833 271.558125)scale(0.12 -0.12)">
       <use xlink:href="#BitstreamVeraSans-Roman-32"/>
      </g>
     </g>
    </g>
    <g id="xtick_6">
     <g id="line2d_19">
      <path clip-path="url(#pc89bf65551)" d="
M383.25 258.44
L383.25 12.96" style="fill:none;stroke:#000000;stroke-dasharray:1.000000,3.000000;stroke-dashoffset:0.0;stroke-width:0.5;"/>
     </g>
     <g id="line2d_20">
      <g>
       <use style="stroke:#000000;stroke-width:0.5;" x="383.250104167" xlink:href="#m93b0483c22" y="258.44"/>
      </g>
     </g>
     <g id="line2d_21">
      <g>
       <use style="stroke:#000000;stroke-width:0.5;" x="383.250104167" xlink:href="#m741efc42ff" y="12.96"/>
      </g>
     </g>
     <g id="text_6">
      <!-- 3 -->
      <defs>
       <path d="
M40.5781 39.3125
Q47.6562 37.7969 51.625 33
Q55.6094 28.2188 55.6094 21.1875
Q55.6094 10.4062 48.1875 4.48438
Q40.7656 -1.42188 27.0938 -1.42188
Q22.5156 -1.42188 17.6562 -0.515625
Q12.7969 0.390625 7.625 2.20312
L7.625 11.7188
Q11.7188 9.32812 16.5938 8.10938
Q21.4844 6.89062 26.8125 6.89062
Q36.0781 6.89062 40.9375 10.5469
Q45.7969 14.2031 45.7969 21.1875
Q45.7969 27.6406 41.2812 31.2656
Q36.7656 34.9062 28.7188 34.9062
L20.2188 34.9062
L20.2188 43.0156
L29.1094 43.0156
Q36.375 43.0156 40.2344 45.9219
Q44.0938 48.8281 44.0938 54.2969
Q44.0938 59.9062 40.1094 62.9062
Q36.1406 65.9219 28.7188 65.9219
Q24.6562 65.9219 20.0156 65.0312
Q15.375 64.1562 9.8125 62.3125
L9.8125 71.0938
Q15.4375 72.6562 20.3438 73.4375
Q25.25 74.2188 29.5938 74.2188
Q40.8281 74.2188 47.3594 69.1094
Q53.9062 64.0156 53.9062 55.3281
Q53.9062 49.2656 50.4375 45.0938
Q46.9688 40.9219 40.5781 39.3125" id="BitstreamVeraSans-Roman-33"/>
      </defs>
      <g transform="translate(380.371041667 271.558125)scale(0.12 -0.12)">
       <use xlink:href="#BitstreamVeraSans-Roman-33"/>
      </g>
     </g>
    </g>
    <g id="xtick_7">
     <g id="line2d_22">
      <path clip-path="url(#pc89bf65551)" d="
M451.876 258.44
L451.876 12.96" style="fill:none;stroke:#000000;stroke-dasharray:1.000000,3.000000;stroke-dashoffset:0.0;stroke-width:0.5;"/>
     </g>
     <g id="line2d_23">
      <g>
       <use style="stroke:#000000;stroke-width:0.5;" x="451.8759375" xlink:href="#m93b0483c22" y="258.44"/>
      </g>
     </g>
     <g id="line2d_24">
      <g>
       <use style="stroke:#000000;stroke-width:0.5;" x="451.8759375" xlink:href="#m741efc42ff" y="12.96"/>
      </g>
     </g>
     <g id="text_7">
      <!-- 4 -->
      <defs>
       <path d="
M37.7969 64.3125
L12.8906 25.3906
L37.7969 25.3906
z

M35.2031 72.9062
L47.6094 72.9062
L47.6094 25.3906
L58.0156 25.3906
L58.0156 17.1875
L47.6094 17.1875
L47.6094 0
L37.7969 0
L37.7969 17.1875
L4.89062 17.1875
L4.89062 26.7031
z
" id="BitstreamVeraSans-Roman-34"/>
      </defs>
      <g transform="translate(448.6884375 271.558125)scale(0.12 -0.12)">
       <use xlink:href="#BitstreamVeraSans-Roman-34"/>
      </g>
     </g>
    </g>
   </g>
   <g id="matplotlib.axis_2">
    <g id="ytick_1">
     <g id="line2d_25">
      <path clip-path="url(#pc89bf65551)" d="
M40.1209 233.892
L451.876 233.892" style="fill:none;stroke:#000000;stroke-dasharray:1.000000,3.000000;stroke-dashoffset:0.0;stroke-width:0.5;"/>
     </g>
     <g id="line2d_26">
      <defs>
       <path d="
M0 0
L4 0" id="m728421d6d4" style="stroke:#000000;stroke-width:0.5;"/>
      </defs>
      <g>
       <use style="stroke:#000000;stroke-width:0.5;" x="40.1209375" xlink:href="#m728421d6d4" y="233.892"/>
      </g>
     </g>
     <g id="line2d_27">
      <defs>
       <path d="
M0 0
L-4 0" id="mcb0005524f" style="stroke:#000000;stroke-width:0.5;"/>
      </defs>
      <g>
       <use style="stroke:#000000;stroke-width:0.5;" x="451.8759375" xlink:href="#mcb0005524f" y="233.892"/>
      </g>
     </g>
     <g id="text_8">
      <!-- −20 -->
      <g transform="translate(12.8634375 237.20325)scale(0.12 -0.12)">
       <use xlink:href="#BitstreamVeraSans-Roman-2212"/>
       <use x="83.7890625" xlink:href="#BitstreamVeraSans-Roman-32"/>
       <use x="147.412109375" xlink:href="#BitstreamVeraSans-Roman-30"/>
      </g>
     </g>
    </g>
    <g id="ytick_2">
     <g id="line2d_28">
      <path clip-path="url(#pc89bf65551)" d="
M40.1209 184.796
L451.876 184.796" style="fill:none;stroke:#000000;stroke-dasharray:1.000000,3.000000;stroke-dashoffset:0.0;stroke-width:0.5;"/>
     </g>
     <g id="line2d_29">
      <g>
       <use style="stroke:#000000;stroke-width:0.5;" x="40.1209375" xlink:href="#m728421d6d4" y="184.796"/>
      </g>
     </g>
     <g id="line2d_30">
      <g>
       <use style="stroke:#000000;stroke-width:0.5;" x="451.8759375" xlink:href="#mcb0005524f" y="184.796"/>
      </g>
     </g>
     <g id="text_9">
      <!-- −10 -->
      <g transform="translate(12.8634375 188.10725)scale(0.12 -0.12)">
       <use xlink:href="#BitstreamVeraSans-Roman-2212"/>
       <use x="83.7890625" xlink:href="#BitstreamVeraSans-Roman-31"/>
       <use x="147.412109375" xlink:href="#BitstreamVeraSans-Roman-30"/>
      </g>
     </g>
    </g>
    <g id="ytick_3">
     <g id="line2d_31">
      <path clip-path="url(#pc89bf65551)" d="
M40.1209 135.7
L451.876 135.7" style="fill:none;stroke:#000000;stroke-dasharray:1.000000,3.000000;stroke-dashoffset:0.0;stroke-width:0.5;"/>
     </g>
     <g id="line2d_32">
      <g>
       <use style="stroke:#000000;stroke-width:0.5;" x="40.1209375" xlink:href="#m728421d6d4" y="135.7"/>
      </g>
     </g>
     <g id="line2d_33">
      <g>
       <use style="stroke:#000000;stroke-width:0.5;" x="451.8759375" xlink:href="#mcb0005524f" y="135.7"/>
      </g>
     </g>
     <g id="text_10">
      <!-- 0 -->
      <g transform="translate(30.0740625 139.01125)scale(0.12 -0.12)">
       <use xlink:href="#BitstreamVeraSans-Roman-30"/>
      </g>
     </g>
    </g>
    <g id="ytick_4">
     <g id="line2d_34">
      <path clip-path="url(#pc89bf65551)" d="
M40.1209 86.604
L451.876 86.604" style="fill:none;stroke:#000000;stroke-dasharray:1.000000,3.000000;stroke-dashoffset:0.0;stroke-width:0.5;"/>
     </g>
     <g id="line2d_35">
      <g>
       <use style="stroke:#000000;stroke-width:0.5;" x="40.1209375" xlink:href="#m728421d6d4" y="86.604"/>
      </g>
     </g>
     <g id="line2d_36">
      <g>
       <use style="stroke:#000000;stroke-width:0.5;" x="451.8759375" xlink:href="#mcb0005524f" y="86.604"/>
      </g>
     </g>
     <g id="text_11">
      <!-- 10 -->
      <g transform="translate(22.9659375 89.91525)scale(0.12 -0.12)">
       <use xlink:href="#BitstreamVeraSans-Roman-31"/>
       <use x="63.623046875" xlink:href="#BitstreamVeraSans-Roman-30"/>
      </g>
     </g>
    </g>
    <g id="ytick_5">
     <g id="line2d_37">
      <path clip-path="url(#pc89bf65551)" d="
M40.1209 37.508
L451.876 37.508" style="fill:none;stroke:#000000;stroke-dasharray:1.000000,3.000000;stroke-dashoffset:0.0;stroke-width:0.5;"/>
     </g>
     <g id="line2d_38">
      <g>
       <use style="stroke:#000000;stroke-width:0.5;" x="40.1209375" xlink:href="#m728421d6d4" y="37.508"/>
      </g>
     </g>
     <g id="line2d_39">
      <g>
       <use style="stroke:#000000;stroke-width:0.5;" x="451.8759375" xlink:href="#mcb0005524f" y="37.508"/>
      </g>
     </g>
     <g id="text_12">
      <!-- 20 -->
      <g transform="translate(22.5271875 40.81925)scale(0.12 -0.12)">
       <use xlink:href="#BitstreamVeraSans-Roman-32"/>
       <use x="63.623046875" xlink:href="#BitstreamVeraSans-Roman-30"/>
      </g>
     </g>
    </g>
   </g>
   <g id="legend_1">
    <g id="patch_7">
     <path d="
M47.3209 50.4
L371.321 50.4
L371.321 20.16
L47.3209 20.16
z
" style="fill:#ffffff;stroke:#000000;stroke-linejoin:miter;"/>
    </g>
    <g id="line2d_40">
     <path d="
M57.4009 33.264
L77.5609 33.264" style="fill:none;stroke:#0000ff;stroke-linecap:square;"/>
    </g>
    <g id="line2d_41"/>
    <g id="text_13">
     <!-- $\frac{\partial}{\partial \theta} \mathbb{E}[f]$ -->
     <defs>
      <path d="
M19.5 62.5
L18.5 64.5
Q22.2969 66.7969 28.2969 66.7969
Q47.0938 66.7969 47.0938 40.7969
Q47.0938 35.9062 46.2969 30.7031
Q45.5 25.5 43.3906 19.7031
Q41.2969 13.9062 38.0938 9.34375
Q34.9062 4.79688 29.5938 1.84375
Q24.2969 -1.09375 17.5938 -1.09375
Q10.7031 -1.09375 7.34375 3.5
Q4 8.09375 4 15.0938
Q4 26 11.5469 34.75
Q19.0938 43.5 29.7031 43.5
Q36.5938 43.5 39.2969 38.7031
Q40 42.5938 40 45.7031
Q40 53.4062 36.9531 58.5938
Q33.9062 63.7969 26.9062 63.7969
Q23.5938 63.7969 19.5 62.5
M36.7031 31.9062
Q36.7031 36.2969 34.8438 38.3906
Q33 40.5 30.5938 40.5
Q23.2969 40.5 17.6875 31.4531
Q12.0938 22.4062 12.0938 11.7031
Q12.0938 1.90625 18.7969 1.90625
Q24.2031 1.90625 28.5469 7.79688
Q32.9062 13.7031 35.2031 22.0938
Q36.7031 27.5938 36.7031 31.9062" id="STIXGeneral-Regular-2202"/>
      <path d="
M2.20312 -25
L2.20312 -21
L11.9219 -21
L11.9219 71
L2.20312 71
L2.20312 75
L15.9219 75
L15.9219 -25
z
" id="Cmr10-5d"/>
      <path d="
M11.8125 -25
L11.8125 75
L25.4844 75
L25.4844 71
L15.8281 71
L15.8281 -21
L25.4844 -21
L25.4844 -25
z
" id="Cmr10-5b"/>
      <path d="
M66.4062 65.2969
L65.5 61.5938
L33.5938 61.5938
L26.7031 35.4062
L54.9062 35.4062
L53.7969 31.7031
L25.7031 31.7031
L18.2031 3.70312
L53.7969 3.70312
L53 0
L1.70312 0
L19.2031 65.2969
z

M29.9062 61.5938
L22.0938 61.5938
L6.5 3.70312
L14.5 3.70312
z
" id="STIXNonUnicode-Italic-e156"/>
      <path d="
M9.71875 -16.5
Q11.5781 -17.9219 14.2031 -17.9219
Q17.7812 -17.9219 20.0156 -10.0156
Q20.9531 -6.20312 25.0938 15.0938
L29.6875 39.5938
L21.0938 39.5938
Q20.125 39.5938 20.125 40.9219
Q20.5156 43.1094 21.3906 43.1094
L30.3281 43.1094
L31.5 49.6094
Q32.0781 52.6406 32.5625 54.8125
Q33.0625 56.9844 33.625 58.8281
Q34.1875 60.6875 35.2969 62.9844
Q37.0156 66.2656 39.9219 68.3906
Q42.8281 70.5156 46.1875 70.5156
Q48.3906 70.5156 50.4688 69.7031
Q52.5469 68.8906 53.8594 67.2812
Q55.1719 65.6719 55.1719 63.4844
Q55.1719 60.9375 53.4844 59.0469
Q51.8125 57.1719 49.4219 57.1719
Q47.7969 57.1719 46.6562 58.1719
Q45.5156 59.1875 45.5156 60.7969
Q45.5156 62.9844 47 64.625
Q48.4844 66.2656 50.6875 66.5
Q48.8281 67.9219 46.0938 67.9219
Q44.5781 67.9219 43.2344 66.5
Q41.8906 65.0938 41.5 63.4844
Q40.875 60.9375 38.7188 49.7031
L37.5 43.1094
L47.7969 43.1094
Q48.7812 43.1094 48.7812 41.7969
Q48.7344 41.5469 48.5781 40.9375
Q48.4375 40.3281 48.1719 39.9531
Q47.9062 39.5938 47.5156 39.5938
L36.8125 39.5938
L32.1719 15.1875
Q31.2969 9.85938 30.1406 4.35938
Q29 -1.125 26.9219 -6.90625
Q24.8594 -12.7031 21.625 -16.6094
Q18.4062 -20.5156 14.0156 -20.5156
Q10.6406 -20.5156 7.98438 -18.5781
Q5.32812 -16.6562 5.32812 -13.4844
Q5.32812 -10.9375 6.95312 -9.04688
Q8.59375 -7.17188 11.0781 -7.17188
Q12.75 -7.17188 13.8594 -8.17188
Q14.9844 -9.1875 14.9844 -10.7969
Q14.9844 -12.9375 13.3906 -14.7188
Q11.8125 -16.5 9.71875 -16.5" id="Cmmi10-66"/>
      <path d="
M16.1094 -1.125
Q11.5781 -1.125 8.84375 2.1875
Q6.10938 5.51562 5.04688 10.2031
Q4 14.8906 4 19.4844
L4 19.5781
Q4 24.5625 4.95312 29.9219
Q5.90625 35.2969 7.70312 40.6406
Q9.51562 46 11.625 50.2031
Q13.0938 53.125 15.4062 56.7344
Q17.7188 60.3594 20.5781 63.5
Q23.4375 66.6562 26.7344 68.5781
Q30.0312 70.5156 33.4062 70.5156
L33.5 70.5156
Q37.1094 70.5156 39.5156 68.5
Q41.9375 66.5 43.2812 63.375
Q44.625 60.25 45.1562 56.6875
Q45.7031 53.125 45.7031 49.9062
Q45.7031 42.3281 43.6562 34.4375
Q41.6094 26.5625 37.9844 19.1875
Q36.625 16.4062 34.2031 12.6406
Q31.7812 8.89062 29.0781 5.90625
Q26.375 2.9375 23 0.90625
Q19.625 -1.125 16.2188 -1.125
z

M16.3125 1.51562
Q19.625 1.51562 22.6719 5.04688
Q25.7344 8.59375 28.0312 13.6406
Q30.3281 18.7031 32.0625 24
Q33.7969 29.2969 34.625 33.0156
L14.2031 33.0156
Q12.6406 26.7031 11.7656 22.1406
Q10.8906 17.5781 10.8906 13.1875
Q10.8906 1.51562 16.3125 1.51562
M14.9844 36.5312
L35.5 36.5312
Q36.5781 40.9219 37.2031 43.875
Q37.8438 46.8281 38.2812 50.0938
Q38.7188 53.375 38.7188 56.2031
Q38.7188 67.9219 33.4062 67.9219
Q27.0469 67.9219 22.4375 57.6875
Q17.8281 47.4688 14.9844 36.5312" id="Cmmi10-b5"/>
     </defs>
     <g transform="translate(93.4009375 38.304)scale(0.144 -0.144)">
      <use transform="translate(16.0 39.2421875)scale(0.7)" xlink:href="#STIXGeneral-Regular-2202"/>
      <use transform="translate(0.0 -42.134375)scale(0.7)" xlink:href="#STIXGeneral-Regular-2202"/>
      <use transform="translate(32.9699935913 -42.134375)scale(0.7)" xlink:href="#Cmmi10-b5"/>
      <use transform="translate(78.3166732788 0.9765625)" xlink:href="#STIXNonUnicode-Italic-e156"/>
      <use transform="translate(142.216667175 0.9765625)" xlink:href="#Cmr10-5b"/>
      <use transform="translate(169.90221405 0.9765625)" xlink:href="#Cmmi10-66"/>
      <use transform="translate(218.779167175 0.9765625)" xlink:href="#Cmr10-5d"/>
      <path d="
M0 13.4766
L0 19.7266
L65.8167 19.7266
L65.8167 13.4766
L0 13.4766
z
"/>
     </g>
    </g>
    <g id="line2d_42">
     <path d="
M162.089 33.264
L182.249 33.264" style="fill:none;stroke:#008000;stroke-linecap:square;"/>
    </g>
    <g id="line2d_43"/>
    <g id="text_14">
     <!-- $\sim_1 \, \frac{\partial}{\partial \theta} f$ -->
     <defs>
      <path d="
M9.28125 0
L9.28125 3.51562
Q21.7812 3.51562 21.7812 6.6875
L21.7812 59.1875
Q16.6094 56.6875 8.6875 56.6875
L8.6875 60.2031
Q20.9531 60.2031 27.2031 66.6094
L28.6094 66.6094
Q28.9531 66.6094 29.2656 66.3281
Q29.5938 66.0625 29.5938 65.7188
L29.5938 6.6875
Q29.5938 3.51562 42.0938 3.51562
L42.0938 0
z
" id="Cmr10-31"/>
      <path d="
M6.98438 13.2812
Q5.90625 13.2812 5.60938 15.8281
L5.60938 16.4062
Q5.60938 24.125 10.2188 30.4219
Q14.8438 36.7188 22.2188 36.7188
Q26.8125 36.7188 30.5469 34.4375
Q34.2812 32.1719 39.3125 27.625
Q44.3438 23.0938 47.7344 20.9844
Q51.125 18.8906 55.5156 18.8906
Q59.4688 18.8906 62.5938 21.0312
Q65.7188 23.1875 67.5 26.75
Q69.2812 30.3281 69.2812 34.1875
Q69.5781 36.7188 70.7031 36.7188
Q71.8281 36.7188 72.125 34.1875
L72.125 33.5938
Q72.125 28.7656 70.0938 24.0156
Q68.0625 19.2812 64.2969 16.2812
Q60.5469 13.2812 55.5156 13.2812
Q50.9219 13.2812 47.3594 15.4531
Q43.7969 17.625 38.7656 22.1406
Q33.7344 26.6562 30.1719 28.875
Q26.6094 31.1094 22.2188 31.1094
Q18.3125 31.1094 15.1406 28.9531
Q11.9688 26.8125 10.1875 23.2344
Q8.40625 19.6719 8.40625 15.8281
Q8.10938 13.2812 6.98438 13.2812" id="Cmsy10-bb"/>
     </defs>
     <g transform="translate(198.0889375 38.304)scale(0.144 -0.144)">
      <use transform="translate(17.55859375 0.9765625)" xlink:href="#Cmsy10-bb"/>
      <use transform="translate(101.6171875 -24.5328125)scale(0.7)" xlink:href="#Cmr10-31"/>
      <use transform="translate(202.734375 39.2421875)scale(0.7)" xlink:href="#STIXGeneral-Regular-2202"/>
      <use transform="translate(186.734375 -42.134375)scale(0.7)" xlink:href="#STIXGeneral-Regular-2202"/>
      <use transform="translate(219.704368591 -42.134375)scale(0.7)" xlink:href="#Cmmi10-b5"/>
      <use transform="translate(265.051048279 0.9765625)" xlink:href="#Cmmi10-66"/>
      <path d="
M186.734 13.4766
L186.734 19.7266
L252.551 19.7266
L252.551 13.4766
L186.734 13.4766
z
"/>
     </g>
    </g>
    <g id="line2d_44">
     <path d="
M276.425 33.264
L296.585 33.264" style="fill:none;stroke:#ff0000;stroke-linecap:square;"/>
    </g>
    <g id="line2d_45"/>
    <g id="text_15">
     <!-- $\sim_{100} \, \frac{\partial}{\partial \theta} f$ -->
     <defs>
      <path d="
M25 -2.20312
Q12.75 -2.20312 8.32812 7.875
Q3.90625 17.9688 3.90625 31.8906
Q3.90625 40.5781 5.48438 48.2344
Q7.07812 55.9062 11.7812 61.25
Q16.5 66.6094 25 66.6094
Q31.5938 66.6094 35.7812 63.375
Q39.9844 60.1562 42.1875 55.0469
Q44.3906 49.9531 45.1875 44.1094
Q46 38.2812 46 31.8906
Q46 23.2969 44.4062 15.7969
Q42.8281 8.29688 38.1875 3.04688
Q33.5469 -2.20312 25 -2.20312
M25 0.390625
Q30.5625 0.390625 33.2969 6.09375
Q36.0312 11.8125 36.6719 18.75
Q37.3125 25.6875 37.3125 33.5
Q37.3125 41.0156 36.6719 47.3594
Q36.0312 53.7188 33.3125 58.8594
Q30.6094 64.0156 25 64.0156
Q19.3438 64.0156 16.6094 58.8281
Q13.875 53.6562 13.2344 47.3281
Q12.5938 41.0156 12.5938 33.5
Q12.5938 27.9375 12.8594 23
Q13.1406 18.0625 14.3125 12.8125
Q15.4844 7.5625 18.0938 3.96875
Q20.7031 0.390625 25 0.390625" id="Cmr10-30"/>
     </defs>
     <g transform="translate(312.4249375 38.304)scale(0.144 -0.144)">
      <use transform="translate(17.55859375 0.9765625)" xlink:href="#Cmsy10-bb"/>
      <use transform="translate(101.6171875 -24.5328125)scale(0.7)" xlink:href="#Cmr10-31"/>
      <use transform="translate(136.6171875 -24.5328125)scale(0.7)" xlink:href="#Cmr10-30"/>
      <use transform="translate(171.6171875 -24.5328125)scale(0.7)" xlink:href="#Cmr10-30"/>
      <use transform="translate(257.734375 39.2421875)scale(0.7)" xlink:href="#STIXGeneral-Regular-2202"/>
      <use transform="translate(241.734375 -42.134375)scale(0.7)" xlink:href="#STIXGeneral-Regular-2202"/>
      <use transform="translate(274.704368591 -42.134375)scale(0.7)" xlink:href="#Cmmi10-b5"/>
      <use transform="translate(320.051048279 0.9765625)" xlink:href="#Cmmi10-66"/>
      <path d="
M241.734 13.4766
L241.734 19.7266
L307.551 19.7266
L307.551 13.4766
L241.734 13.4766
z
"/>
     </g>
    </g>
   </g>
  </g>
 </g>
 <defs>
  <clipPath id="pc89bf65551">
   <rect height="245.48" width="411.755" x="40.1209375" y="12.96"/>
  </clipPath>
 </defs>
</svg>
