<svg xmlns="http://www.w3.org/2000/svg" width="400" height="300" viewBox="0 0 4000 3000" shape-rendering="geometricPrecision" text-rendering="geometricPrecision" image-rendering="optimizeQuality" fill-rule="evenodd" clip-rule="evenodd">
  <defs>
    <style>
      .logo_or{fill:#ea4f3e;fill-rule:nonzero}#guy_back path,.logo_w,[id^=arm_],[id^=leg_],[id^=ndot],[id^=nstar]{fill:#fff;fill-rule:nonzero}[id^=g_eye_]{fill:#2b2d42}
    </style>
    <linearGradient id="id0" gradientUnits="userSpaceOnUse" x1="4000.68" y1="1499.99" x2="-.679" y2="1499.99">
      <stop offset="0" stop-color="#2b2d42"/>
      <stop offset=".2" stop-color="#33354b"/>
      <stop offset=".8" stop-color="#33354b"/>
      <stop offset="1" stop-color="#2b2d42"/>
    </linearGradient>
    <radialGradient id="id1" gradientUnits="userSpaceOnUse" gradientTransform="matrix(.70707 0 0 1 855 0)" cx="2920.48" cy="1577.71" r="1289.06" fx="2920.48" fy="1577.71">
      <stop offset="0" stop-opacity=".5" stop-color="#fff"/>
      <stop offset="1" stop-opacity="0" stop-color="#fff"/>
    </radialGradient>
    <filter id="blur1" x="-50%" y="-50%" width="200%" height="200%">
      <feGaussianBlur in="SourceGraphic" stdDeviation="100"/>
    </filter>
  </defs>
  <g id="back">
    <path fill="url(#id0)" d="M0 0h4000v3000H0z"/>
    <path d="M1209 1749h244c18 1 33-13 33-31 1-42 0-86 0-128 0-18-14-32-32-32h-245c-17 0-32 14-32 32v127c0 18 15 32 32 32zm159-90l31-51h24v49h10v14h-10v20h-19v-19h-36v-13zm-39-52c22 0 31 19 31 42 0 25-10 43-31 43-22 0-31-19-31-43-1-23 10-42 31-42zm-104 52l32-51h24v49h9v14h-10v20h-18v-19h-37v-13zm104 19c8 0 12-10 12-28 0-19-4-28-12-28s-12 9-12 28 5 28 12 28zm-67-40v-15c-3 5-5 10-8 15l-11 19h19v-19zm142 0v-15c-2 5-5 10-7 15l-11 19h18v-19zm1658 828v-338h-338v338h338zm-127-142c-1-50 70-57 91-17l-25 16c-6-18-34-20-35-2-3 30 69 18 69 74 0 53-84 62-110 12l25-15c13 26 53 25 53 4 0-27-68-19-68-72zm-96 71c13 23 37 24 37-3v-108h32v108c6 54-74 66-95 19l26-16zm658 571c0-34 7-83-26-102 33-18 26-68 26-102 0-35-4-64 41-63v-18h-3c-44-1-63 20-62 63v73c0 21-14 39-37 38v19c23-1 37 17 37 38v73c-1 46 18 63 65 63v-19c-45 2-41-28-41-63zm294-222c1-43-17-64-62-63h-3v19c46-2 42 27 42 62 0 34-9 83 26 102-15 9-22 21-25 38-4 29 0 64-2 94-1 26-16 33-41 33v18c46 0 66-15 65-63v-73c0-21 15-39 37-38v-18c-11 0-19-5-28-12-14-10-9-82-9-99zm-50 142v-106l-56-60h-139c-14 1-24 12-24 26v236c0 14 10 26 24 26h48s71 63 135-2c31-32 37-83 12-120zm-165 96h-28v-236h121v52h48v63c1 0-77-50-131 19-38 50-10 102-10 102zm69-106h37v28l-7 58h-23l-7-58v-28zm1 95h35v30h-35v-30zm214-701l-3-1c-2-2-5-4-8-5s-5-2-8-3c-8-21-26-36-48-40l6-94c0-2 0-3-1-4l-50-65c12-2 23-7 33-13-4 12 10 21 20 13l8-7 6 8c8 9 22 4 22-7 0-7-5-12-9-16l8-7c13-11-4-30-16-19l-8 6-7-8c-10-12-29 4-19 16-11-16-56-25-82-30 4-8 0-17-9-21-11-4-23 5-22 17-18-2-38-3-58-4-27-1-54-1-81 1l3-3c10-8-3-23-13-15l-5 4-4-5c-9-9-24 3-15 13l4 5-6 6c-47 8-58 20-58 28s12 19 35 27c1 7 8 13 16 12 5-1 9-4 11-9v154c-64 14-96 42-95 84-2 1-4 3-6 4l-3 1c-5 2-8 7-6 13 0 4-1 6 1 10 0 3 0 6 3 9v3c1 2 3 4 5 5 3 1 6 0 9-2l6-3c0 3 1 7 3 10s5 6 9 6c2 0 3 0 4-1l2-1c4-3 2-8 1-11v-3c1-2 1-4 1-6s1-4 2-6c1-3 1-6 1-9 0-10-6-22-16-24h-6c2-32 29-53 83-65v185c-1 9 8 17 17 17l100-10v37c-5 1-9 3-9 5s7 6 14 6c8 0 14-3 14-6s-3-4-7-5v-39l18-1v31c-4 1-7 3-7 5 0 3 6 7 14 7s14-3 14-7c0-3-3-5-8-6 1-8 0-23 0-32l103-10c10 0 18-7 19-16 5-48 7-97 10-145 15 4 28 14 36 28-3 2-6 4-7 7-3 5-4 10-4 14s0 7 1 9c2 6 2 11 0 16-3 6-1 12 6 13 7-1 12-8 13-15 0-1 0-2 1-3 2 2 5 3 8 5s6 2 9 1c4-1 5-4 5-8 3-2 3-5 3-9 2-2 2-6 1-9 0-5 2-8-4-13zm-358-227c-3-7-11-10-18-8-3 1-5 3-7 6-11-5-16-9-16-12 0-21 143-20 154-19 37 1 74 5 110 12 34 8 42 15 42 19 0 3-7 8-24 12l-20-26c-1-2-3-3-5-3h-198c-12 0-18 9-18 19zm267 335c0 2-2 4-4 4l-169 17-46 4c-19 2-28-4-29-16 0-115-6-230-6-346 0-3 2-5 5-5h195l3 4-6 51c-1 12 7 22 18 24l51 6 6 7-18 250zm-189-237l-4 10c-3 8 9 13 12 5l4-10 9 4c8 3 13-9 5-12l-9-4 3-9c3-8-9-13-12-5l-4 9-9-3c-8-4-13 8-5 12l10 3zm73-7l10 4-4 10c-3 7 9 12 12 4l4-9 9 4c8 3 13-9 5-12l-9-4 3-10c4-8-8-12-12-5l-3 10-10-4c-8-3-13 9-5 12zm103 133h-210c-6 0-6 10 0 10h210c7 0 7-10 0-10zm0 29h-210c-6 0-6 10 0 10h210c7 0 7-10 0-10zm-108 23h-101c-7 0-7 11 0 11h101c7 0 7-11 0-11zm-196-243l-5 4-4-5c-9-10-24 2-16 13l5 5-5 4c-10 9 2 24 13 15l5-4 4 5c9 10 24-3 15-13l-4-5 5-4c10-9-3-24-13-15zm305 281c-1-1-2-1-3-1l-3-2-3-1-3-1s-1 0-2-1v-2c-1 0-1-1 0-2 0 0 0-1 1-1h7l2 1 1 1h2l2-3c-2-1-3-2-5-2-2-1-4-2-6-2h-5c-1 0-2 1-4 2-1 1-1 2-2 3 0 1-1 2-1 3 0 2 0 3 1 4 0 1 1 2 2 3s2 1 3 2h3l3 1 2 1c1 0 2 1 2 1 1 1 1 2 1 2 0 2-1 3-2 4s-2 1-4 1h-3l-3-1-1-1h-3l-2 4c1 0 2 1 3 1l3 1h7c1 0 3 0 5-1 1-1 3-2 4-3l3-3v-4-3c-1 0-2-1-2-1zm-34 6v3c0 1 0 2-1 3 0 1-1 1-2 2h-5c-1-1-1-1-1 0v5h5c2 0 4-1 5-2 2 0 3-1 4-3 1-1 2-2 2-4 1-2 1-4 1-5v-23l-7-1-1 25zm-154-149l13-11 13 11c4 3 8 3 12 0l13-11 13 11c3 3 8 3 11 1l13-12 13 12c3 2 7 2 9 0l13-12 14 12c7 6 16-5 9-11l-17-16c-3-2-8-2-11 0l-12 11-13-11c-3-2-7-2-11 0l-13 12-13-12c-3-2-8-2-11 0l-13 12-13-12c-4-2-8-2-11 0l-17 15c-7 7 2 18 9 11zm-1039 107c-3-25-23-43-48-44 9-14 11-32 5-47-7-16-21-27-38-29 7-12 7-27-1-39-10-12-26-19-42-17 8-19 4-40-12-54-21-24-48-42-79-51-6-1 0 6 3 17 2 10-2 20-9 26-12 14-15 26-5 40-17 2-31 12-40 26-11 15-11 35-3 52-17 2-31 12-38 28s-5 35 6 48c-36 9-52 29-49 60 4 31 24 41 57 36 34-7 69-8 103-1 48 5 97 5 145-1 29-5 49-20 45-50zm-269-90c0-22 14-48 38-48 21 0 38 21 38 48 0 26-17 48-38 48s-38-22-38-48zm151 81c-38 29-76 31-113-2-12-10-11-14 1-16l110-1c21 4 4 19 2 19zm3-36c-24 0-38-26-38-47 0-26 17-47 38-47 20 0 37 21 37 47 0 21-13 47-37 47zm-1-75c10 0 18 13 18 29s-8 29-18 29c-11 0-19-13-19-29s8-29 19-29zm-115-1c10 0 19 13 19 29s-9 29-19 29-19-13-19-29 9-29 19-29zm-517 203l-44-15c11-58-27-114-85-124-42-8-85 10-108 45l-23-25c-3-5-9-6-14-5l-33 6c5-59-38-110-97-116-42-3-83 18-103 56l-45-16c-21-15-36 26-10 28l45 16c-11 58 27 113 85 124 48 9 96-15 116-60l39-7 26 30c-15 57 20 115 77 129 47 12 97-10 120-53l44 17c19 7 30-23 10-30zm-342-104c-13 39-56 60-96 47-39-14-60-57-46-96 13-39 56-60 95-47s61 57 47 96zm244 14l-27 23-57-36c28-14 62-8 84 13zm-101-2l50 32-73 6c4-15 12-28 23-38zm24 126c-29-11-48-38-49-69l77-7-31 37c-8 9 5 21 13 12 13-13 27-31 39-45l16 36c5 11 22 4 17-8l-13-28 14 6c19 0 16-14 8-17l-22-10 20-17c40 59-21 135-89 110zm1111-547h440c15 0 26-11 26-26v-260c0-14-11-26-26-26h-440c-15 0-27 12-27 26v260c0 15 12 26 27 26zm448-26c0 5-4 9-9 9h-439c-5 0-9-4-9-9v-236h457v236zm-96-266h90c9-2 9 13 0 11h-90c-8 0-9-11 0-11zm-240 0h221c8 0 8 12 0 11h-221c-8 1-9-11 0-11zm-27 1l5 4-5 5v-9zm-9 0v9l-4-4c1-2 2-3 4-5zm-24 5c0 4-3 7-7 7-5 0-8-3-8-7 0-10 15-10 15 0zm-23 0c0 4-3 7-7 7-5 0-8-3-8-7 0-10 15-10 15 0zm-23 0c0 4-3 7-7 7-5 0-8-3-8-7 0-10 15-10 15 0zm136 232h156c54 0 70-74 21-96-7-15-21-25-37-28-9-35-45-55-80-45-18 5-33 18-41 35-22 3-40 19-45 41-43 27-24 92 26 93zm-13-84c1-24 20-37 43-37 8-26 36-41 63-33 19 6 33 23 35 43 18 0 33 9 38 26 38 13 29 69-10 70h-156c-39-1-48-55-13-69zm46 47c25-20 65-20 89 0 5 6 14-3 9-8-30-25-77-25-106 0-6 5 3 13 8 8zm80-43c6 0 11-4 11-11 0-6-5-11-11-11s-11 5-11 11c0 7 5 11 11 11zm-71 0c7 0 12-4 12-11 0-6-5-11-12-11-6 0-11 5-11 11 0 7 5 11 11 11zm863 43c13 0 23 11 23 23 0 13-10 23-23 23-12 0-22-10-22-23 0-12 10-23 22-23zm126-100c-40 0-73 32-73 73 0 40 33 73 73 73s73-33 73-73c0-41-33-73-73-73zm34 85h-68c-16 0-16-25 0-25h68c17 0 17 25 0 25zm-224-16c-5 5-5 13 0 18s13 5 18 0c21-22 55-27 83-14 0-9 1-17 3-26-36-14-77-5-104 22zm148-75c-65-35-145-24-197 28-16 12 7 33 18 17 41-41 103-52 156-28 7-7 14-12 23-17zm-226 0c77-76 199-81 280-10 9 1 18 4 27 7 5-5 5-13 0-18-89-88-237-84-325 3-12 11 6 30 18 18zm-1397-21l43 32-31 28 45-2 1 46 31-42 106 25-91-63 10-129-52 107-62-2zm97-43l-5 73 46 32-54-13-15 21v-25l-23 1 16-15-24-18 32 2 27-58zm49 67c1 0 2 1 2 2v18l18 13 3-106c0-9-7-16-16-16h-33l-1 23c2-1 25 0 28 0 2 0 3 1 3 2v11c0 1-1 2-3 2h-26l-3 10 29 1c1 0 2 1 2 2v27c0 1-1 2-2 2l-33-1v8l4 2h28zm-142-42v10h10v-10l2-2 28 1c1 0 2 1 2 2v11h10v-11l2-2h6l22-47-55-1-15 21-7 8-3 9c0 2-1 2-3 2-1 0-2-1-3-1l-6 8h8c1 0 3 1 2 2zm45-32c1 0 3 0 3 1l5 11c0 1 0 2-2 3l-25 10c-1 1-2 0-3-1l-4-10c-1-1 0-2 1-3 8-2 18-7 25-11zm-454 231l298-33 11-18-140 15c-1 0-2-1-2-2l-4-26c0-1 1-3 2-3l163-18 7-11-11-2c-1 0-2-1-2-2l4-26c1-2 2-2 3-2l17 3-2-14-10-3c-2 0-2-2-2-3l7-25c0-2 1-2 3-2l7 2 5-10-2-2-2-27c-1-1 0-2 1-2 1-1 6-1 8-1l1-12-9-2c-1 0-2-1-2-2l2-11c0-1 1-2 3-2l15 2 15-25-409 46c-8 1-15 9-14 17l21 187c1 9 9 15 18 14zm-13-100l-3-26c0-2 1-3 2-3l48-5c1 0 2 1 2 2l3 26c0 1-1 2-2 2l-47 6c-1 0-3-1-3-2zm5 42l-3-26c0-2 0-3 2-3l73-8c1 0 2 1 2 2l3 26c0 2-1 3-2 3l-73 8c-1 0-2-1-2-2zm225-108l-26 3c-2 0-3 0-3-2l-3-26c0-1 1-2 2-3l27-2c1-1 2 0 2 1l3 27c0 1-1 2-2 2zm22 8c1 0 2 1 2 2l3 27c0 1 0 2-2 2l-26 3c-2 0-3-1-3-2l-3-26c0-1 1-2 2-3l27-3zm-42 5c1 0 2 1 3 2l3 26c0 1-1 3-2 3l-27 3c-1 0-2-1-3-2l-2-27c0-1 1-3 2-3l26-2zm-48-5c-1 0-3-1-3-2l-3-27c0-1 1-2 2-2l27-3c1 0 2 1 2 2l3 26c1 1 0 2-1 3l-27 3zm7 9c1 0 2 1 2 2l4 27c0 1-1 2-2 2l-26 3c-2 0-3 0-3-2l-3-26c0-1 1-2 2-3l26-3zm-11 44c1 0 3 1 3 2l3 26c0 1-1 3-2 3l-27 3c-1 0-2-1-2-2l-3-27c-1-1 0-2 2-2l26-3zm-53-6c-2 1-3 0-3-1l-3-27c0-1 1-2 2-2l27-3c1 0 2 0 2 2l3 26c1 1 0 2-1 3l-27 2zm12 10c1 0 3 1 3 2l3 27c0 1-1 2-2 2l-27 3c-1 0-2-1-2-2l-3-26c0-1 0-2 2-3l26-3zm-53-5c-1 0-3-1-3-2l-2-26c0-1 1-3 2-3l26-3c2 0 3 1 3 2l3 27c0 1-1 2-2 2l-27 3zm-52 89c-1 0-2-1-3-2l-2-26c-1-2 0-3 1-3l42-5c2 0 3 1 3 2l3 27c0 1 0 2-1 3l-43 4zm56-6c-1 0-2-1-3-2l-2-27c-1-1 0-2 1-2l42-5c2 0 3 1 3 2l3 26c0 1 0 3-1 3l-43 5zm56-7c-1 0-2 0-3-2l-2-26c-1-1 0-2 1-3l42-4c2 0 3 1 3 2l4 27c1 1 0 2-1 2l-44 4zm79-48l-26 3c-1 0-3-1-3-2l-3-27c0-1 1-2 2-2l27-3c1 0 2 1 2 2l3 26c0 2 0 3-2 3zm15-2c-1 0-3 0-3-2l-3-26c0-1 1-2 2-3l27-2c1-1 2 0 2 1v1l3 26c0 1-1 2-2 2l-26 3zm41-4c-1 0-3-1-3-2l-3-27c0-1 1-3 2-3l27-3c1 0 2 1 3 2l3 27c0 1-1 2-2 2h-1l-26 4zm5-72c0-1 1-2 2-3l27-2c1-1 2 0 2 1l3 26c0 1-1 2-2 2l-26 3c-2 0-3 0-3-2l-3-25zm60 67c-1 1-2 2-3 2l-26-6c-1-1-2-2-2-3l6-26c0-1 2-2 3-2l26 6c1 1 2 2 2 3l-6 26zm7-84c-1 0-2 0-3-1l-9-25c-1-1 0-3 1-3l25-10c1 0 2 0 3 1l10 25c0 1-1 2-2 2 0 2-21 10-25 11zm-12-59l26-3c1 0 3 1 3 2l1 11c0 1-1 2-2 2l-27 3c-1 0-2 0-2-2l-1-11c-1-1 0-2 2-2zm22 74c1 1 2 2 1 3l-12 24c0 1-1 2-3 1l-23-11c-1-1-2-2-1-3l11-24c1-2 2-2 3-2 1 1 21 11 24 12zm-30-45l3 26c0 1 0 3-2 3l-26 3c-2 0-3-1-3-2l-3-27c0-1 1-2 2-2l27-3c1-1 2 0 2 1v1zm-39-24l26-3c2 0 3 0 3 2l1 11c0 1 0 2-2 2l-26 3c-2 0-3-1-3-2l-1-11c0-1 1-2 2-2zm1 54c0 1-1 2-2 3l-26 3c-2 0-3-1-3-2l-3-27c0-1 1-2 2-2l27-3c1 0 2 0 2 2l3 26zm-48-49l27-3c1 0 2 1 3 2l1 11c0 1-1 2-2 2l-27 3c-1 0-2 0-3-1 0-1-1-10-1-12 0-1 1-2 2-2zm-46 5l26-3c1 0 3 1 3 2l1 11c0 1-1 2-2 2l-27 3c-1 1-2 0-2-1-1-4-1-9-2-12 1-1 2-2 3-2zm-47 5l27-3c1 0 2 1 2 2l1 11c1 1 0 2-2 3l-26 3c-1 0-3-1-3-2l-1-11c0-2 1-3 2-3zm13 25c1 0 2 1 2 2l3 26c0 2-1 3-2 3l-27 3c-1 0-2-1-2-2l-3-26c0-1 0-3 1-3 0 0 25-2 28-3zm-33-23c1 0 2 1 3 2l1 11c0 1-1 3-2 3l-27 3c-1 0-2 0-3-1l-1-12c0-1 1-3 2-3l27-3zm-8 28c1 0 2 0 2 2l3 26c0 1-1 2-2 2l-27 3c-1 1-2 0-2-2l-3-26c0-1 0-2 1-3 1 0 24-2 28-2zm-39-22c1 0 3 1 3 2l1 11c0 1-1 2-2 2l-27 3c-1 0-2-1-2-2l-1-11c-1-1 0-2 1-3l27-2zm-29 29l26-3c2 0 3 0 3 2l3 26c0 1-1 2-2 3l-27 2c-1 1-2 0-2-1l-3-27c0-1 1-2 2-2zm-45-8l-1-11c0-1 1-2 2-3l26-3c2 0 3 1 3 2l1 11c0 2 0 3-2 3l-26 3c-2 0-3-1-3-2zm4 12l26-3c2 0 3 1 3 2l3 26c0 2-1 3-2 3l-27 3c-1 0-2-1-2-2l-3-26c0-2 1-3 2-3zm401 14l7 3c1 0 2 2 1 3-2 7-7 17-10 24 0 1-2 2-3 2-1-1-3-2-4-2v15l-8 25c0 2-1 2-2 2l-7-2-6 9h28c1 0 2 1 2 2v27c0 1-1 2-2 2l-49-1-11 16 234 6c9 0 16-7 16-15l2-52-18-4-6 17c0 1-1 2-3 2-13-5-27-8-40-12-1-1-2-2-2-3s4-12 5-14l-10-2-2 2v21c0 1-1 2-2 2h-14l-7 9h21c2 0 3 1 3 3v26c0 1-1 2-3 2l-42-1c-1 0-2-1-2-2v-26c0-2 1-3 2-3h5v-10h-31c-1 0-2-1-2-2v-25h-11l2 23c0 1-1 2-2 2-9 0-19 1-27 2-1 0-2-1-3-2 0-8-1-18-1-27 0-1 0-2 2-2 6 0 13-1 20-1l6-7-16-20c-1-1-1-2 0-3 7-6 14-12 21-17l-2-1c-6-4-10-6-16-10l3 6h-8l-8 13zm123 84l42-2c1 0 2 1 2 2 0 9 1 18 2 27 0 1-1 2-2 2-14 0-29 1-42 2-2 0-3-1-3-2 0-9-1-18-1-27 0-2 2-2 2-2zm-115-2c0-1 1-2 3-2l42 1c1 0 2 1 2 2v26c0 2-1 2-2 2l-42-1c-2 0-3-1-3-2v-26zm-674 905h-53c-6 1-6 9 0 10h53c9 1 9-11 0-10zm-11 318c0 8-7 15-15 15s-15-7-15-15c0-19 30-19 30 0zm53-351h-136c-18 0-33 15-33 34v326c0 19 15 34 33 34h136c18 0 33-15 33-34v-326c0-19-15-34-33-34zm-147 34c0-7 5-11 11-11h136c6 0 11 4 11 11v20h-158v-20zm158 326c0 6-5 11-11 11h-136c-6 0-11-5-11-11v-30h158v30zm-43-118l44 37c7 5-1 15-8 9l-47-39-30 61c-4 8-15 2-12-5l28-56-28 10c-7 3-12-9-4-12l30-11-87-54c-7-5 0-15 7-11l79 49-76-147c-4-8 8-13 11-6l78 151 24-103c2-8 15-5 13 4l-22 94 20-28c5-6 16 1 11 8l-24 32 33-16c7-4 13 8 5 11l-45 22zm1640 92h-8c1-2 2-5 2-8v-251c0-14-11-26-26-26h-424c-14 0-26 11-26 26v250c0 3 1 6 2 9h-8c-14 0-26 12-26 26v7c0 14 12 26 26 26h488c15 0 26-12 26-26v-7c0-14-11-26-26-26zm-465-259c0-5 4-8 9-8h425c4 0 8 3 8 8v251c0 5-4 8-8 8h-425c-5 0-8-3-8-8l-1-251zm474 292c0 5-4 9-9 9h-488c-5 0-9-4-9-9v-7c0-5 4-8 9-8h488c5 0 9 3 9 8v7zm-263-285h40c6 0 6-8 0-8h-40c-6 0-6 8 0 8zm-11-4c0 4-3 7-7 7-3 0-6-3-6-7 0-8 13-8 13 0zm227 13h-412v211h412v-211zm-93 201l-200-100 22 42c5 8-8 15-12 6-9-16-17-33-26-50l-81 99c-6 9-18-1-11-8l73-89c-16 6-41 17-63 28-8 2-13-9-6-13 21-10 56-25 73-32l-74-62c-6-6 2-15 9-11l76 64 9-58c1-10 15-7 14 2l-9 56 25-4c9-2 12 12 3 14l-17 2 202 102c9 4 2 17-7 12zm-1218-176c-1-5-9-4-13-2-18 5 16 12 13 2zm-50 187c-8 3 7 9 6 2-1-3-4-3-6-2zm67 26c-12 3-14 17-3 21 6 3 22-1 23-7 1-10-12-16-20-14zm441-212c-13-1-25-2-38-4-10-1-51 0-70-2l-9-1c-4-5-4-11-7-16-1-3-3-5-6-6-8-2-6-8 1-10 6-1 12-2 18-4 4-1 7-5 6-9-1-3-4-6-7-6-5-1-9 2-14 2-17 1-35-3-36-23 0-5 4-6 3-11-2-5-8-3-8-6-2-7 20-30 24-35 4-4 8-7 7-12-2-3-5-5-9-4-8 1-12 18-16 23-14 19-33 22-40 11-2-3-1-6-5-6-3-1-4 2-7 2-8 1-18-5-19-23 0-5 5-29-6-25-12 3 4 37-8 40-6 2-7-8-15-7-4 1-6 6-9 0-4-6-6-24-15-22-9 3 7 20 8 22 2 6 3 18-3 18-5 0-5-9-11-8-9 3 6 10 4 12s-7-3-10-1c-7 4 2 17 4 22 4 10 4 16-10 17h-2c-3 0-10-4-10 2 0 5 6 4 8 7 9 11 9 21-8 19l-12-3-92-65c-5-4-25-20-39-11-14 8-10 32-6 45 5 17 14 32 27 44 10 11 25 18 40 19 8 1 16 0 23-2 18-6 16-7 32-17l4-3c9 3 28 8 32 15 2 6 20 14-4 42 3 8 6 14 14 16 9 1 15-1 18-14l17-93 27 5-17 93c-1 20-19 35-39 34h-3l3 1c6 3 16 12 1 37-4 6-8 12-11 18-6 11-12 22-20 33l-10 16c-2 5-38 79-42 86-2 4-31 33-21 43 12 6 26-33 28-36 3-8 8-16 14-22 14-18 49-99 51-101 7-10 9-25 19-31 3-2 6-2 10-2v3l70 9c2-5 3-10 5-15 0-1 0 0-1-1-1-3-10-8-7-10l6 1c3 2 6 4 8 6 7 5 14 9 21 14 5 3 14 14 22 12 1-1 2-3 2-4 0-10-15-5-17-14-2-8 8-8 13-5 14 10 27 22 40 33 3 3 5 7 9 6 9-3-7-16-9-18-6-5-37-30-52-44-30 12-65-2-77-32v-1l24-9c7 24 41 29 45 11 4-23-57-27-48-73 8-41 70-36 81 1l-24 10c-3-16-26-22-30-7v1c-5 24 56 25 49 74-1 6-3 11-7 16 18 7 80 35 88 38 3 1 10 3 10-2 0-2-1-3-1-3h1c3-1 5-4 4-7l-5-22 6-1c3-1 6-2 9-4h1c25-14 35-27 32-39-3-16-29-19-35-20 9 0 13 2 14 2 12 0 23 1 34 3l14-6c-2-7-15-6-24-6zm-403-30c-18-6-33-20-42-37-4-9-13-38-5-44 3-2 15 4 22 11l56 40 21 15c-16 12-30 19-52 15zm362 50c10 1 22 5 23 9 2 12-35 27-46 29-23 3-47-3-61-22-3-6-5-13-6-20l-3-12 93 16zm-90-179c-9 5 9 12 5 1-1-1-3-2-5-1zm-210 161c0-2-3-2-5-2-5 3 6 6 5 2zm-44 130c2-6-3-10-9-8-11 5 5 18 9 8zm103-13c-3 1-8 8-7 12 1 3 14-6 11-11-1-1-3-1-4-1zm56 23c-2 0-2 2-2 3 0 3 1 4 2 4l-41-5c0 4 1 8 2 13-3 4-4 9-3 14 1 3 4 2 6 0 2 10 5 18 7 27l7 1 6 1c5-8 10-16 14-24l-34-6c3-3 5-6 7-10l32 4c3-4 5-9 7-14l-9-1c4-1 8-13-1-7zm-29 58c-4 2-12 26-4 26s16-15 10-25c-1-1-4-2-6-1zm-121-191c4-1 7-3 6-6-1-4-5-3-9-1h-1c-3 1-5 2-4 5s5 3 8 2zm230-95l1 1c2 2 4 2 5 0 10-7 22-14 33-18l1 1c4 2 10 1 12-3 3-4 1-10-3-12-4-3-9-2-12 2 0 2-1 3-1 4-13 5-24 11-35 20-2 1-2 4-1 5zm-197-50v-3c-2-5-7-7-12-6-4 2-7 7-5 11 2 5 7 7 11 6h1c11 7 20 15 28 25 1 1 3 2 5 1l1-1c2-1 2-4 0-6-8-10-18-19-29-27zm74 266c-1 2-1 3 0 4 3 6 7 3 9 0l48 6 6-15-65-8c1 4 1 9 2 13zm-57-69c1-1 5-4 9-8-6-4-10-8-13-14l-3 3-12 12c-26 26-78 78-87 86-6 5-71 62-79 67-4 1-12 8-10 14 3 5 16-5 17-6 15-12 115-106 128-117 16-12 34-26 50-37zm565-73l-3-3c-1-1-3-1-3 0l-22 20-21-21c-1-1-2-1-3 0l-4 4c-1 1-1 2 0 3l21 21-21 21c-1 1-1 2 0 3s2 3 3 3c1 1 3 1 3 1l22-22 21 22c1 1 3 1 4 0 0-1 2-3 3-4s1-2 0-3l-21-21 21-21c1-1 1-2 0-3zm-1344-44c-3-5-11-5-14 0l-49 91c-4 5 0 12 7 12h98c6 0 10-7 7-12l-49-91zm1 90h-16v-14h17l-1 14zm0-46l-2 28h-11l-4-28v-14h18l-1 14zm813-467l-3-4c-1-1-3-1-3 0l-22 21-21-21c-1-1-3-1-3 0-1 0-3 3-4 4-1 0-1 2 0 3l21 21-21 21c-1 1-1 2 0 3l3 3c1 1 2 1 3 0 7-7 15-14 22-21l21 21c1 1 3 1 3 0 1 0 3-2 4-3s0-2 0-3l-21-21 21-22c1-1 1-2 0-2zm-688-362l-4-4h-3l-21 21-22-21c-1-1-2-1-3 0-1 0-3 3-3 4-1 1-1 2 0 3l21 21-21 21c-1 1-1 2 0 3 0 1 2 2 3 3s2 1 3 0c7-7 14-14 22-21l21 21c1 1 2 1 3 1 1-1 2-3 3-4s1-2 0-3l-20-21 21-22v-2zm2120-143l-3-4c-1 0-3-1-4 0l-21 21-22-21c0-1-2-1-3 0 0 0-2 3-3 4s-1 2 0 3l21 21-21 21c-1 1-1 2 0 3 0 1 2 2 3 3s2 1 3 0c7-7 15-14 22-21l21 21c1 1 2 1 3 0 1 0 3-2 3-3 1-1 1-2 0-3l-20-21 21-22v-2zm386 715l-3-3c-1-1-2-1-3 0l-22 20-21-21c-1-1-2-1-3 0l-4 4c-1 1 0 2 0 3l22 21-22 21v3l4 4c1 0 2 1 3 0 7-7 14-14 21-22l22 22c1 1 2 1 3 0s2-3 3-3c1-1 1-3 0-4l-21-21 21-21c1-1 1-2 0-3zm-2012-495c-3-5-11-5-14 0l-49 91c-3 5 1 12 7 12h98c7 0 11-7 7-12l-49-91zm2 91h-17v-14h17v14zm0-47l-3 28h-11l-3-28v-14h17v14zm1470 424c-4-6-13-6-17 0l-56 104c-4 6 1 14 8 14h113c7 0 11-8 8-14l-56-104zm1 104h-19v-16h19v16zm0-53l-3 31h-13l-4-32v-16h21l-1 17zM2911 137h245c17 1 32-13 32-31 1-42 0-86 0-128 0-18-14-32-32-32h-245c-17 0-32 14-32 32v127c0 18 15 32 32 32zm159-90l31-51h24v49h10v14h-10v20h-18V59h-37V47zm-39-52c22 0 31 19 31 42 0 25-10 43-31 43-22 0-31-19-31-43-1-23 10-42 31-42zm-104 52l32-51h24v49h9v14h-10v20h-18V59h-37V47zm104 19c8 0 12-10 12-28 0-19-4-28-12-28s-12 9-12 28 5 28 12 28zm-67-40V11c-3 5-5 10-8 15l-11 19h19V26zm143 0V11c-3 5-6 10-8 15l-11 19h19V26zm1125 683c-3-25-23-43-48-44 9-14 11-32 5-47-7-16-21-27-38-29 7-12 7-27-1-39-10-12-26-19-42-17 8-19 4-41-12-54-21-24-48-42-79-51-6-1 0 6 3 17 2 10-2 19-9 26-12 14-15 26-5 40-17 2-31 12-40 26-11 15-11 35-3 52-17 1-31 12-38 28s-5 34 6 48c-36 9-52 29-49 60 4 31 24 41 58 36 33-8 68-8 102-1 48 5 97 5 145-1 29-5 49-20 45-50zm-269-90c0-22 14-48 38-48 21 0 38 21 38 48 0 26-17 48-38 48-20 0-38-22-38-48zm152 81c-39 29-77 31-114-2-12-10-11-14 1-16l110-1c21 4 4 19 3 19zm2-36c-24 0-38-26-38-47 0-26 17-47 38-47 20 0 37 21 37 47 0 21-13 47-37 47zm-1-75c10 0 18 13 18 29s-8 29-18 29-19-13-19-29 9-29 19-29zm-115-1c10 0 19 13 19 29s-9 29-19 29-19-13-19-29 9-29 19-29zm-516 203l-45-15c11-58-27-114-85-125-42-7-85 11-108 46l-22-25c-4-5-10-6-15-5l-33 6c5-59-38-110-97-116-42-3-83 18-103 55l-45-15c-21-15-36 26-10 28l45 16c-11 57 27 113 85 124 48 9 96-15 116-60l39-7 26 30c-15 57 20 115 77 129 47 12 97-10 120-53l44 17c20 7 30-23 11-30zm-343-104c-13 39-56 60-95 47-40-14-61-57-47-96 13-39 56-60 95-47s61 57 47 96zm244 14l-27 23-57-36c28-14 62-8 84 13zm-101-2l50 32-73 6c4-15 12-28 23-38zm24 126c-29-11-48-38-49-69l77-7-31 37c-8 9 5 21 14 12 12-13 26-31 38-45l16 36c5 11 22 4 17-8l-13-28 14 6c19 0 16-14 8-17l-22-10 20-17c40 59-21 135-89 110zm619-765l43 32-31 28 45-2 1 46 31-42 106 25-91-63 10-129-52 107-62-2zm97-43l-5 73 46 32-54-13-15 21v-25l-23 1 16-15-24-18 32 2 27-58zm49 67c1 0 2 1 2 2v18l18 13 3-106c0-9-7-16-16-16h-33l-1 23c2-1 25 0 28 0 2 0 3 1 3 2v11c0 1-1 2-3 2h-26l-3 10 29 1c1 0 2 1 2 2v27c0 1-1 2-2 2l-33-1v8l4 2h28zm-141-42v10h9V42c1-1 1-2 2-2l28 1c1 0 2 1 2 2v11h10V43l2-2h6l22-47-55-1-15 21-7 8-3 9c0 2-1 2-3 2-1-1-2-1-3-1l-6 8h8c1 0 3 1 3 2zm44-32c1 0 3 0 3 1l5 11c0 1 0 2-2 2l-25 11c-1 1-2 0-3-1l-4-10c-1-1 0-2 1-3 8-2 18-7 25-11zm-454 231l298-33 11-18-140 15c-1 0-2-1-2-2l-3-26c-1-1 0-3 1-3l163-18 7-11-11-2c-1 0-2-1-2-2l4-26c1-2 2-2 3-2l17 2-2-14-10-2c-2-1-2-2-2-3l7-25c0-2 1-2 3-2l7 2 5-10c-1-1-1-1-1-2l-3-27c-1-1 0-2 1-2 1-1 6-1 8-1l1-12-9-2c-1 0-2-1-2-2l2-11c0-1 1-2 3-2l15 2 15-25-408 46c-9 1-15 9-14 17l20 187c1 9 9 15 18 14zm-13-100l-3-26c0-2 1-3 2-3l48-5c1 0 2 0 2 2l3 26c0 1-1 2-2 2l-47 6c-1 0-3-1-3-2zm5 42l-3-26c0-2 1-3 2-3l73-8c1 0 2 1 2 2l3 26c0 2-1 3-2 3l-73 8c-1 0-2-1-2-2zm225-108l-26 3c-2 0-3 0-3-2l-3-26c0-1 1-2 2-3l27-3c1 0 2 1 2 2l3 27c0 1-1 2-2 2zm22 8c1 0 2 1 2 2l3 27c0 1 0 2-2 2l-26 3c-1 0-3-1-3-2l-3-26c0-1 1-2 2-3l27-3zm-42 5c1 0 2 1 3 2l3 26c0 1-1 3-2 3l-27 3c-1 0-2-1-2-2l-3-27c0-1 1-3 2-3l26-2zm-48-5c-1 0-3-1-3-2l-3-27c0-1 1-2 2-2l27-3c1 0 2 1 2 2l3 26c1 1 0 2-1 3l-27 3zm7 9c1 0 2 1 2 2l4 27c0 1-1 2-2 2l-26 3c-2 0-3 0-3-2l-3-26c0-1 1-2 2-3l26-3zm-11 44c1 0 3 1 3 2l3 26c0 1-1 3-2 3l-27 3c-1 0-2-1-2-2l-3-27c-1-1 0-2 2-2l26-3zm-53-6c-2 1-3 0-3-1l-3-27c0-1 1-2 2-2l27-3c1 0 2 0 2 2l3 26c1 1 0 2-1 3l-27 2zm12 10c2 0 3 1 3 2l3 27c0 1-1 2-2 2l-27 3c-1 0-2-1-2-2l-3-26c0-1 0-2 2-3l26-3zm-53-5c-1 0-3-1-3-2l-2-26c0-1 1-3 2-3l26-3c2 0 3 1 3 2l3 27c0 1-1 2-2 2l-27 3zm-52 89c-1 0-2-1-2-2l-3-26c-1-2 0-3 1-3h1l42-5c1 0 2 1 2 2l3 27c0 1 0 2-1 3l-43 4zm56-6c-1 0-2-1-2-2l-3-27c-1-1 0-2 2-2l42-5c1 0 2 1 2 2l3 26c1 1 0 3-1 3l-43 5zm56-7c-1 0-2 0-2-2l-3-26c-1-1 0-2 2-3l42-4c1 0 2 1 2 2l5 27c0 1-1 2-2 2l-44 4zm79-48l-26 3c-1 0-3-1-3-2l-3-27c0-1 1-2 2-2l27-3c1 0 2 1 2 2l3 26c1 2 0 3-2 3zm15-2c-1 0-3 0-3-2l-3-26c0-1 1-2 2-3l27-2c1-1 2 0 2 1l3 27c0 1-1 2-2 2l-26 3zm41-4c-1 0-2-1-3-2l-2-27c-1-1 0-3 1-3l27-3c1 0 2 1 3 2l3 27c0 1-1 2-2 2h-1l-26 4zm5-72c0-1 1-2 2-3l27-2c1-1 2 0 2 1l3 26c0 1-1 2-2 2l-26 3c-2 0-3 0-3-2l-3-25zm60 67c-1 1-2 2-3 2l-26-6c-1-1-2-2-2-3l6-26c0-1 2-2 3-2l26 6c1 1 2 2 2 3l-6 26zm7-84c-1 0-2 0-3-1v-1l-9-24c-1-1 0-3 1-3l25-10c1 0 2 0 3 1l10 25c0 1-1 2-2 2 0 2-21 9-25 11zm-12-59l26-3c1 0 3 1 3 2l1 11c0 1-1 2-2 2l-27 3c-1 0-2 0-2-2l-1-11c0-1 0-2 2-2zm22 74c1 1 2 2 1 3l-12 24c0 1-1 2-3 1l-23-11c-1-1-2-2-1-3l11-24c1-2 2-2 3-2 1 1 21 11 24 12zm-30-45l3 26c0 1 0 3-2 3l-26 3c-1 0-3-1-3-2l-3-27c0-1 1-2 2-3l27-2c1-1 2 0 2 1v1zm-39-24l26-3c2 0 3 0 3 2l1 11c0 1 0 2-2 2l-26 3c-2 0-3-1-3-2l-1-11c0-1 1-2 2-2zm1 54c0 1-1 2-2 3l-26 2c-2 1-3 0-3-1l-3-27c0-1 1-2 2-2l27-3c1 0 2 0 2 2l3 26zm-48-49l27-3c1 0 2 1 3 2l1 11c0 1-1 2-2 2l-27 3c-1 0-2 0-3-1 0-1-1-10-1-12 0-1 1-2 2-2zm-46 5l26-3c1 0 3 1 3 2l1 11c0 1-1 2-2 2l-27 3c-1 1-2 0-2-1-1-4-1-9-1-12 0-1 1-2 2-2zm-47 5l27-3c1 0 2 1 2 2l1 11c1 1 0 2-2 3l-26 2c-1 1-3 0-3-1l-1-11c0-2 1-3 2-3zm13 25c1 0 2 1 2 2l3 26c0 2-1 3-2 3l-26 3c-2 0-3-1-3-2l-3-26c0-2 0-3 1-3 0 0 25-3 28-3zm-33-23c1 0 2 1 3 2l1 11c0 1-1 3-2 3l-27 3c-1 0-2 0-3-1l-1-12c0-1 1-3 2-3l27-3zm-8 28c1-1 2 0 2 2l3 26c0 1-1 2-2 2l-27 3c-1 1-2 0-2-2l-3-26c0-1 0-2 1-3 1 0 24-2 28-2zm-39-22c1 0 3 1 3 2l1 11c0 1-1 2-2 2l-27 3c-1 0-2-1-2-2l-1-11c-1-1 0-2 1-3l27-2zm-29 29l26-3c2 0 3 0 3 2l3 26c0 1-1 2-2 2v1l-27 2c-1 1-2 0-2-1v-1l-3-26c0-1 1-2 2-2zm-45-8l-1-11c0-1 1-2 2-3l26-3c2 0 3 1 3 2l1 11c0 2 0 3-2 3l-26 3c-1 0-3-1-3-2zm4 12l26-3c2 0 3 1 3 2l3 26c0 2-1 3-2 3l-27 3c-1 0-2-1-2-2l-3-26c0-2 1-3 2-3zm401 14l7 3c1 0 2 2 1 3-2 7-7 17-10 24 0 1-2 2-3 2-1-1-3-2-4-2v15l-7 25c-1 2-2 2-3 2l-7-2-6 9h28c1 0 2 1 2 2v27c0 1-1 2-2 2l-49-2-11 17 234 6c9 0 16-7 16-15l2-52-18-4-6 17c0 1-1 2-3 2-13-5-27-8-40-12-1-1-2-2-2-3s4-12 5-14l-10-2-2 2v21c0 1-1 2-2 2h-14l-7 9h21c2 0 3 1 3 3v26c0 1-1 2-3 2l-42-1c-1 0-2-1-2-2v-26c0-2 1-3 2-3h5v-10h-31c-1 0-2-1-2-2v-25h-11l2 23c0 1-1 2-2 2-8 0-19 1-27 2-1 0-2-1-3-2 0-8-1-18-1-27 0-1 1-2 2-2 6 0 13-1 20-1l7-7-17-20c-1-1-1-2 0-3 7-6 14-12 21-17l-2-1c-6-4-10-6-16-10l3 6h-8l-8 13zm123 84l42-2c1 0 2 1 3 2 0 9 0 18 1 27 0 1-1 2-2 2-14 0-29 1-42 2-2 0-3-1-3-2 0-9-1-18-1-27 0-2 2-2 2-2zm-115-2c0-1 1-2 3-2l42 1c1 0 2 1 2 2v26c0 2-1 2-2 2l-42-1c-2 0-3-1-3-2v-26zm-674 905h-53c-6 1-6 9 0 10h53c9 1 9-11 0-10zm-11 318c0 8-7 15-15 15s-15-7-15-15c0-19 30-19 30 0zm53-351h-136c-18 0-33 15-33 34v326c0 19 15 34 33 34h136c18 0 33-15 33-34v-326c0-19-15-34-33-34zm-147 34c0-7 5-12 11-12h136c6 0 11 5 11 12v20h-158v-20zm158 326c0 6-5 11-11 11h-136c-6 0-11-5-11-11v-30h158v30zm-43-118l44 37c7 5-1 15-8 9l-47-39-30 61c-4 8-15 2-11-5l28-56-28 10c-8 3-13-9-5-12l30-11-87-54c-7-5 0-15 7-11l79 49-76-147c-4-8 8-13 11-6l78 151 24-103c2-8 15-5 13 4l-22 94 20-28c5-7 16 1 11 8l-24 32 33-16c7-4 13 8 5 11l-45 22zm291-126c-1-5-9-4-13-2-18 5 16 12 13 2zm-50 187c-8 3 7 9 6 2-1-3-4-3-6-2zm67 26c-12 3-14 17-3 21 6 3 22-1 23-7 1-10-12-16-20-14zm441-212c-13-1-25-2-38-4-10-1-51 0-70-2l-8-1c-5-5-5-11-8-16-1-3-3-5-6-6-7-2-6-8 1-10 6-1 12-2 18-4 4-1 7-5 6-9-1-3-4-6-7-6-5-1-9 2-14 2-17 1-35-3-36-23 0-5 4-6 3-11-2-5-8-3-8-6-2-7 20-30 24-35 4-4 8-7 7-12-2-3-5-5-9-4-8 1-12 18-16 23-14 19-33 22-40 11-2-3-1-6-5-6-3-1-4 2-7 2-8 1-18-5-19-23 0-5 5-29-6-25-12 3 4 37-8 40-6 2-7-8-15-7-4 1-6 6-9 0-4-6-6-24-15-22-9 3 7 20 8 22 2 6 3 18-3 18-5 0-5-9-11-8-9 3 6 10 4 12s-7-3-10-1c-7 4 2 16 4 22 4 10 4 16-10 17h-2c-3 0-10-4-10 2 0 5 6 4 8 7 9 11 9 21-8 19l-12-3-92-65c-4-4-25-20-39-11-14 8-10 32-6 45 5 16 14 32 27 44 11 11 25 18 40 19 8 1 16 0 23-2 18-6 16-7 32-17l4-3c9 3 28 8 32 15 2 6 20 14-4 42 3 8 6 14 14 16 9 1 15-1 18-14l17-93 27 5-17 93c-1 20-18 35-39 34h-3l3 1c6 3 16 12 1 37-4 6-8 12-11 18-6 11-12 22-20 33l-10 16c-2 5-38 79-42 86-2 4-31 33-21 43 12 6 26-33 28-36 3-8 8-16 14-22 14-18 49-99 51-102 7-9 9-24 19-30 3-2 6-2 10-2v3l70 9c2-5 3-10 5-15v-1c-2-3-11-8-8-10l6 1c3 2 6 4 8 6 7 5 14 9 21 14 5 3 14 14 22 12 1-1 2-3 2-4 0-10-15-5-17-14-2-8 8-8 13-5 14 10 27 22 40 33 3 3 5 7 9 6 9-3-7-16-9-18-6-5-37-30-52-44-30 12-65-2-77-32v-1l24-9c7 24 42 29 45 11 4-23-57-27-48-73 8-41 70-36 81 1l-24 10c-3-16-26-22-30-7v1c-5 24 56 25 49 74-1 6-3 11-7 16 18 7 80 35 88 38 3 1 10 3 10-2 0-2-1-3-1-3h1c3-1 5-4 4-7l-5-22 6-1c3-1 6-2 9-4h1c25-14 35-27 32-39-3-16-29-19-35-20 9 0 13 2 14 2 12 0 23 1 34 3l14-6c-2-7-15-6-24-6zm-403-30c-18-6-33-20-42-37-4-9-12-38-5-44 3-2 15 4 22 11l56 40 21 15c-16 12-30 19-52 15zm362 50c10 1 22 5 23 9 2 12-35 27-46 29-23 3-47-3-61-22-3-6-5-13-6-20l-3-12 93 16zm-90-179c-9 5 9 12 5 1-1-1-3-2-5-1zm-210 161c0-2-3-2-5-2-5 3 6 6 5 2zm-44 130c3-6-3-10-9-8-11 5 6 18 9 8zm103-13c-3 1-8 8-7 12 1 3 14-6 11-11-1-1-3-1-4-1zm56 23c-2 0-2 2-2 3 0 3 1 4 2 4l-41-5c0 4 1 8 2 12-3 5-4 10-3 15 1 3 4 2 6 0 2 10 5 18 7 27l7 1 6 1c5-8 10-16 14-24l-34-6c3-3 5-6 7-10l32 4c3-4 5-9 7-14l-9-1c4-1 8-13-1-7zm-29 58c-4 2-12 26-4 26s16-15 10-25c-1-1-4-2-6-1zm-120-191c3-1 6-3 5-6-1-4-4-3-9-1h-1c-3 1-5 2-4 5s5 3 9 2zm229-95l1 1c2 1 4 1 5 0 10-7 22-14 33-18l1 1c4 2 10 1 12-3 3-5 1-10-3-12-4-3-9-2-12 2 0 1-1 3-1 4-13 5-24 11-35 20-2 1-2 4-1 5zm-197-50v-3c-2-5-7-8-11-6-5 2-8 7-6 11 2 5 7 7 11 6h1c11 7 20 15 28 25 1 1 3 2 5 1l1-1c2-1 2-4 0-6-8-10-18-19-29-27zm74 266c-1 2-1 3 0 4 3 6 7 3 9 0l48 6 6-15-65-8c1 4 1 9 2 13zm-57-69c1-1 5-4 9-8-6-4-10-8-13-14l-3 3-12 12c-26 26-78 78-87 86-6 5-71 62-79 66-4 2-12 9-10 14 3 6 16-4 17-5 15-12 115-106 128-117 16-12 34-26 50-37zm565-73l-3-3c-1-1-3-1-3 0l-22 20-21-21c-1-1-2-1-3 0l-4 4c-1 1-1 2 0 3l21 21-21 21c-1 1-1 2 0 3s2 3 3 3c1 1 3 1 4 1 7-8 14-15 21-22l21 22c1 0 3 1 4 0s2-3 3-4 1-2 0-3l-21-21 21-21c1-1 1-2 0-3zm-1344-44c-3-5-11-5-14 0l-49 91c-3 5 1 12 7 12h98c6 0 10-7 7-12l-49-91zm1 90h-16v-14h17l-1 14zm0-46l-2 28h-11l-4-28v-14h18l-1 14zm813-468l-3-3c-1-1-3-1-3 0l-22 21-21-21c-1-1-3-1-3 0-1 0-3 3-4 3-1 1-1 3 0 4l21 21-21 21c-1 1-1 2 0 3l3 3c1 1 3 1 3 0 8-7 15-14 22-21l21 21c1 1 3 1 3 0 1 0 3-2 4-3s1-2 0-3l-21-21 21-22c1-1 1-2 0-3zm-688-361l-4-4s-2-1-3 0l-21 21-22-21c0-1-2-1-3 0-1 0-2 3-3 4s-1 2 0 3l21 21-21 21c-1 1-1 2 0 3 0 1 2 2 3 3s2 1 3 0c7-7 14-14 22-21l21 21c1 1 2 1 3 0 1 0 2-2 3-3s1-2 0-3l-20-21 21-22v-2zm494 77c-3-5-10-5-14 0l-49 91c-3 5 1 12 7 12h98c7 0 11-7 7-12l-49-91zm2 91h-17v-14h17v14zm0-47l-3 28h-11l-3-28v-14h18l-1 14zM-30 137h244c18 1 32-13 33-31V-22c0-18-15-32-33-32H-30c-18 0-32 14-32 32v127c0 18 14 32 32 32zm158-90l31-51h24v49h10v14h-10v20h-18V59h-37V47zM90-5c22 0 31 19 31 42 0 25-11 43-32 43S58 61 58 37C58 14 68-5 90-5zM-14 47L17-4h24v49h10v14H41v20H23V59h-37V47zM90 66c7 0 11-10 11-28 0-19-4-28-12-28-7 0-11 9-11 28s4 28 12 28zM23 26V11c-3 5-5 10-8 15L4 45h19V26zm142 0V11c-3 5-5 10-8 15l-11 19h19V26zm1658 828V516h-339v338h339zm-128-142c0-50 71-57 92-17l-25 16c-7-18-34-20-36-2-3 30 70 18 70 74 0 53-85 62-111 12l26-15c12 25 53 25 53 4 0-27-69-19-69-72zm-96 71c13 23 38 24 38-3V672h32v108c6 54-74 66-96 19l26-16zm658 571c0-34 7-83-26-102 34-18 26-68 26-102 0-35-4-64 42-63v-18h-3c-45-1-63 20-62 63v73c0 21-15 39-37 38v19c22-1 37 17 37 38v73c-1 46 18 63 65 63v-19c-46 2-42-28-42-63zm295-222c0-43-18-64-62-63h-3v19c45-2 41 27 41 62 0 34-8 83 26 102-15 9-22 21-24 38-5 29-1 64-3 94 0 26-16 33-40 32v19c45 0 65-15 65-63v-73c-1-21 14-39 36-38v-18c-10 0-19-5-27-12-14-10-9-82-9-99zm-51 142v-106l-56-60h-138c-14 1-25 12-24 26v236c-1 14 10 26 24 26h48s71 63 134-2c32-32 37-83 12-120zm-165 96h-28v-236h121v52h49v63s-78-50-131 19c-39 50-11 102-11 102zm69-106h38v28l-8 58h-23l-7-58v-28zm1 95h35v30h-35v-30zm214-701l-2-1c-3-2-6-4-9-5-2-1-5-2-7-3-9-21-27-36-49-40l6-94c1-2 0-3-1-4l-49-65c11-2 22-7 32-13-3 12 11 21 20 13l8-7 7 8c7 9 22 4 22-7 0-7-6-12-10-17l8-6c13-11-3-30-16-19l-8 6-6-8c-11-12-30 4-20 16-11-16-56-25-81-30 3-8-1-17-9-21-12-4-24 5-22 17-19-2-38-4-58-4-27-1-55-1-82 1l4-3c9-8-3-23-13-15l-5 4-5-5c-8-9-23 3-15 13l4 5-6 6c-47 8-57 20-58 28 0 8 12 19 36 27 1 7 8 13 16 12 5-1 9-4 11-9v154c-64 14-96 42-96 84-2 1-4 3-5 4l-3 1c-6 2-9 7-6 13 0 4-2 6 1 10-1 3 0 6 3 9-1 1-1 2 0 3 0 2 2 4 4 5 4 0 7 0 10-2 2-1 3-2 5-3 0 3 2 7 3 10 2 3 6 6 10 6 1 0 2 0 3-1l2-1c4-3 3-8 2-11v-3c0-2 1-4 1-6s0-4 1-6c1-3 1-6 1-9 0-10-5-22-16-24h-6c2-32 30-53 83-65v185c0 9 8 17 17 17l100-10v37c-5 1-8 3-8 5s6 6 14 6c7 0 14-3 14-6s-3-4-7-5v-39l17-1v31c-4 1-6 3-6 5 0 3 6 7 14 7 7 0 14-3 14-7 0-3-4-5-9-6 1-8 1-23 0-32l104-10c9 0 18-7 19-16 4-48 6-97 9-145 16 4 29 14 36 28-3 2-5 4-7 7-2 5-4 10-4 14 0 3 1 6 2 9 1 6 1 10-1 16s-1 12 7 13c7-1 11-8 12-15 0-1 1-2 1-3 3 2 5 3 8 5s6 2 10 1c3-1 5-4 4-8 3-2 4-5 3-9 2-2 2-6 1-9 0-5 2-8-4-13zm-357-227c-3-7-11-11-18-8-3 1-6 3-7 6-12-5-16-9-16-12 0-21 142-20 154-19 37 0 73 5 109 12 34 8 42 15 42 19 0 3-6 8-24 12l-20-26c-1-2-3-3-5-3h-198c-11 0-17 9-17 19zm267 335c0 2-2 4-4 4l-169 17-47 4c-18 2-28-4-28-16 0-115-7-230-7-346 0-3 2-5 5-5h195l3 4-5 51c-2 12 6 22 18 24 16 2 33 4 50 6l6 7-17 250zm-190-237l-4 10c-3 8 9 13 12 5l4-10 10 4c8 3 12-9 5-12l-10-4 4-9c3-8-9-13-12-5l-4 9-10-3c-8-4-13 8-5 12l10 3zm74-7l9 4-4 9c-3 8 9 13 12 5l4-9 10 4c8 3 13-9 5-12l-10-4 4-10c3-8-9-13-12-5l-4 10-9-4c-8-3-13 9-5 12zm103 133h-210c-7 0-7 10 0 10h210c7 0 7-10 0-10zm0 29h-210c-7 0-7 10 0 10h210c7 0 7-10 0-10zm-108 23h-102c-7 0-7 10 0 10h102c6 0 6-10 0-10zm-196-243l-5 4-5-5c-8-10-23 2-15 13l4 5-5 4c-10 9 3 24 13 15l5-4 4 5c9 10 24-3 16-13l-4-5 5-4c9-9-3-24-13-15zm304 281c-1-1-2-1-2-1l-4-2-3-1-2-1c-1 0-2 0-2-1-1-1-1-1-1-2v-2l1-1h7l2 1 2 1h2l1-3c-1-1-3-2-4-2-2-1-4-2-6-2h-5c-2 0-3 1-4 2l-3 3v7c1 1 1 2 2 3 1 0 2 1 3 1l3 1 3 1 3 1c1 0 1 1 2 1 0 1 1 1 0 2 0 2 0 3-1 4s-3 1-5 1h-3l-2-1-2-1h-2l-2 4c1 0 1 1 2 1l3 1h7c2 0 4 0 5-1 2-1 3-2 5-3 1-1 1-2 2-3s1-2 1-4c0-1 0-2-1-3 0 0-1-1-2-1zm-33 6v3c-1 1-1 2-2 3 0 1-1 1-1 1-1 1-2 1-3 0h-3-1v6h6c1 0 3-1 5-2 1 0 3-1 4-3 1-1 1-2 2-4 0-2 1-4 1-5v-23l-7-1-1 25zm-154-149l13-11 13 11c3 3 8 3 11 0l13-11 13 11c3 3 8 3 11 1l13-12 14 12c2 2 6 2 9 0l13-12 13 12c7 6 16-5 9-12l-16-15c-4-2-8-2-12 0l-12 11-12-11c-3-2-8-2-11 0l-13 12-14-12c-3-2-7-2-11 0l-13 12-13-12c-3-2-8-2-11 0l-17 15c-7 7 3 18 10 11zM1290 709c-2-25-23-43-47-44 9-14 11-32 5-47-7-16-22-27-39-29 8-12 7-27-1-39-10-12-26-19-42-17 9-19 4-41-11-54-21-24-49-42-80-51-6-1 0 6 4 17 1 10-2 19-10 26-11 14-15 26-5 40-16 2-31 12-40 26-10 15-11 35-2 52-17 1-32 12-39 28s-4 34 7 48c-36 9-52 29-49 60s23 41 57 36c34-8 69-8 103-1 48 5 97 5 145-1 28-5 49-20 44-50zm-268-90c0-22 13-48 38-48 21 0 38 21 38 48 0 26-17 48-38 48s-38-22-38-48zm151 81c-39 29-77 31-114-2-11-10-11-14 2-16l110-1c21 4 4 19 2 19zm2-36c-24 0-37-26-37-47 0-26 16-47 37-47s38 21 38 47c0 21-14 47-38 47zm-1-75c10 0 18 13 18 29s-8 29-18 29-18-13-18-29 8-29 18-29zm-114-1c10 0 18 13 18 29s-8 29-18 29c-11 0-19-13-19-29s8-29 19-29zM543 791l-44-15c10-58-28-114-86-125-42-7-84 11-108 46l-22-25c-4-5-9-6-15-5l-33 6c5-59-38-110-96-116-43-3-83 18-103 55l-45-15c-22-15-37 26-10 28l44 16c-11 57 27 113 85 124 48 9 96-15 117-60l38-7 26 30c-14 57 20 115 77 129 47 12 97-10 120-53l45 17c19 7 29-23 10-30zM201 687c-14 39-57 60-96 47-39-14-60-57-47-96 14-39 56-60 96-47 39 13 60 57 47 96zm244 14l-27 23-57-36c28-14 61-8 84 13zm-101-2l50 32-73 6c3-15 11-28 23-38zm24 126c-29-11-49-38-50-69l78-7-32 37c-8 9 6 21 14 12 13-13 26-31 38-45l17 36c5 11 22 4 17-8l-13-28 14 6c19 0 15-14 8-17l-22-10 20-17c39 59-21 135-89 110zm1111-547h439c15 0 27-11 27-26V-8c0-14-12-26-27-26h-439c-15 0-27 12-27 26v260c0 15 12 26 27 26zm448-26c0 5-4 9-9 9h-439c-5 0-9-4-9-9V16h457v236zm-96-266h90c8-2 8 13 0 11h-90c-9 0-9-11 0-11zm-240 0h220c9 0 9 12 0 11h-220c-9 1-9-11 0-11zm-27 1l4 4-4 5v-9zm-10 0v9l-4-4c1-2 3-3 4-5zm-23 5c0 4-4 7-8 7s-8-3-8-7c1-10 16-11 16 0zm-23 0c0 4-4 7-8 7s-8-3-8-7c1-10 16-10 16 0zm-23 0c0 4-4 7-8 7s-8-3-8-7c1-10 16-10 16 0zm135 232h156c54 0 70-74 22-96-7-15-21-25-37-28-10-35-46-55-80-45-18 5-33 18-41 35-23 3-41 19-46 41-42 27-23 92 26 93zm-13-84c2-24 21-37 43-37 8-26 37-41 63-33 19 6 33 23 35 43 18 0 33 8 39 26 37 13 29 69-11 70h-156c-39-1-48-55-13-69zm46 47c25-21 65-20 90 0 5 5 13-3 8-8-29-25-77-25-106 0-5 5 3 13 8 8zm80-43c6 0 11-4 11-11 0-6-5-11-11-11s-11 5-11 11c0 7 5 11 11 11zm-70 0c6 0 11-4 11-11 0-6-5-11-11-11s-11 5-11 11c0 7 5 11 11 11zm863 43c12 0 23 11 23 23 0 13-11 23-23 23-13 0-23-10-23-23 0-12 10-23 23-23zm126-100c-41 0-73 32-73 73 0 40 32 73 73 73 40 0 73-33 73-73 0-41-33-73-73-73zm34 85h-69c-16 0-16-25 0-25h69c16 0 16 25 0 25zm-225-16c-5 5-5 13 0 18s13 5 18 0c22-22 55-27 83-14 0-9 1-17 4-26-36-14-78-5-105 22zm148-75c-64-36-145-24-197 28-15 12 8 33 19 17 41-41 103-52 156-28 6-7 14-13 22-17zm-225 0c76-76 198-81 280-10 9 1 18 4 26 7 5-5 5-13 0-18-88-88-236-84-324 3-12 11 6 30 18 18zM986 60l44 32-31 28 44-2 2 46 30-42 106 25-90-63 10-129-53 107-62-2zm98-43l-6 73 46 32-54-13-15 21v-25l-23 1 17-15-24-18 31 2 28-58zm48 67c1 0 2 1 2 2v18l18 13 3-106c0-9-7-16-16-16h-32l-1 23c1-1 24 0 28 0 1 0 2 1 2 2v11c0 1-1 2-2 2h-27l-2 10 29 1c1 0 2 1 2 2v27c0 1-1 2-2 2l-33-1v8l3 2h28zM991 42v10h10V42c0-1 1-2 2-2l28 1c1 0 2 1 2 2v11h10V43c0-1 1-1 2-2h6l22-47-55-1-15 21-8 8-2 9c-1 2-2 2-3 2-1-1-3-1-4-1l-6 8h9c1 0 2 1 2 2zm45-32c1 0 2 0 3 1l4 11c0 1 0 2-1 2l-25 11c-2 1-3 0-3-1l-5-10c0-1 0-2 2-3 7-2 17-7 25-11zM581 241l299-33 11-18-140 15c-2 0-3-1-3-2l-3-26c0-1 1-3 2-3l162-18 7-11-11-2c-1 0-2-1-1-2l4-26c0-2 1-2 2-2l17 2-1-14-11-2c-1-1-2-2-1-3l6-25c1-2 2-2 3-2l7 2 5-10c0-1-1-1-1-2l-3-27c0-1 0-2 1-2 1-1 7-1 8-1l2-12-9-2c-2 0-2-1-2-2l2-11c0-1 1-2 2-2l15 2 15-25-408 46c-9 1-15 9-14 17l20 187c2 9 9 15 18 14zm-12-100l-3-26c-1-2 0-3 2-3l47-5c1 0 2 0 3 2l2 26c1 1 0 2-2 2l-47 6c-1 0-2-1-2-2zm4 42l-3-26c0-2 1-3 2-3l73-8c1 0 2 1 2 2h1l2 26c1 2 0 3-1 3h-1l-72 8c-2 0-3-1-3-2zM799 75l-27 3c-1 0-2 0-3-2l-2-26c-1-1 0-2 1-3l27-3c1 0 2 1 3 2l3 27c0 1-1 2-2 2zm21 8c1 0 3 1 3 2l3 27c0 1-1 2-2 2l-27 3c-1 0-2-1-2-2l-3-26c0-1 0-2 2-3l26-3zm-41 5c1 0 2 1 2 2l3 26c0 1-1 3-2 3l-27 3c-1 0-2-1-2-2l-2-27c-1-1 0-3 1-3l27-2zm-49-5c-1 0-2-1-2-2l-3-27c0-1 0-2 2-2l26-3c2 0 3 1 3 2l3 26c0 1-1 2-1 3l-28 3zm7 9c2 0 3 1 3 2l4 27c0 1-1 2-2 2l-27 3c-1 0-2 0-3-2l-2-26c-1-1 0-2 1-3l26-3zm-10 44c1 0 2 1 2 2l3 26c0 1-1 3-2 3l-26 3c-2 0-3-1-3-2l-3-27c0-1 1-2 2-2l27-3zm-54-6c-1 1-2 0-2-1l-3-27c0-1 0-2 2-2l26-3c1 0 3 0 3 2l3 26c0 1-1 2-2 3l-27 2zm13 10c1 0 2 1 2 2l3 27c0 1-1 2-2 2l-26 3c-2 0-3-1-3-2l-3-26c0-1 1-2 2-3l27-3zm-54-5c-1 0-2-1-2-2l-3-26c0-1 1-3 2-3l27-3c1 0 2 1 2 2l3 27c1 1 0 2-1 2l-28 3zm-52 89c-1 0-2-1-2-2l-3-26c0-2 1-3 2-3l42-5c1 0 2 1 2 2l4 27c0 1-1 2-2 3l-43 4zm56-6c-1 0-2-1-2-2l-3-27c0-1 1-2 2-2l42-5c1 0 2 1 2 2l3 26c1 1 1 3 0 3l-44 5zm56-7c-1 0-2 0-2-2l-3-26c0-1 1-2 2-3l42-4c1 0 2 1 2 2l5 27c0 1-1 2-1 2l-45 4zm80-48l-27 3c-1 0-2-1-2-2l-3-27c0-1 0-2 2-2l26-3c2 0 3 1 3 2l3 26c0 2-1 3-2 3zm14-2c-1 0-2 0-2-2l-3-26c0-1 0-2 2-3l26-2c2-1 3 0 3 1l3 27c0 1-1 2-2 2l-27 3zm41-4c-1 0-2-1-2-2l-3-27c0-1 1-3 2-3l27-3c1 0 2 1 2 2l3 27c0 1-1 2-2 2l-27 4zm6-72c-1-1 0-2 2-3l26-2c1-1 2 0 3 1l3 26c0 1-1 2-2 2l-27 3c-1 0-2 0-2-2l-3-25zm59 67c0 1-1 2-3 2l-26-6c-1-1-2-2-1-3l6-26c0-1 1-2 2-2l26 6c2 1 2 2 2 3l-6 26zm8-84c-1 0-3 0-3-1v-1l-10-24c0-1 0-3 1-3l25-10c2 0 3 0 3 1l10 25c0 1 0 2-1 2-1 2-22 9-25 11zM887 9l27-3c1 0 2 1 2 2l1 11c1 1 0 2-2 2l-26 3c-1 0-2 0-3-2l-1-11c0-1 1-2 2-2zm23 74c1 1 1 2 1 3l-12 24c-1 1-2 2-3 1l-24-11c-1-1-1-2-1-3l12-24c0-2 1-2 3-2 1 1 20 11 24 12zm-30-45l3 26c0 1-1 3-2 3l-27 3c-1 0-2-1-2-2l-3-27c-1-1 0-2 1-3h1l26-2c1-1 2 0 3 1v1zm-40-24l27-3c1 0 2 0 2 2l2 11c0 1-1 2-2 2l-27 3c-1 0-2-1-2-2l-2-11c0-1 1-2 2-2zm2 54c0 1-1 2-2 3l-27 2c-1 1-2 0-3-1l-2-27c-1-1 0-2 1-2l27-3c1 0 2 0 3 2l3 26zm-48-49l27-3c1 0 2 1 2 2l1 11c0 1 0 2-2 2l-26 3c-2 0-3 0-3-1-1-1-1-10-2-12 0-1 1-2 2-2h1zm-47 5l27-3c1 0 2 1 2 2l1 11c1 1 0 2-2 2l-26 3c-1 1-3 0-3-1 0-4-1-9-1-12 0-1 1-2 2-2zm-47 5l27-3c1 0 2 1 3 2l1 11c0 1-1 2-2 3l-27 2c-1 1-2 0-2-1l-2-11c0-2 1-3 2-3zm13 25c1 0 2 1 3 2l2 26c1 2 0 3-1 3l-27 3c-1 0-2-1-3-2l-3-26c0-2 1-3 2-3 0 0 24-3 27-3zm-32-23c1 0 2 1 2 2l1 11c0 1 0 3-2 3l-26 3c-1 0-3 0-3-1l-1-12c0-1 0-3 2-3l27-3zm-9 28c1-1 2 0 3 2l2 26c1 1 0 2-1 2l-27 3c-1 1-2 0-3-2l-3-26c0-1 1-2 2-3 1 0 23-2 27-2zm-38-22c1 0 2 1 2 2l1 11c1 1 0 2-2 2l-26 3c-1 0-2-1-3-2l-1-11c0-1 0-2 2-3l27-2zm-30 29l27-3c1 0 2 0 2 2l3 26c0 1 0 2-2 2v1l-26 2c-1 1-3 0-3-1v-1l-3-26c0-1 1-2 2-2zm-44-8l-2-11c0-1 1-2 2-3l27-3c1 0 2 1 2 2l2 11c0 2-1 3-2 3l-27 3c-1 0-2-1-2-2zm3 12l27-3c1 0 2 1 2 2l3 26c0 2 0 3-2 3l-26 3c-2 0-3-1-3-2l-3-26c0-2 1-3 2-3zm402 14l6 3c2 0 2 2 2 3-3 7-7 17-10 24-1 1-2 2-3 2-2-1-3-2-4-2v15l-8 25c0 2-2 2-3 2l-6-2-6 9h28c1 0 2 1 2 2v27c0 1-1 2-2 2l-50-2-11 17 234 6c9 0 17-7 17-15l1-52-18-4-5 17c-1 1-2 2-3 2-13-5-27-8-41-12-1-1-2-2-1-3 0-1 4-12 4-14l-10-2-1 2v21c0 1-1 2-2 2h-14l-8 9h22c1 0 2 1 2 3v26c0 1-1 2-2 2l-42-1c-1 0-2-1-2-2v-26c0-2 1-3 2-3h4v-10h-30c-1 0-2-1-2-2v-25h-11l1 23c0 1-1 2-2 2-8 0-18 1-27 2-1 0-2-1-2-2 0-8-1-18-2-27 0-1 1-2 2-2 6 0 14-1 20-1l7-7-16-20c-1-1-1-2-1-3 7-6 14-12 21-17l-2-1c-6-4-10-6-16-10l3 6h-8l-7 13zm123 84l42-2c1 0 2 1 2 2 0 9 1 18 1 27 0 1-1 2-2 2-13 0-28 1-42 2-1 0-2-1-2-2 0-9-1-18-2-27 0-2 3-2 3-2zm-115-2c0-1 1-2 2-2l42 1c1 0 2 1 2 2v26c0 2-1 2-2 2l-42-1c-1 0-2-1-2-2v-26zm-674 905h-53c-6 1-6 9 0 10h53c8 1 8-11 0-10zm-12 318c0 8-7 15-15 15s-14-7-14-15c0-19 29-19 29 0zm53-351H205c-19 0-34 15-34 34v326c0 19 15 34 34 34h135c19 0 34-15 34-34v-326c0-19-15-34-34-34zm-147 34c0-7 5-12 11-12h136c6 0 11 5 11 12v20H193v-20zm159 326c0 6-5 11-12 11H205c-7 0-12-5-12-11v-30h158l1 30zm-44-118l45 37c6 5-2 15-8 9l-48-39-30 61c-3 8-15 2-11-5l28-56-28 10c-8 3-13-9-5-12l31-11-87-54c-7-5 0-15 7-11l79 49-76-147c-4-8 7-13 11-6l78 151 23-103c3-8 16-5 14 4l-22 94 20-28c5-7 15 1 10 8l-24 32 33-16c8-4 13 8 5 11l-45 22zm1641 92h-8c1-2 1-5 1-8v-251c0-14-11-26-25-26h-424c-15 0-26 11-26 26v250c0 3 0 6 1 9h-8c-14 0-25 12-25 26v7c0 14 11 26 25 26h489c14 0 26-12 26-26v-7c-1-14-12-26-26-26zm-465-259c0-5 4-8 8-8h425c5 0 9 3 9 8v251c0 5-4 8-9 8h-424c-5 0-9-3-9-8v-251zm473 292c0 5-3 9-8 9h-489c-4 0-8-4-8-9v-7c0-5 3-8 8-8h489c5 0 8 3 8 8v7zm-263-285h41c5 0 5-8 0-8h-41c-5 0-5 8 0 8zm-11-4c0 4-3 7-6 7-4 0-7-3-7-7 0-8 13-8 13 0zm228 13h-413v211h413v-211zm-93 201l-200-100 21 42c5 8-8 15-12 6-8-16-17-33-25-50l-81 99c-6 9-18-1-11-8l72-89c-16 6-40 17-63 28-8 2-13-9-6-13 22-10 56-25 73-32l-74-62c-5-6 3-15 9-11l76 64 10-58c1-10 15-8 13 2l-8 56 24-4c10-2 12 12 3 14l-17 2 203 102c8 4 1 17-7 12zM600 1154c-1-5-9-4-14-2-17 5 16 12 14 2zm-51 187c-7 3 8 9 6 2 0-3-4-3-6-2zm68 26c-12 3-14 17-4 21 7 3 22-1 23-7 2-10-11-16-19-14zm440-212c-12-1-25-2-38-4-10-1-51 0-70-2l-8-1c-4-5-5-11-7-16-2-3-4-5-7-6-7-2-5-8 2-10 6-1 12-2 18-4 4-1 6-5 5-9-1-3-3-6-7-6-4-1-9 2-14 2-16 1-35-3-36-23 0-5 4-6 3-11s-7-3-7-6c-2-7 20-30 24-35 4-4 8-7 6-12-1-3-5-5-8-4-8 1-13 18-17 23-14 19-33 22-39 11-2-3-1-6-5-6-4-1-4 2-7 2-8 1-19-5-20-23 0-5 6-29-6-25-11 3 4 37-7 40-7 2-8-8-15-7-5 1-6 6-10 0-3-6-6-24-14-22-9 3 6 20 7 22 3 6 3 18-2 18-6 0-6-9-11-8-9 3 5 10 3 12-1 2-6-3-9-1-8 4 1 16 3 22 5 10 4 16-10 17h-2c-2 0-9-4-9 2 0 5 5 4 8 7 8 11 9 21-9 19-4-1-8-2-11-3l-92-65c-5-4-26-20-40-11-13 8-9 32-6 45 5 16 14 32 27 44 11 11 25 18 40 19 8 1 16 0 24-2 18-6 16-7 32-17l4-3c8 3 27 8 31 15 3 6 20 14-3 42 3 8 5 14 14 16 8 1 15-1 17-14l17-93 27 5-16 93c-2 20-19 35-39 34h-3l2 1c7 3 16 12 1 37-4 6-7 12-11 18-5 11-12 22-19 33l-11 16c-2 5-37 79-42 86-1 4-31 33-20 43 12 6 26-33 27-36 3-8 8-16 14-22 14-18 50-99 51-102 8-9 10-24 19-30 3-2 7-2 10-2v3l70 9c2-5 4-10 5-15 0-1 1 0 0-1-2-3-10-8-7-10l5 1 9 6c6 5 13 9 21 14 4 3 14 14 21 12 2-1 3-3 3-4 0-10-15-5-18-14-2-8 9-8 14-5 13 10 27 22 39 33 3 3 6 7 10 6 9-3-7-16-10-18-6-5-36-30-51-44-31 12-65-2-77-32l-1-1 25-9c6 24 41 29 44 11 4-23-56-27-48-73 9-41 70-36 81 1l-23 10c-4-16-26-22-31-7v1c-4 24 56 25 49 74-1 6-3 11-6 16 18 7 79 35 88 38 3 1 10 3 9-2 0-2 0-3-1-3h2c3-1 4-4 4-7l-5-22 5-1c3-1 7-2 10-4h1c24-14 35-27 32-39-4-16-30-19-36-20 9 0 13 2 15 2 11 0 22 1 33 3l14-6c-1-7-15-6-24-6zm-402-30c-19-6-34-20-42-37-5-9-13-38-6-44 4-2 15 4 23 11l56 40 20 15c-16 12-29 19-51 15zm362 50c9 1 22 5 23 9 2 12-35 27-46 29-23 3-48-3-62-22-3-6-5-13-6-20l-2-12 93 16zm-91-179c-9 5 9 12 5 1 0-1-2-2-5-1zm-210 161c0-2-3-2-4-2-5 3 5 6 4 2zm-43 130c2-6-4-10-9-8-11 5 5 18 9 8zm103-13c-3 1-9 8-8 12 2 3 14-6 11-11 0-1-2-1-3-1zm55 23c-1 0-2 2-2 3 0 3 1 4 2 4l-41-5c0 4 2 8 2 12-2 5-3 10-2 15 1 3 3 2 5 0 3 10 5 18 8 27l6 1 6 1c5-8 10-16 14-24l-33-6c3-3 5-6 6-10l33 4c2-4 4-9 7-14l-9-1c3-1 7-13-2-7zm-28 58c-4 2-13 26-5 26s16-15 10-25c-1-1-3-2-5-1zm-121-191c4-1 7-3 6-6-2-4-5-3-10-1h-1c-2 1-5 2-4 5 2 3 5 3 9 2zm230-95l1 1c1 1 3 1 5 0 10-7 21-14 33-18l1 1c4 2 9 1 12-3 2-5 1-10-3-12-4-3-10-2-12 2-1 1-1 3-2 4-12 5-24 11-35 20-1 1-2 4 0 5zm-198-50v-3c-1-5-6-8-11-6s-7 7-6 11c2 5 7 7 12 6h1c10 7 19 15 28 25 1 1 3 2 4 1l2-1c2-1 2-4 0-6-9-10-19-19-30-27zm74 266v4c3 6 7 3 9 0l49 6 6-15-65-8c0 4 1 9 1 13zm-57-69c2-1 5-4 9-8-5-4-9-8-13-14l-3 3-11 12c-26 26-79 78-87 86-6 5-71 62-80 66-3 2-11 9-9 14 2 6 15-4 16-5 16-12 116-106 129-117 16-12 33-26 49-37zm566-73l-4-3c-1-1-2-1-3 0l-21 20-22-21c-1-1-2-1-3 0s-3 3-3 4c-1 1-1 2 0 3l21 21-21 21c-1 1-1 2-1 3 1 1 3 3 4 3 1 1 2 1 3 1 7-8 14-15 22-22l21 22c1 0 2 1 3 0s2-3 3-4 1-2 0-3l-20-21 21-21v-3zm-1344-44c-4-5-11-5-14 0l-50 91c-3 5 1 12 7 12h99c6 0 10-7 7-12l-49-91zm1 90h-17v-14h17v14zm0-46l-3 28h-11l-3-28v-14h18l-1 14zm812-468l-3-3c-1-1-2-1-3 0l-22 21-21-21c-1-1-2-1-3 0-1 0-3 3-4 3-1 1 0 3 0 4l22 21-22 21c0 1-1 2 0 3s3 2 4 3c0 1 2 1 3 0l21-21 22 21c1 1 2 1 3 0 1 0 2-2 3-3s1-2 0-3l-21-21 21-22c1-1 1-2 0-3zM78 314l-3-4c-1 0-3-1-3 0l-22 21-21-21c-1-1-2-1-3 0-1 0-3 3-4 4s-1 2 0 3l21 21-21 21c-1 1-1 2 0 3l3 3c1 1 3 1 3 0 8-7 15-14 22-21l21 21c1 1 3 1 4 0l3-3c1-1 1-2 0-3l-21-21 21-22c1 0 1-2 0-2zm2120-143l-3-4c-1 0-2-1-3 0l-22 21-21-21c-1-1-2-1-3 0-1 0-3 3-4 4s-1 2 0 3l21 21-21 21c-1 1-1 2 0 3s3 2 3 3c1 1 3 1 4 0l21-21 21 21c1 1 3 1 4 0 1 0 2-2 3-3s1-2 0-3l-21-21 21-22c1 0 1-2 0-2zm387 715l-3-3c-1-1-3-1-3 0l-22 20-21-21c-1-1-3-1-3 0l-4 4c-1 1-1 2 0 3l21 21-21 21c-1 1-1 2 0 3s2 3 3 4h3c7-8 15-15 22-22l21 22c1 1 3 1 3 0l4-4c1-1 0-2 0-3l-21-21 21-21c1-1 1-2 0-3zM573 391c-3-5-11-5-14 0l-50 91c-3 5 1 12 7 12h99c6 0 10-7 7-12l-49-91zm1 91h-16v-14h16v14zm0-47l-3 28h-11l-3-28v-14h18l-1 14zM86 2466v-338h-338v338H86zm435 500c0-34 7-83-26-102 33-18 26-68 26-102 0-35-4-64 41-63v-18h-3c-44-1-62 20-62 63v73c1 21-14 39-36 38v19c22-1 37 17 36 38v73c0 46 18 63 65 63v-19c-45 2-41-28-41-63zm295-222c0-43-18-64-62-63h-4v19c46-2 42 27 42 62 0 34-8 83 26 102-15 9-22 21-24 38-5 29-1 64-3 94-1 26-16 33-41 33v18c46 0 66-15 65-63v-73c0-21 15-39 37-38v-18c-11 0-19-5-28-12-14-10-8-82-8-99zm-51 142v-106l-56-60H571c-14 1-25 12-25 26v236c0 14 11 26 25 26h48c-1 0 70 63 134-2 32-32 37-83 12-120zm119-616l-3-1c-2-2-5-4-8-5-2-1-5-2-8-3-8-21-26-36-48-40l6-94c0-2 0-3-1-4l-50-65c12-2 23-7 33-13-3 12 11 21 20 13l8-7 7 8c7 9 21 4 22-7 0-7-6-12-10-16l8-7c13-11-4-30-16-19l-8 6-7-8c-10-12-29 4-19 16-11-16-56-25-81-30 3-8-1-17-9-21-12-4-24 5-23 17-18-2-37-3-57-4-28-1-55-1-82 1l3-3c10-8-2-23-12-15l-6 4-4-5c-8-9-23 3-15 13l4 5-6 6c-47 8-57 20-58 28 0 8 12 19 36 27 1 7 8 13 15 12 5-1 9-4 11-9v154c-64 14-96 42-95 84-2 1-4 3-6 4l-2 1c-6 2-9 7-7 13 0 4-1 6 2 10-1 3-1 6 2 9v3c1 2 3 4 5 5 3 1 7 0 9-2l6-3c0 3 1 7 3 10s6 6 10 6c1 0 2 0 3-1l2-1c4-3 2-8 1-11v-3c1-2 1-4 2-6 0-2 0-4 1-6 1-3 1-6 1-9 0-10-5-22-16-24h-6c2-32 29-53 83-65v185c-1 9 8 17 17 17l100-10v37c-5 1-9 3-9 5s7 6 14 6c8 0 14-3 14-6s-2-4-6-5v-39l17-1v31c-4 1-7 3-7 5 0 3 7 7 14 7 8 0 14-3 14-7 0-3-3-5-8-6 1-8 1-23 0-32l104-10c9 0 17-7 18-16 5-48 7-97 10-145 16 4 29 14 36 28-3 2-5 4-7 7-3 5-4 10-4 14s0 7 1 9c2 6 2 11 0 16-2 6-1 12 6 13 8-1 12-8 13-15 0-1 0-2 1-3 2 2 5 3 8 5s6 2 9 1c4-1 6-4 5-8 3-2 4-5 3-9 2-2 2-6 1-9 0-5 2-8-4-13zm-280-129l-4 10c-3 8 9 13 12 5l4-10 9 4c8 3 13-9 5-12l-9-4 3-9c4-8-9-13-12-5l-4 9-9-3c-8-4-13 8-5 12l10 3zm73-7l10 4-4 10c-3 7 9 12 12 4l4-9 9 4c8 3 13-9 5-12l-9-4 4-10c3-8-9-12-12-5l-4 10-10-4c-8-3-13 9-5 12zm104 133H571c-7 0-7 10 0 10h210c6 0 6-10 0-10zm0 29H571c-7 0-7 10 0 10h210c6 0 6-10 0-10zm-109 23H571c-7 0-7 11 0 11h101c7 0 7-11 0-11zm-196-243l-5 4-4-5c-9-10-24 2-15 13l4 5-5 4c-10 9 3 24 13 15l5-4 4 5c9 10 24-3 16-13l-5-5 5-4c10-9-3-24-13-15zm305 281c-1-1-2-1-3-1l-3-2-3-1-3-1s-1 0-1-1c-1 0-1-1-1-2v-2s0-1 1-1h7l2 1 1 1h2l2-3c-1-1-3-2-5-2-1-1-3-2-6-2h-5c-1 0-2 1-3 2l-3 3c0 1-1 2-1 3 0 2 1 3 1 4 1 1 1 2 2 3s2 1 3 2h3l3 1 3 1s1 1 2 1v2c0 2 0 3-1 4-2 1-3 1-5 1h-3l-2-1-2-1h-2l-2 4s1 1 2 1l3 1h7c2 0 3 0 5-1s3-2 4-3l3-3c0-1 1-2 1-4 0-1-1-2-1-3-1 0-1-1-2-1zm-34 6c1 1 1 2 0 3 0 1 0 2-1 3 0 1-1 1-2 2h-5c0-1-1-1-1 0v5h5c2 0 4-1 6-2 1 0 2-1 3-3 1-1 2-2 3-4v-28l-7-1-1 25zm-154-149l14-11 13 11c3 3 7 3 11 0l13-11 13 11c3 3 8 3 11 1l13-12 13 12c3 2 7 2 10 0l13-12 13 12c7 6 16-5 9-11l-17-16c-3-2-7-2-11 0l-12 11-12-11c-4-2-8-2-11 0l-14 12-13-12c-3-2-7-2-11 0l-13 12-13-12c-3-2-8-2-11 0l-17 15c-7 7 2 18 9 11zm-851-324h440c15 0 27-11 27-26v-260c0-14-12-26-27-26h-440c-14 0-26 12-26 26v260c0 15 12 26 26 26zm142-54H40c54 0 70-74 21-96-7-15-20-25-36-28-10-35-46-55-80-45-19 5-34 18-42 35-22 3-40 19-45 41-42 27-23 92 26 93zm33-37c25-20 65-20 90 0 5 6 13-3 8-8-29-25-77-25-106 0-5 5 3 13 8 8zm80-43c6 0 11-4 11-11 0-6-5-11-11-11s-11 5-11 11c0 7 5 11 11 11zm-70 0c6 0 11-4 11-11 0-6-5-11-11-11s-11 5-11 11c0 7 5 11 11 11zm863 43c12 0 22 11 22 23 0 13-10 23-22 23-13 0-23-10-23-23 0-12 10-23 23-23zm125-100c-40 0-73 32-73 73 0 40 33 73 73 73 41 0 73-33 73-73 0-41-32-73-73-73zm-190 69c-5 5-5 13 0 18s13 5 18 0c22-22 55-27 83-14 0-9 1-17 4-26-37-14-78-5-105 22zm148-75c-65-35-145-24-197 28-15 12 7 33 18 17 42-41 104-52 157-28 6-7 14-12 22-17zm-226 0c77-76 199-81 280-10 10 1 18 4 27 7 5-5 5-13 0-18-89-88-237-84-324 3-12 11 6 30 17 18zM213 2984h-9c1-2 2-5 2-8v-251c0-14-11-26-25-26h-425c-14 0-25 11-25 26v250c0 3 0 6 1 9h-8c-14 0-26 12-26 26v7c0 14 12 26 26 26h489c14 0 25-12 25-26v-7c0-14-11-26-25-26zm-255-252h41c5 0 5-8 0-8h-41c-6 0-6 8 0 8zm-11-4c0 4-3 7-7 7-3 0-6-3-6-7 0-8 13-8 13 0zm228 13h-413v211h413v-211zm287-958l-3-4c-1 0-3-1-3 0l-22 21-21-21c-1-1-3-1-3 0-1 0-3 3-4 4s-1 2 0 3l21 21-21 21c-1 1-1 2 0 3l3 3c1 1 2 1 3 0 7-7 15-14 22-21l21 21c1 1 3 1 3 0 1 0 3-2 4-3s0-2 0-3l-21-21 21-22c1 0 1-2 0-2zm387 715l-4-3c0-1-2-1-3 0l-21 20-22-21c0-1-2-1-3 0s-2 3-3 4-1 2 0 3l21 21-21 21c-1 1-1 2 0 3 0 1 2 3 3 4 1 0 2 1 3 0 7-7 15-14 22-22l21 22c1 1 2 1 3 0l3-3c1-1 1-3 0-4l-20-21 21-21v-3zm-541-27c-4-6-13-6-16 0l-57 104c-4 6 1 14 8 14h113c7 0 11-8 8-14l-56-104zM2044 859c-4-6-13-6-16 0l-57 104c-3 6 1 14 8 14h113c7 0 12-8 8-14l-56-104zm1 104h-19v-16h20l-1 16zm0-53l-3 31h-12l-4-32v-16h20l-1 17zM309 2575h-19v-16h19v16zm0-53l-3 31h-13l-3-32v-16h20l-1 17zM82 2942l-201-100 22 42c5 8-8 15-12 6-9-16-17-33-26-50l-81 99c-5 9-18-1-10-8l72-89c-16 6-41 17-63 28-8 2-13-9-6-13 21-10 56-25 73-32l-74-62c-6-6 2-15 9-11l76 64 9-58c2-10 16-7 14 2l-9 56 25-4c9-2 12 12 3 14l-17 2 202 102c9 4 2 17-6 12zm-335-217c0-5 4-8 9-8h425c5 0 8 3 8 8v251c0 5-3 8-8 8h-425c-4 0-8-3-8-8l-1-251zm474 292c0 5-4 9-8 9h-489c-5 0-8-4-9-9v-7c0-5 4-8 9-8h489c4 0 8 3 8 8v7zm729-1233h-69c-16 0-16-25 0-25h69c16 0 16 25 0 25zm-1079-32c1-24 20-37 43-37 8-26 36-41 63-33 19 6 33 23 35 43 18 0 33 9 38 26 38 13 29 69-10 70h-156c-39-1-48-55-13-69zm319 112c0 5-4 9-9 9h-439c-5 0-9-4-9-9v-236h457v236zm-96-266h90c9-2 9 13 0 11H94c-8 0-8-11 0-11zm-240 0H75c9 0 9 12 0 11h-221c-8 1-8-11 0-11zm-26 1l4 4-4 5v-9zm-10 0v9l-4-4c1-2 3-3 4-5zm-23 5c0 4-4 7-8 7s-8-3-8-7c0-10 16-10 16 0zm-23 0c0 4-4 7-8 7s-8-3-8-7c0-10 16-10 16 0zm-23 0c0 4-4 7-8 7s-8-3-8-7c0-10 16-10 16 0zm777 439c-2-7-10-10-18-8-2 1-5 3-6 6-12-5-16-9-16-12 0-21 142-20 154-19 36 1 73 5 109 12 34 8 42 15 42 19 0 3-6 8-24 12l-20-26c-1-2-3-3-5-3H544c-12 0-18 9-18 19zm268 335c-1 2-2 4-4 4l-170 17-46 4c-18 2-28-4-29-16 0-115-6-230-6-346 0-3 2-5 5-5h195l3 4-6 51c-1 12 7 22 18 24l51 6 6 7-17 250zm-194 604h-28v-236h121v52h49v63s-78-50-132 19c-38 50-10 102-10 102zm69-106h37v28l-7 58h-23l-7-58v-28zm1 95h35v30h-35v-30zm-711-647c0-50 70-57 91-17l-24 16c-7-18-34-20-36-2-3 30 69 18 69 74 0 53-84 62-110 12l26-15c12 26 53 25 53 4 0-27-69-19-69-72zm-96 71c13 23 38 24 38-3v-108h31v108c7 54-74 66-95 19l26-16z" fill="#2b2c43" fill-rule="nonzero"/>
  </g>
  <g id="txt_main">
    <path class="logo_w" d="M664 389c31 0 55 6 71 17 17 11 25 28 25 52 0 14-3 26-10 35-6 9-16 17-29 22 4 5 9 11 13 18 5 6 10 13 14 21 5 7 9 15 13 22l12 24h-52l-12-21c-4-7-8-14-12-20-4-7-8-13-12-19s-8-11-12-16h-23v76h-47V395c10-2 21-4 31-4 11-1 21-2 30-2zm2 40c-3 0-6 0-9 1h-7v57h13c17 0 30-3 38-7 7-4 11-12 11-23 0-10-4-17-12-21-7-5-19-7-34-7zm119 93c0-14 2-26 6-37 5-10 10-19 17-26s15-12 24-16c10-4 19-5 28-5 23 0 41 7 54 20 13 14 19 34 19 61v8c0 3-1 6-1 8H831c1 10 5 17 13 22 7 6 17 8 30 8 8 0 17 0 24-2 8-1 15-3 20-5l6 36c-3 1-6 2-10 4-4 1-8 2-13 3s-10 1-16 2-11 1-17 1c-14 0-26-2-37-6-10-5-19-10-26-18-7-7-12-16-15-26s-5-20-5-32zm105-17c0-4-1-8-2-11-1-4-3-7-5-10s-5-5-9-7c-3-2-8-2-13-2s-9 0-13 2c-3 2-6 4-9 7-2 3-4 6-5 10-2 3-3 7-3 11h59zm123 63c8 0 14-1 17-3 4-1 5-5 5-9s-2-7-6-10c-5-2-11-5-20-9-7-2-14-5-19-8-6-3-11-6-15-10s-7-8-9-14c-2-5-4-12-4-19 0-15 6-27 17-35 11-9 26-13 45-13 10 0 19 1 28 2 9 2 16 4 21 6l-8 35c-5-2-11-4-17-5-6-2-13-2-20-2-14 0-21 4-21 11v5c1 2 2 3 4 4 2 2 4 3 7 4 4 2 7 4 12 5 10 4 18 8 25 11 6 4 11 8 15 12 3 4 6 8 8 13 1 5 2 11 2 18 0 15-6 27-18 35-11 8-28 12-49 12-14 0-26-1-35-4-10-2-16-4-20-6l8-36c7 3 15 5 23 7s16 3 24 3zm93-47c0-12 1-22 5-32 4-11 9-19 16-27 7-7 16-13 26-18 10-4 21-6 34-6 8 0 16 0 23 2 7 1 14 4 20 6l-9 36c-4-2-9-3-14-4s-10-2-17-2c-13 0-23 4-29 12-7 9-10 19-10 33s3 25 9 33 17 11 32 11c6 0 11 0 18-1 6-1 12-3 17-5l6 37c-5 2-12 4-19 5-8 2-17 3-26 3-15 0-27-2-37-7-11-4-19-10-26-17-7-8-12-16-15-26s-4-21-4-33zm292 73c-8 2-18 5-30 6-12 2-24 3-37 3-14 0-25-2-34-5-9-4-16-9-21-15-5-7-9-15-11-24s-3-18-3-29v-88h44v82c0 15 2 25 6 32 4 6 11 9 21 9h10c4-1 7-1 10-1V442h45v152zm34-72c0-14 2-26 7-37 4-10 10-19 17-26s15-12 24-16 18-5 28-5c22 0 40 7 53 20 13 14 19 34 19 61v16h-102c1 10 5 17 13 22 8 6 18 8 31 8 8 0 16 0 24-2 8-1 14-3 19-5l6 36c-2 1-5 2-9 4-4 1-9 2-14 3s-10 1-16 2c-5 1-11 1-16 1-15 0-27-2-37-6-11-5-20-10-26-18-7-7-12-16-16-26-3-10-5-20-5-32zm105-17c0-4-1-8-2-11-1-4-2-7-5-10-2-3-5-5-8-7-4-2-8-2-14-2-5 0-9 0-12 2-4 2-7 4-9 7-3 3-5 6-6 10-1 3-2 7-3 11h59zM858 813l24-42c8-14 15-29 21-43h52c-12 22-24 44-36 65s-25 42-39 63v80h-46v-79c-14-21-27-42-39-64-13-21-24-43-36-65h55c6 14 13 29 20 43 8 14 15 28 24 42zm240 44c0 12-2 24-5 34-4 10-9 19-16 26-7 8-15 13-24 17-10 4-20 6-32 6s-22-2-32-6c-9-4-17-9-24-17-7-7-12-16-16-26s-6-22-6-34c0-13 2-24 6-34s9-19 16-26 15-13 25-17c9-4 20-6 31-6s22 2 31 6c10 4 18 10 25 17 6 7 12 16 16 26 3 10 5 21 5 34zm-45 0c0-14-3-25-9-33-5-8-13-12-23-12s-18 4-24 12c-5 8-8 19-8 33s3 25 8 33c6 8 14 12 24 12s18-4 23-12c6-8 9-19 9-33zm214 74c-7 2-17 4-29 6s-25 3-38 3-24-2-33-6c-9-3-16-8-21-15-6-6-9-14-11-23-3-9-4-19-4-30v-88h45v83c0 14 2 24 6 31 3 6 11 9 21 9h10c4 0 7-1 10-1V778h44v153zm138-113c-4-1-9-2-15-3-5-1-11-2-17-2-3 0-6 0-10 1-4 0-7 1-9 1v121h-45V787c8-3 18-6 29-8 11-3 23-4 36-4h9c3 1 7 1 10 2 4 0 7 1 10 1 4 1 7 2 9 3l-7 37zm-931 384c0 11-2 20-4 29s-6 17-12 24c-6 6-13 12-23 16s-22 5-37 5c-13 0-25-1-35-4-10-4-18-8-24-12l16-36c5 3 12 6 18 9 7 2 14 4 22 4 11 0 19-3 24-9 5-5 8-15 8-28v-136h47v138zm102 39h13c4 0 7-1 9-1v-34c-2 0-4-1-8-1-4-1-7-1-10-1-4 0-8 0-12 1-3 0-7 1-9 3-3 1-5 3-7 5-2 3-2 6-2 9 0 7 2 12 7 15 4 3 11 4 19 4zm-4-131c14 0 25 2 33 5 9 3 16 7 21 13 6 5 10 12 12 20s3 17 3 27v93c-6 1-15 3-27 5-11 2-25 3-41 3-10 0-20-1-28-3s-15-5-21-9-11-9-14-16-5-15-5-24c0-10 2-17 6-24 3-6 8-11 15-15 6-4 13-7 21-8 8-2 16-3 25-3 6 0 11 0 15 1 5 0 8 1 11 2v-4c0-8-2-14-7-19-4-4-12-7-24-7-7 0-15 1-22 2-8 1-14 3-19 5l-6-36c2-1 6-2 10-3 3-1 8-1 12-2 5-1 10-1 15-2 5 0 10-1 15-1zm149 162c-10-20-21-43-31-70-11-27-21-56-30-88h47c2 8 4 17 7 26l9 27c2 10 5 19 8 28l9 24c2-8 5-16 8-24 3-9 6-18 9-28l9-27c2-9 5-18 7-26h46c-10 32-19 61-30 88s-21 50-31 70h-37zm179-31h13c4 0 7-1 9-1v-34c-2 0-4-1-8-1-4-1-7-1-10-1-4 0-8 0-12 1-3 0-7 1-9 3-3 1-5 3-7 5-2 3-2 6-2 9 0 7 2 12 7 15 4 3 11 4 19 4zm-4-131c14 0 25 2 33 5 9 3 16 7 21 13 6 5 10 12 12 20s3 17 3 27v93c-6 1-15 3-27 5-11 2-25 3-41 3-10 0-20-1-28-3s-15-5-21-9-11-9-14-16-5-15-5-24c0-10 2-17 6-24 3-6 8-11 15-15 6-4 13-7 21-8 8-2 16-3 25-3 6 0 11 0 15 1 5 0 8 1 11 2v-4c0-8-2-14-7-19-4-4-12-7-24-7-7 0-15 1-22 2-8 1-14 3-19 5l-6-36c2-1 6-2 10-3 3-1 8-1 12-2 5-1 10-1 15-2 5 0 10-1 15-1zm169 127c7 0 12-1 17-2 4-1 7-3 10-5 3-1 4-4 5-6 1-3 2-6 2-9 0-7-3-12-10-17-6-4-17-9-33-15-7-2-13-5-20-8s-13-7-18-11c-6-5-10-11-14-18-3-6-5-14-5-24s2-18 6-26c3-8 8-14 15-20 7-5 15-9 24-12s20-4 32-4c14 0 26 1 36 4s19 6 25 10l-13 37c-6-3-13-6-20-8s-15-4-25-4c-11 0-20 2-24 5-5 3-8 8-8 14 0 4 1 7 3 10s4 5 8 7c3 2 7 4 11 6 4 1 9 3 14 5 11 4 20 8 28 12s15 8 20 13c6 6 10 12 12 19 3 7 4 15 4 25 0 20-7 35-20 45-14 11-34 16-62 16-9 0-17 0-25-1-7-1-14-3-19-4-6-2-11-4-15-5l-10-5 13-38c6 4 14 7 23 10 9 2 20 4 33 4zm108-44c0-11 1-22 5-32s9-19 16-26c7-8 16-14 26-18 10-5 21-7 34-7 8 0 16 1 23 3 7 1 14 3 20 6l-9 36c-4-2-9-3-14-5-5-1-10-1-16-1-14 0-24 4-30 12-7 8-10 19-10 32 0 15 3 26 9 33 6 8 17 12 32 12 6 0 12 0 18-1s12-3 17-5l6 36c-5 3-12 4-19 6-8 2-17 2-26 2-15 0-27-2-37-6-11-4-19-10-26-18-7-7-12-16-15-26s-4-21-4-33zm252-39c-4-1-8-2-14-3-5-1-11-2-17-2-3 0-6 1-10 1-4 1-7 1-9 2v120h-45v-149c8-3 18-6 28-8 11-3 24-4 37-4 2 0 5 0 9 1 3 0 6 0 10 1 3 0 7 1 10 2 3 0 6 1 9 2l-8 37zm76 118h-44v-158h44v158zm5-203c0 8-3 15-8 19-6 5-12 7-19 7s-14-2-19-7c-5-4-8-11-8-19s3-15 8-19c5-5 12-8 19-8s13 3 19 8c5 4 8 11 8 19zm138 126c0-14-3-25-9-34-6-8-15-12-27-12h-12c-3 1-6 1-8 1v81c3 2 7 3 11 5 5 1 9 1 14 1 21 0 31-14 31-42zm46-2c0 13-1 24-4 34s-8 18-14 25c-5 8-13 13-21 17-9 4-19 6-30 6-6 0-12 0-17-2-6-1-11-2-16-5v60h-45v-208c4-1 9-2 14-4 5-1 11-2 17-2 5-1 11-2 17-2 6-1 11-1 17-1 13 0 24 2 35 6 10 4 19 9 25 16 7 7 13 16 17 26 3 10 5 22 5 34zm33-118l45-7v46h53v38h-53v55c0 10 1 17 5 23 3 5 10 8 20 8 4 0 9 0 15-1 5-1 9-2 13-4l7 35c-6 2-12 4-18 5-7 2-15 3-25 3-12 0-22-2-30-5s-14-8-19-14-8-13-10-21c-2-9-3-18-3-28v-133z"/>
    <g id="tjs_logo">
      <path class="logo_w" d="M702 2442h-80c-7 0-14 7-14 15v136c0 8 7 15 14 15h98c7 0 14-7 14-15v-116l-32-35zm-80 151v-136h70v30h28v106h-98z"/>
      <path class="logo_w" d="M578 2525c3 1 5 3 7 5 1 2 3 4 4 7 2 2 3 6 3 9 1 4 1 9 1 14v23c0 7 0 13 1 17 0 5 1 9 2 11 2 3 4 5 7 6 4 1 8 2 14 2v11h-2c-7 0-12-1-17-3-5-1-8-3-11-6s-4-7-6-12c-1-4-1-10-1-15v-42c0-3-1-5-1-8-1-2-2-5-4-7s-4-4-7-5c-2-1-5-2-9-2v-10c4 0 7-1 9-2 3-1 5-3 7-5s3-4 4-7c0-3 1-5 1-8v-42c0-6 0-11 1-15 2-5 3-8 6-12 3-3 6-5 11-6 5-2 10-3 17-3h2v11c-6 0-10 1-14 2-3 1-5 3-7 6-1 2-2 6-2 11-1 4-1 10-1 17v23c0 5 0 10-1 14 0 4-1 7-3 10-1 2-3 5-4 6-2 2-4 4-7 5zm186 0c-2 1-5 3-6 5-2 2-4 4-5 7-2 2-3 6-3 9-1 4-1 9-1 14v23c0 7 0 13-1 17 0 5-1 9-2 11-2 3-4 5-7 6-4 1-8 2-14 2v11h2c7 0 12-1 17-3 5-1 8-3 11-6s5-7 6-12c1-4 1-10 1-15v-42c0-3 1-5 1-8 1-2 3-5 4-7 2-2 4-4 7-5 2-1 6-2 9-2v-10c-3 0-7-1-9-2-3-1-5-3-7-5-1-2-3-5-4-7 0-3-1-5-1-8v-42c0-6 0-11-1-15-1-5-3-8-6-12-3-3-6-5-11-6-5-2-10-3-17-3h-2v11c6 0 10 1 14 2 3 1 5 3 7 6 1 2 2 6 2 11 1 4 1 10 1 17v23c0 5 0 10 1 14 0 4 1 7 3 10 1 2 3 5 5 6 1 2 4 4 6 5z"/>
      <path class="logo_or" d="M687 2516c31 0 55 24 55 54 0 31-24 55-55 55-30 0-54-24-54-55 0-30 24-54 54-54z"/>
      <path class="logo_w" d="M678 2535h21v16l-4 33h-13l-4-33v-16zm1 54h20v17h-20v-17zM926 2464v24h-39v103h-28v-103h-38v-24h105zm55-2c19 0 34 4 44 11 10 6 15 17 15 31 0 9-2 16-6 22-4 5-10 10-17 13 2 3 5 7 8 11 2 4 5 8 8 13 3 4 5 9 8 14 2 4 5 9 7 14h-32c-2-4-5-9-7-13s-5-8-7-12c-3-4-5-8-8-12-2-3-5-6-7-10h-14v47h-29v-125c6-2 13-2 19-3 6 0 12-1 18-1zm2 25h-10v35h8c11 0 18-2 23-4 5-3 7-8 7-14s-3-11-7-13c-5-3-12-4-21-4zm174 104c-1-5-3-9-4-14-2-4-4-9-5-14h-50c-1 5-3 10-5 14-1 5-3 9-4 14h-30c5-13 9-26 14-38l12-33c4-10 8-20 12-29s8-18 13-27h27c9 18 17 37 25 56 4 10 8 21 12 33 5 12 9 25 14 38h-31zm-34-98c-1 1-2 4-3 7-3 8-6 17-9 25-2 5-4 10-6 16h36c-2-6-4-11-6-16-1-5-3-9-5-14-1-4-3-7-4-11-1-2-2-5-3-7zm135 100c-21 0-37-5-48-17-10-11-16-28-16-49 0-10 2-20 5-28s8-15 14-21c5-5 12-10 20-13s17-4 26-4c5 0 10 0 15 1 4 1 8 2 11 3 4 1 6 2 9 3 2 1 3 2 4 3l-8 23c-4-2-8-4-14-6-5-1-11-2-17-2-5 0-9 1-13 2-4 2-8 4-11 7-4 4-6 8-8 13s-3 11-3 19c0 6 1 11 2 16s3 10 6 13c3 4 7 7 11 9 5 2 11 3 17 3 4 0 8 0 11-1 3 0 6-1 9-1 2-1 5-2 7-3 2 0 3-1 5-2l8 23c-4 2-10 4-17 6s-16 3-25 3zm135-2c-2-5-5-9-9-14-3-5-7-9-11-14s-8-10-13-14c-4-4-8-8-13-12v54h-29v-127h29v48c8-8 15-16 23-25 7-8 14-16 21-23h33c-8 10-17 20-26 29-9 10-18 20-27 29 10 9 20 19 29 30 10 12 19 25 27 39h-34z"/>
      <path class="logo_or" d="M1501 2544c0 7 0 14-2 20s-5 11-8 15c-4 4-9 8-14 10-6 2-12 3-19 3h-10c-3-1-6-1-10-2l2-15c0-1 0-2 1-3s2-1 4-1h4c2 1 4 1 6 1 4 0 7-1 10-2 2-1 5-2 6-4 2-3 4-5 4-9 1-3 2-8 2-13v-86h24v86zm98-62c0 2-1 3-2 3-1 1-2 1-3 1s-3 0-4-1c-2-1-4-2-6-4-2-1-4-2-7-3s-6-1-10-1c-3 0-6 0-9 1-2 1-4 2-6 4-2 1-3 3-4 5s-1 4-1 7 0 5 2 7 4 4 7 6c3 1 6 2 10 4 4 1 7 2 11 3 4 2 8 3 11 5 4 2 7 4 10 7 3 2 5 5 7 9s3 9 3 14c0 6-1 12-3 17s-5 10-9 14-9 7-15 9c-5 2-12 3-19 3-4 0-9 0-13-1l-12-3c-3-2-7-4-10-6s-6-4-9-7l7-12c1-1 2-2 3-2 1-1 2-1 3-1s3 1 5 2 4 3 6 4c3 2 5 3 9 4 3 1 7 2 11 2 7 0 13-2 17-5s6-8 6-14c0-4-1-7-3-9s-4-4-7-5c-3-2-6-3-10-4s-7-2-11-3c-4-2-8-3-11-5-4-2-7-4-10-7-3-2-5-6-7-10s-3-9-3-15c0-5 1-10 3-14 2-5 5-9 9-12 4-4 8-7 13-9 6-2 12-3 19-3 8 0 15 1 21 4 7 2 13 5 17 10l-6 11z"/>
    </g>
  </g>
  <g id="but">
    <rect x="383" y="1583" width="1402" height="581" rx="20" ry="20" fill="#eb503e">
      <animate id="but_blick" attributeType="CSS" attributeName="fill" values="#EB503E;#FF523E;#EB503E;#EB503E" begin="0.4s;but_blick.end" dur="2.1s" keyTimes="0;0.07;0.5;1"/>
    </rect>
    <path d="M639 1839v-137h91v26h-60v29h54v25h-54v57h-31zm140 0h-29v-104h29v104zm3-134c0 10-7 17-18 17-10 0-17-7-17-17s7-17 17-17c11 0 18 7 18 17zm25 34c28-9 78-13 87 22 2 6 2 12 2 19v59h-29c0-14 2-66-4-75-5-8-19-7-27-5v80h-29v-100zm141 47c0 24 13 33 37 29v-53c-19-12-37-1-37 24zm66 49c-32 10-79 12-92-25-5-14-5-32-1-45 9-29 37-39 64-28v-46l29-5v149zm77 1v-132c26-5 81-10 97 17 9 15 4 34-12 44 29 11 30 49 7 65-21 14-67 12-92 6zm30-57v35c11 2 28 2 38-3 11-5 12-22 1-28-9-5-28-4-39-4zm0-23c10 0 27 1 35-4s9-19 0-23c-8-4-26-4-35-3v30zm189 79c-41 12-90 6-90-42v-58h30v54c0 26 8 29 30 26v-80h30v100zm52-52c0 24 18 31 35 21v-47c-20-3-35 3-35 26zm65 43c0 52-48 58-90 44l6-25c20 8 57 14 54-18-16 8-41 6-53-8-13-14-15-39-8-56 14-36 60-34 91-24v87zm72-16c0-15-48-9-48-46 0-36 48-36 72-26l-5 22c-8-2-38-10-38 4 0 16 48 8 48 46 0 37-56 36-80 25l5-24c8 3 46 14 46-1zm-522 249c-18-31-38-62-62-89v89h-30v-136h25c23 23 44 53 62 80v-80h30v136h-25zm101 3c-32 0-51-24-51-55 0-30 20-54 51-54 68 0 68 109 0 109zm21-55c0-13-5-29-21-29s-21 16-21 29c0 14 5 30 21 30s21-16 21-30zm113-7c-5 20-11 40-17 59h-23c-14-32-25-69-35-103h31c5 22 10 45 17 68 6-23 12-46 17-68h22c5 22 10 45 17 68 6-23 11-45 16-68h31c-10 34-21 71-35 103h-22c-7-19-13-39-19-59z" fill="#fff" fill-rule="nonzero"/>
  </g>
  <g id="guy_back" opacity=".1">
    <g>
      <ellipse cx="2920" cy="1578" rx="939" ry="1325" fill="url(#id1)"/>
      <path id="func" d="M2075 1389v-14c33 0 11-53 11-73 0-34 23-42 52-42 0 9 2 15-8 15-52 0 13 93-37 107 49 13-15 106 37 106 10 0 8 7 8 16-21 0-41-3-49-26-10-28 23-89-14-89zm152 0v-14c-32 0-11-53-11-73 0-34-22-42-51-42 0 9-3 15 8 15 52 0-13 93 36 107-48 13 16 106-36 106-11 0-8 7-8 16 20 0 40-3 48-26 10-28-22-89 14-89z"/>
      <path id="errors" d="M3297 329v10h-46v33h37v10h-37v33h46v11h-60v-97h60zm17 97v-69c4 0 10-1 11 3v11c6-11 18-20 31-13-1 3-1 11-4 11-12 0-19-4-26 13v44h-12zm54 0v-69c14 0 11 0 12 14 5-11 18-20 30-13-1 6 0 13-6 10-11-3-20 5-23 14v44h-13zm83-70c21 0 32 15 32 35 0 21-11 36-32 36s-33-15-33-36c0-20 11-35 33-35zm0 61c15 0 20-12 20-26 0-13-5-25-20-25-16 0-21 12-21 25 0 14 5 26 21 26zm47 9v-69c4 0 10-1 11 3v11c6-11 18-20 31-13-1 7 0 13-7 10-11-3-19 5-23 14v44h-12zm89-57c-8-5-27-7-27 6 0 10 22 11 30 18 9 7 7 21-1 27-11 10-32 8-42-2 2-3 4-8 8-5 8 5 24 9 28-2 9-20-34-10-34-35 0-22 31-25 45-12-1 3-3 8-7 5z"/>
      <path id="undefined" d="M2137 392v36c0 18 18 16 27 6v-42h10v57c-9 0-8 0-9-9-14 16-38 12-38-12v-36h10zm54 57v-57c9 0 8-1 9 8 15-16 38-11 38 12v37h-10v-37c0-18-17-16-27-5v42h-10zm100-3l-1-6c-16 18-41 8-41-20 0-24 23-39 41-23v-31h10v83c-3 0-8 1-9-3zm-1-13v-28c-11-14-30-6-30 15 0 22 17 29 30 13zm73-17c0 2 0 4-3 4h-38c0 18 16 28 33 17 4-3 5 1 7 4-18 17-50 8-50-22 0-36 51-39 51-3zm-40-2h31c0-21-28-22-31 0zm55 35v-49l-7-1c-3 0-2-3-2-6h9c0-21 14-30 34-26 0 6 1 6-5 6-15 0-19 6-19 20h34v56h-10v-49h-24v49h-10zm62 0v-57c2 0 8-1 8 2l1 6c15-16 38-11 38 12v37h-10v-37c0-18-18-16-27-5v42h-10zm109-33c0 2 0 4-3 4h-38c0 4 1 7 2 9 4 15 20 15 31 8 3-3 5 1 7 4-14 17-50 10-50-22 0-36 51-39 51-3zm-41-2h32c0-21-28-22-32 0zm91 32l-1-6c-17 20-41 8-41-20 0-24 24-40 40-23v-31h10v83c-2 0-7 1-8-3zm-2-13v-28c-10-14-30-6-30 15 0 22 18 29 30 13z"/>
      <path id="null" d="M3371 2787v-68c3 0 9-2 10 2l1 8c3-4 6-6 10-8 13-7 30-3 34 12 1 3 2 7 2 11v43h-12v-43c0-22-22-20-33-7v50h-12zm85-68v43c0 22 22 20 33 7v-50h12v68h-7c-2 0-3-1-3-2l-1-8c-3 4-6 6-10 8-13 7-30 3-34-12-1-3-2-7-2-11v-43h12zm78-31v99h-12v-99h12zm35 0v99h-12v-99h12z"/>
      <path id="two_stars" d="M3643 1374c0-9-1-33 2-41-6 7-25 17-34 22l-7-11c9-5 28-18 37-19-10-1-28-14-37-19l7-12c9 5 29 15 35 23-5-8-3-32-3-41h14c0 10 1 33-3 41 6-8 27-18 35-23l7 12c-8 5-27 18-37 19 10 1 28 14 37 19l-7 11c-8-4-30-15-35-22 4 8 3 30 3 41h-14zm122 0c0-9-2-33 2-41-6 7-26 17-35 22l-6-11c9-5 28-18 37-19-11-1-28-14-37-19l6-12c9 5 30 15 35 23-4-9-2-31-2-41h13c0 10 2 33-2 41 6-8 26-18 35-23l6 12c-8 5-27 18-36 19 10 1 28 14 36 19l-6 11c-8-4-30-15-35-22 4 8 2 31 2 41h-13z"/>
      <path id="slash_two_stars" d="M2822 560c-3 8-10 7-16 7l57-144c3-7 10-6 16-6l-57 143zm90-84c0-6-1-21 1-26-4 5-16 11-21 14l-5-7c6-4 18-12 24-12-7-1-18-9-24-12l5-7c5 3 18 9 22 14-3-5-2-20-2-26h8c0 6 1 21-1 26 4-5 17-11 22-14l4 7c-5 3-17 11-23 12 6 1 18 9 23 12l-4 7c-5-3-19-10-22-14 2 5 1 19 1 26h-8zm77 0c0-6-2-21 1-26-4 5-16 11-22 14l-4-7c5-4 17-12 23-12-6-1-17-9-23-12l4-7c6 3 19 9 22 14-3-5-1-20-1-26h8c0 6 1 21-1 26 3-5 16-11 21-14l5 7c-6 3-17 11-23 12 6 1 17 9 23 12l-5 7c-4-3-18-10-22-14 3 5 2 19 2 26h-8z"/>
      <path id="tag" d="M3357 2365l76 31-6 17-93-39v-18l93-39 6 17-76 31zm102 104h-20l73-208h20l-73 208zm79-135l6-17 93 39v18l-93 39-6-17 76-31-76-31z"/>
      <path id="js" d="M3261 623c4 7 7 13 16 13 8 0 13-3 13-15v-84h25v84c2 18-11 35-30 37-18 2-36-5-44-22l20-13zm74-55c0-38 54-43 71-13l-20 12c-5-13-26-14-27-1-2 23 54 14 54 58 0 40-66 47-86 9l20-12c10 20 41 19 41 3 0-21-53-15-53-56z"/>
      <path id="script" d="M2188 2439l37 15v11l-48-22v-9l48-22v12l-37 15zm87 14c-8-7-34-3-34-22 0-25 47-25 47 1h-11c0-13-25-15-25-2 0 11 22 10 31 17 8 7 7 19-1 25-14 11-43 5-43-15h11c0 12 17 15 25 9 4-3 4-9 0-13zm68 3h10c-1 26-53 35-53-12 0-17 9-32 28-32 14 0 24 9 25 23h-10c-2-20-32-20-32 9 0 35 30 27 32 12zm52-33c-8-1-16 0-19 9v44h-11v-63h10l1 8c3-6 12-11 19-8v10zm22 53h-11v-63h11v63zm-12-79c0-4 3-6 7-6 3 0 6 2 6 6s-3 6-6 6c-4 0-7-2-7-6zm82 49c0 11-3 23-14 29-9 5-22 3-28-5v30h-11v-87h10v7c13-15 36-8 41 11 2 5 2 10 2 15zm-33-24c-4 1-7 4-9 8v30c4 8 14 11 22 7 16-9 12-52-13-45zm61-24v15h12v9h-12v39c0 8 6 8 12 6v9c-14 4-22-1-22-15v-39h-12v-9h12v-15h10zm63 40l-39-15v-11l50 22v9l-50 22v-11l39-16z"/>
      <path id="type_error" d="M2860 2584h-26v72h-11v-72h-26v-9h63v9zm26 57l14-45h11c-5 14-21 70-30 79-4 5-12 7-18 5v-8c8 1 13-2 16-10l2-6-21-60h11l15 45zm86-14c0 26-25 42-41 24v29h-11v-84h10v7c18-22 42-1 42 24zm-41-15v29c9 15 30 9 30-14 0-22-20-33-30-15zm51 14c0-37 53-47 52 3h-41c0 3 0 5 1 8 5 15 23 16 32 4l7 5c-15 22-51 12-51-20zm11-5h30c0-23-27-24-30 0zm100-2h-35v29h41v8h-52v-81h51v9h-40v26h35v9zm47-14c-8-1-15 0-19 8v43h-10v-60h10v7c4-6 12-11 19-8v10zm39 0c-8-1-16 0-19 8v43h-11v-60h11v7c3-6 12-11 19-8v10zm33-10c19 0 28 15 28 32s-10 31-28 31-28-15-28-31c0-17 9-32 28-32zm-17 32c0 11 5 22 17 22s17-12 17-22c0-32-34-32-34 0zm87-22c-8-1-16 0-19 8v43h-10v-60h10v7c3-6 12-11 19-8v10z"/>
      <path id="destr" d="M2591 211v-33h11v90h-10l-1-7c-16 20-43 3-43-24 0-29 26-45 43-26zm-32 26c0 25 23 30 32 14v-29c-9-17-32-11-32 15zm57-1c0-39 55-48 53 3h-42c0 21 23 29 35 13l7 5c-19 24-53 12-53-21zm11-6h32c-2-24-29-23-32 0zm85 12c-11-4-31-4-31-20 0-24 48-25 48 1h-11c0-1 0-2-1-4-4-10-25-9-25 3s29 7 36 22c5 10-3 21-13 24-14 4-36-2-36-20h11c1 11 12 14 21 12 10-3 11-14 1-18zm46-53v16h12v8h-12v39c0 9 6 8 12 7v9c-13 3-23-1-23-16v-39h-11v-8h11v-16h11zm55 25c-8-1-16 0-20 9v45h-10v-63h10v7c4-6 14-11 20-8v10zm35-11c19 0 29 16 29 34 0 17-11 32-29 32-19 0-29-15-29-32 0-18 9-34 29-34zm-18 34c0 11 5 23 18 23s18-12 18-23c0-12-4-25-18-25s-18 14-18 25zm80 15l15-47h11l-25 73c-4 11-12 18-25 14v-8c9 1 14-3 17-10l2-7-23-62h12l16 47zm61 17c-20 0-29-15-29-33 0-39 54-48 54 3h-43c0 11 7 21 19 21 7 0 12-3 17-8l6 5c-5 8-14 12-24 12zm-17-39h31c0-23-28-24-31 0zm52 6c0-27 26-45 42-25v-33h11v90h-10v-7c-17 21-43 3-43-25zm42 15v-29c-7-14-26-12-30 5-1 3-1 6-1 9 0 26 23 32 31 15z"/>
      <path id="func_js" d="M2421 2710v-10c22 0 8-35 8-49 0-23 15-29 34-29 0 6 2 11-5 11-36 0 8 63-25 72 30 8-1 51 14 67 2 3 6 5 11 5 7 0 5 4 5 10-14 0-27-2-33-17-7-19 16-60-9-60zm212 0v-10c-22 0-8-35-8-49 0-23-15-29-34-29 0 6-2 11 5 11 35 0-9 63 25 72-34 9 11 72-25 72-7 0-5 4-5 10 14 0 27-2 32-17 7-19-15-60 10-60zm-130-43v81c0 16-10 23-26 19v-9c8 2 14 0 14-10v-81h12zm-12-24c3-3 9-3 11 0 3 3 3 8 0 10-2 3-8 3-11 0-2-2-2-7 0-10zm74 77c0-11-19-12-28-15-11-4-19-13-13-26 8-15 33-17 45-6 5 4 8 9 8 16h-13c0-14-24-17-29-6-3 7 2 11 8 13 9 3 20 3 28 10 13 10 5 29-10 33-16 5-41-2-41-22h12c1 18 33 17 33 3z"/>
      <animate id="l_back_blick" attributeType="CSS" attributeName="opacity" values="1;0;1;0.2;1;0.2;1;0.3" begin="but_blick.begin" dur="0.7s" fill="freeze"/>
    </g>
    <set attributeName="opacity" attributeType="XML" begin="but_blick.begin" to=".35"/>
  </g>
  <g id="guy_nimb">
    <g>
      <circle cx="2256" cy="1094" r="117" fill="none"/>
      <path d="M2288 1097l28-24c23-19-6-55-30-35l-28 23-23-27c-20-24-55 6-36 29l24 28-28 24c-23 19 6 55 30 35l28-23 23 28c20 23 55-7 36-30l-24-28z" fill="#fff" fill-rule="nonzero"/>
      <animateTransform attributeName="transform" attributeType="XML" type="rotate" dur="0.6s" fill="freeze" values="-180 2256 1094;0 2256 1094" begin="0s" repeatCount="indefinite"/>
    </g>
    <g>
      <circle cx="3622" cy="885" r="117" fill="none"/>
      <path d="M3667 889l32 38c26 32-22 72-49 41l-32-39-38 32c-32 27-72-21-40-48l38-32-32-38c-27-32 22-72 48-41l32 39 38-32c32-27 72 21 41 48l-38 32z" fill="#fff" fill-rule="nonzero"/>
      <animateTransform attributeName="transform" attributeType="XML" type="rotate" dur="0.6s" fill="freeze" values="-90 3622 885;0 3622 885" begin="0s" repeatCount="indefinite"/>
    </g>
    <path d="M3459 877c-1 33-49 60-143 79 63-14 101-34 102-56 5-139-1114-176-1119-39-1 29 59 49 81 58-33-5-119-37-117-81 22-185 1175-141 1196 39z" fill="#fff" fill-opacity=".3"/>
    <circle id="ndot1" r="36">
      <animateMotion dur="1.5s" fill="freeze" repeatCount="indefinite" path="M2407 929c-83,-29 -131,-71 -131,-107 0,-124 475,-131 584,-127 119,5 580,54 584,170 3,82 -263,146 -586,135 -181,-7 -344,-34 -451,-71z"/>
    </circle>
    <circle id="ndot2" r="46">
      <animateMotion dur="1.5s" fill="freeze" repeatCount="indefinite" path="M3128 722c188,31 315,101 316,143 3,82 -261,139 -584,127 -322,-12 -584,-88 -584,-170 0,-82 262,-139 584,-127 97,4 188,13 268,27z"/>
    </circle>
    <path id="nstar1" transform="translate(-2550 -720)" d="M2546 718l28-23c24-20-6-55-29-36l-28 24-24-28c-20-23-55 6-36 30l24 28-28 23c-23 20 7 55 30 36l28-24 23 28c20 23 56-6 36-30l-24-28z">
      <animateMotion dur="1.5s" fill="freeze" repeatCount="indefinite" path="M2517 711c96,-14 215,-20 343,-16 119,5 580,54 584,170 3,82 -261,139 -584,127 -322,-12 -584,-88 -584,-170 0,-49 95,-89 241,-111z"/>
    </path>
    <path id="nstar2" transform="translate(-3100 -1000)" d="M3109 987l28-24c24-19-6-55-29-35l-29 23-23-28c-20-23-55 7-36 30l24 28-28 24c-23 19 7 55 30 35l28-24 23 28c20 24 56-6 36-29l-24-28z">
      <animateMotion dur="1.5s" fill="freeze" repeatCount="indefinite" path="M3080 996c-68,5 -143,6 -222,4 -102,-4 -582,-42 -582,-178 0,-124 475,-131 584,-127 119,5 580,54 584,170 2,62 -150,114 -364,131z"/>
    </path>
  </g>
  <g id="guy">
    <g id="guy_legs">
      <path id="leg_left" d="M2971 2359c0-5-6-10-15-13v-148h-45v147c-12 3-20 8-20 14 0 21 80 21 80 0z"/>
      <path id="leg_right" d="M3067 2332c0-5-6-10-15-13v-127h-44v129c-7 3-10 7-10 11 0 21 69 21 69 0z"/>
    </g>
    <g id="guy_arms">
      <path id="arm_right" d="M3736 1823c3 7 2 22-6 25-10 3-44-18-52-25-31 2-20 32-33 50-7 9-17 20-29 11-4-4-1-10 2-20 23-64-32-99 27-152-40-102-144-129-238-156l10-33c108 31 223 65 264 186 16 3 40 14 52 26 5 2 21 8 24 13s2 19-5 21c7 7 6 27-5 27 5 9 3 30-11 27z"/>
      <path id="arm_left" d="M2151 2008c1 7 8 20 17 19 10-1 31-36 35-45 17-7 25 0 35 13 9 11 38 36 47 14 3-5-3-10-10-17-44-43-16-90-69-116-28-214 216-273 379-306l-7-34c-177 36-428 105-407 333-23 6-48 37-56 58-3 3-6 7-8 10-2 2-7 9-8 12 0 7 6 19 14 18-4 8 7 26 17 22-2 8 9 27 21 19z"/>
    </g>
    <path d="M2519 854h714l272 353-61 903c-1 24-19 43-43 45l-877 90c-26 3-50-16-53-43V902c0-27 22-48 48-48z" fill="#fff" fill-rule="nonzero"/>
    <path d="M3496 1210l-267-347h-710c-21 0-39 17-39 39v1295c0 23 20 42 43 39l877-90c19-2 34-17 35-36l61-900z" fill="none" stroke="#f6511d" stroke-width="12"/>
    <path id="g_eye_left" d="M2765 1186l-13 35-34-14c-28-11-46 31-18 43l34 13-13 34c-12 29 31 46 43 18l13-34 34 13c12 5 26-1 30-12 5-12 0-26-12-30l-34-14 13-34c12-28-31-46-43-18z"/>
    <path id="g_eye_right" d="M3062 1174l-14 34-34-13c-28-12-45 31-17 43l34 13-14 34c-11 29 32 46 43 18l14-34 34 13c28 12 45-31 17-43l-34-13 14-34c11-28-32-46-43-18z"/>
    <path d="M2489 993v1207c4 24 24 33 61 27 54-9 686-67 704-76 13-6-196 10-626 49-66 6-101-14-103-59s-14-428-36-1148z" fill="#f3d0d0"/>
    <path stroke="#c52623" stroke-width="20" stroke-linecap="square" stroke-opacity=".1" d="M2616 1731h750"/>
    <path stroke="#c52623" stroke-width="20" stroke-linecap="square" stroke-opacity=".3" d="M2616 1833h750M2616 1918h363"/>
    <path d="M3271 1168l224 28-262-336-27 224c-5 41 24 79 65 84z" fill="#f6511d"/>
    <path d="M3272 2053c0 36-26 56-63 51 1-7-1-20 7-21 24 2 31-6 31-29v-86l25 3v82zm87-51c-10-6-26-12-37-5-6 4-7 12-3 17 2 2 4 3 7 5 13 6 30 7 42 16 10 8 11 20 6 31-14 28-63 34-86 15 4-6 9-19 18-13 15 8 48 12 48-11 0-13-23-13-41-21-17-7-24-25-17-42 14-28 60-17 79-1-5 6-8 14-16 9z" fill="#d0d0d0"/>
    <path d="M3124 1439l-51 45-50-45c-7-5-20-5-26 0l-54 47-54-47c-6-5-19-5-25 0l-54 47-54-47c-6-5-19-5-25 0l-61 53c-15 14 4 38 20 25l53-47 54 47c6 5 20 5 26 0l54-47 53 47c6 5 20 5 26 0l54-47 53 47c6 5 14 5 20 0l54-47 53 47c16 13 35-11 20-25l-60-53c-6-5-20-5-26 0z" fill="#2b2d42"/>
  </g>
</svg>